<svg xmlns="http://www.w3.org/2000/svg" width="344.48404mm" height="191.54237mm" viewBox="0 0 344.48404 191.54237"><defs><linearGradient id="b" x1="0" x2="1" y1="0" y2="0" gradientTransform="matrix(0 -10.06549 -10.06549 0 115.264 298.507)" gradientUnits="userSpaceOnUse" spreadMethod="pad"><stop offset="0" style="stop-opacity:1;stop-color:#fff"/><stop offset="0.15" style="stop-opacity:1;stop-color:#fff"/><stop offset="1" style="stop-opacity:1;stop-color:#00adef"/></linearGradient><linearGradient id="c" x1="0" x2="1" y1="0" y2="0" gradientTransform="matrix(0 -9.97629 -9.97629 0 108.046 298.42)" gradientUnits="userSpaceOnUse" spreadMethod="pad"><stop offset="0" style="stop-opacity:1;stop-color:#fff"/><stop offset="0.15" style="stop-opacity:1;stop-color:#fff"/><stop offset="1" style="stop-opacity:1;stop-color:#00adef"/></linearGradient><linearGradient id="d" x1="0" x2="1" y1="0" y2="0" gradientTransform="matrix(0 -12.93825 -12.93825 0 135.663 298.034)" gradientUnits="userSpaceOnUse" spreadMethod="pad"><stop offset="0" style="stop-opacity:1;stop-color:#fff"/><stop offset="0.15" style="stop-opacity:1;stop-color:#fff"/><stop offset="1" style="stop-opacity:1;stop-color:#00adef"/></linearGradient><linearGradient id="e" x1="0" x2="1" y1="0" y2="0" gradientTransform="matrix(0 -9.75548 -9.75548 0 122.147 298.12)" gradientUnits="userSpaceOnUse" spreadMethod="pad"><stop offset="0" style="stop-opacity:1;stop-color:#fff"/><stop offset="0.15" style="stop-opacity:1;stop-color:#fff"/><stop offset="1" style="stop-opacity:1;stop-color:#00adef"/></linearGradient><linearGradient id="f" x1="0" x2="1" y1="0" y2="0" gradientTransform="matrix(0 -10.68298 -10.68298 0 101.615 298.292)" gradientUnits="userSpaceOnUse" spreadMethod="pad"><stop offset="0" style="stop-opacity:1;stop-color:#fff"/><stop offset="0.15" style="stop-opacity:1;stop-color:#fff"/><stop offset="1" style="stop-opacity:1;stop-color:#00adef"/></linearGradient><linearGradient id="g" x1="0" x2="1" y1="0" y2="0" gradientTransform="matrix(0 -10.62752 -10.62752 0 128.803 298.292)" gradientUnits="userSpaceOnUse" spreadMethod="pad"><stop offset="0" style="stop-opacity:1;stop-color:#fff"/><stop offset="0.15" style="stop-opacity:1;stop-color:#fff"/><stop offset="1" style="stop-opacity:1;stop-color:#00adef"/></linearGradient><linearGradient id="h" x1="0" x2="1" y1="0" y2="0" gradientTransform="matrix(0 -13.15906 -13.15906 0 94.922 297.948)" gradientUnits="userSpaceOnUse" spreadMethod="pad"><stop offset="0" style="stop-opacity:1;stop-color:#fff"/><stop offset="0.15" style="stop-opacity:1;stop-color:#fff"/><stop offset="1" style="stop-opacity:1;stop-color:#00adef"/></linearGradient><clipPath id="a" clipPathUnits="userSpaceOnUse"><path d="M51.379 218.268H356.81v170.078H51.379Z"/></clipPath></defs><g style="stroke-width:.312673"><g clip-path="url(#a)" style="stroke-width:.312673" transform="matrix(1.12827 0 0 -1.12827 -58.03 437.807)"><g style="stroke-width:.312673"><path d="M0 0c9.849 12.152 15.577 25.707 16.567 39.198l.855 11.657c.057.783-.947 1.152-1.41.519l-6.904-9.432C-5.313 22.243-38.81 2.297-78.311-10.114a281.995 281.995 0 0 0-7.871-2.343 304.56 304.56 0 0 0-3.276-.899c-11.349-2.868-27.656-4.666-45.778-4.666-18.123 0-34.429 1.798-45.779 4.666-1.093.295-2.186.592-3.275.899a280.989 280.989 0 0 0-7.871 2.343c-39.502 12.411-72.999 32.357-87.42 52.056l-6.904 9.432c-.464.633-1.467.264-1.41-.519l.856-11.657c.99-13.491 6.717-27.046 16.566-39.198 3.032-3.741 6.853-6.928 11.136-9.304a234.54 234.54 0 0 0-8.399 3.228l-5.366 2.183a.78.78 0 0 1-1.069-.828l.78-5.741c1.243-9.151 9.119-17.968 22.786-25.512l-6.154.823a.585.585 0 0 1-.606-.834l2.854-5.929c3.014-6.26 9.658-11.237 19.347-14.541l-2.691-.453a.586.586 0 0 1-.346-.961l4.131-4.772c2.914-3.367 7.167-5.756 12.679-7.14l-2.284-15.718a.586.586 0 0 1 .715-.655l13.138 3.108c2.078.491 4.191.969 6.278 1.419l6.718 1.449 1.528 11.108c.171-.191.348-.376.532-.556 2.282-2.227 5.372-3.454 8.7-3.454.627 0 1.266.044 1.889.132a363.12 363.12 0 0 0 12.959 1.551s6.267.577 6.619.607c2.372.195 4.793.37 7.173.518l4.007.226c1.564.08 3.128.149 4.674.208l2.651.09c2.114.064 4.245.11 6.333.135l4.582.058 4.569-.06c2.127-.027 4.258-.073 6.3-.136 0 0 5.587-.215 5.917-.229 3.473-.164 7.01-.384 10.513-.653a13.552 13.552 0 0 1 5.126.577 14.45 14.45 0 0 1 5.061-1.506c4.133-.436 8.312-.952 12.412-1.532.264-.037.528-.068.793-.09 2.06-3.496 5.664-6.074 9.854-6.882a325.56 325.56 0 0 0 13.685-2.914l13.125-3.091a.586.586 0 0 1 .714.654l-2.258 15.563c5.652 1.374 10 3.788 12.966 7.213l4.13 4.772a.585.585 0 0 1-.346.961l-2.69.453c9.688 3.304 16.333 8.281 19.346 14.541l2.854 5.929a.585.585 0 0 1-.605.834l-6.154-.823C-6.202-28.43 1.675-19.613 2.919-10.462l.779 5.741a.78.78 0 0 1-1.068.828l-5.366-2.183a235.328 235.328 0 0 0-8.4-3.228C-6.853-6.928-3.032-3.741 0 0" style="fill:#deddde;fill-opacity:1;fill-rule:nonzero;stroke:none;stroke-width:.312673" transform="translate(339.33 336.34)"/></g><g style="stroke-width:.312673"><path d="M0 0c-38.293 0-69.333-31.04-69.333-69.332 0-38.295 31.039-69.334 69.331-69.334s69.333 31.039 69.333 69.334C69.331-31.04 38.292 0 0 0" style="fill:#deddde;fill-opacity:1;fill-rule:nonzero;stroke:none;stroke-width:.312673" transform="translate(204.096 356.933)"/></g><g style="stroke-width:.312673"><path d="M0 0c25.801 0 46.791-20.991 46.791-46.792 0-25.801-20.99-46.79-46.791-46.79-25.799 0-46.79 20.989-46.79 46.79S-25.799 0 0 0" style="fill:#f25c19;fill-opacity:1;fill-rule:nonzero;stroke:none;stroke-width:.312673" transform="translate(204.094 334.391)"/></g><g style="stroke-width:.312673"><path d="M0 0c-2.912-6.884-3.242-15.069-2.259-21.672 1.237-8.339 4.441-14.936 11.819-24.345 6.552-8.353 9.561-13.949 9.872-18.534-17.605 4.18-31.568 18.222-34.138 35.283C-13.618-17.685-8.163-7.375 0 0m75.273-29.271c-2.571-17.061-16.534-31.1-34.138-35.28.311 4.587 3.32 10.183 9.872 18.534 7.378 9.409 10.581 16.006 11.82 24.345.981 6.603.65 14.788-2.26 21.669 8.164-7.373 13.618-17.683 14.706-29.268M52.809-72.727c-2.187-.48-5.078-.195-7.373.854-1.537.702-3.387 1.987-4.051 4.233 15.017 3.301 27.394 13.157 33.402 26.245-2.348-13.406-10.598-24.773-21.978-31.332M22.165-68.2a52.339 52.339 0 0 1 6.606-.616v-9.891a44.964 44.964 0 0 0-15.167 3.154c.96.22 1.901.524 2.784.928 3.044 1.392 5.059 3.645 5.777 6.425m22.014-6.425a14.7 14.7 0 0 1 2.778-.931 44.937 44.937 0 0 0-15.162-3.151v9.891c2.243.067 4.449.275 6.609.616.718-2.78 2.73-5.033 5.775-6.425m9.737 79.604c6.196-6.766 7.163-17.834 5.919-26.207-1.168-7.86-4.1-13.858-11.207-22.923-7.291-9.292-10.468-15.574-10.538-21.008a46.736 46.736 0 0 0-6.295-.63V11.61a44.954 44.954 0 0 0 22.121-6.631M6.652 4.98a44.956 44.956 0 0 0 22.119 6.63v-77.399a46.738 46.738 0 0 0-6.294.63c-.071 5.433-3.248 11.715-10.538 21.008C4.831-35.086 1.9-29.088.732-21.226-.513-12.855.453-1.787 6.652 4.98M-14.22-41.404C-8.209-54.488 4.167-64.34 19.182-67.64c-.665-2.246-2.515-3.531-4.05-4.233-2.3-1.049-5.189-1.333-7.373-.854C-3.62-66.17-11.869-54.807-14.22-41.404m44.503-41.282c27.096 0 49.139 22.043 49.139 49.137 0 27.095-22.043 49.139-49.139 49.139-27.094 0-49.138-22.044-49.138-49.139 0-27.094 22.044-49.137 49.138-49.137" style="fill:#3948a4;fill-opacity:1;fill-rule:nonzero;stroke:none;stroke-width:.312673" transform="translate(173.811 321.149)"/></g><g style="stroke-width:.312673"><path d="m0 0 3.847 1.542-.102.256.001.001-1.214 3.03.008.004c-.228.57-.869.848-1.441.635l-.008.012-8.536-3.421.627-1.563L.997 3.628l.494-1.23-7.989-3.202.621-1.551 3.885 1.556.45-1.12-3.886-1.558.627-1.563 7.988 3.201.675-1.684 1.737.696-.884 2.206.009.005c-.221.551-.83.828-1.388.649l-.001.002-.017-.007C3.298.021 3.277.019 3.257.01l.002-.005-2.81-1.127Z" style="fill:#3948a4;fill-opacity:1;fill-rule:nonzero;stroke:none;stroke-width:.312673" transform="translate(183.417 342.447)"/></g><g style="stroke-width:.312673"><path d="M0 0a1.206 1.206 0 1 0-1.472 1.91A1.206 1.206 0 0 0 0 0m3.399 7.041.003.001c-.008.01-.016.017-.024.025l-.008.012-.001-.001a1.125 1.125 0 0 1-1.496.204l-.003.003-.028-.023-.023-.013.001-.003-5.879-4.529-.525.68-1.465-1.129L-4.926.811l.001.001.429-.557.776.598c-.016-.632.156-1.259.553-1.773.956-1.242 2.82-1.409 4.163-.374 1.344 1.035 1.659 2.88.702 4.121-.396.515-.958.842-1.573.987l2.134 1.643L5.972.651.691-3.414-.098-2.39l-1.474-1.136 1.088-1.412-.001-.001c.003-.005.007-.007.011-.011l.013-.017h.002a1.185 1.185 0 0 1 1.613-.204l.006-.008L8.467.449l-.748.971.015.011-2.435 3.152 1.105.852-1.027 1.334-1.109-.854Z" style="fill:#3948a4;fill-opacity:1;fill-rule:nonzero;stroke:none;stroke-width:.312673" transform="translate(167.387 333.325)"/></g><g style="stroke-width:.312673"><path d="M0 0a1.59 1.59 0 0 0-.865 2.078A1.59 1.59 0 1 0 0 0m7.627 4.676-.022.008a1.124 1.124 0 0 1-.546 1.371l.002.009-8.536 3.516-.642-1.557 7.779-3.204-.666-1.62-2.678 1.102.431 1.044-1.985.817-.43-1.043-3.502 1.443-.637-1.544 2.169-.894a2.49 2.49 0 0 1-1.242-1.309c-.657-1.596.355-3.524 2.26-4.309 1.905-.785 3.982-.128 4.639 1.467.249.604.244 1.224.041 1.804L6.091.941l.636 1.545-.002.001Z" style="fill:#3948a4;fill-opacity:1;fill-rule:nonzero;stroke:none;stroke-width:.312673" transform="translate(225.038 338.719)"/></g><g style="stroke-width:.312673"><path d="m0 0-.004.041h-.004a1.123 1.123 0 0 1-1.194.981v.013l-4.924-.42.143-1.678 4.064.347.179-1.974c.2-2.344-1.239-3.544-3.128-3.706l-.876-.082.143-1.679 1.091.097C-1.806-7.829.505-5.919.205-2.4L.001-.007v.001L0 0" style="fill:#3948a4;fill-opacity:1;fill-rule:nonzero;stroke:none;stroke-width:.312673" transform="translate(197.417 349.507)"/></g><g style="stroke-width:.312673"><path d="M0 0a1.126 1.126 0 0 1-.971-1.209h.004l.701-8.214 1.863.159-.654 7.671 1.619.138L2.419.223 0 .017Z" style="fill:#3948a4;fill-opacity:1;fill-rule:nonzero;stroke:none;stroke-width:.312673" transform="translate(200.29 350.872)"/></g><g style="stroke-width:.312673"><path d="m0 0 10.384-1.39.221 1.655L.222 1.656Z" style="fill:#3948a4;fill-opacity:1;fill-rule:nonzero;stroke:none;stroke-width:.312673" transform="translate(206.894 342.17)"/></g><g style="stroke-width:.312673"><path d="M0 0c.732-.941 2.062-1.662 3.681-1.95l1.15-.177.222 1.656-1.256.198C2.223.039 1.131.835 1.298 2.081l.082.633-.143.019-1.711.229-.143.019-.088-.632C-.872 1.103-2.134.623-3.735.737l-1.322.145-.222-1.655 1.214-.14C-2.427-1.061-.954-.715 0 0" style="fill:#3948a4;fill-opacity:1;fill-rule:nonzero;stroke:none;stroke-width:.312673" transform="translate(212.944 347.743)"/></g><g style="stroke-width:.312673"><path d="M0 0c-1.445 1.632-1.45 3.555.372 6.127l.457.645c.021.03.042.056.064.085l.276.388-.003.003.002.003-.806.569-.805.573-.002-.004-.003.002-.275-.389-.059-.089-.456-.645c-1.824-2.572-3.64-3.203-5.658-2.381l-.883-1.584c1.593-.841 3.22-.941 4.885-.079-.263-1.855.37-3.357 1.693-4.581l.023-.017.269-.256-.538-.76L.078-3.471 4.529 2.81l1.326-.939.975 1.374-1.946 1.379-.008-.011a1.127 1.127 0 0 1-1.521-.245l-.01.007L.139-.151Z" style="fill:#3948a4;fill-opacity:1;fill-rule:nonzero;stroke:none;stroke-width:.312673" transform="translate(239.243 332.295)"/></g><g style="stroke-width:.312673"><path d="m0 0 .743-1.027c.519-.69 1.066-.828 1.641-.412.321.233.488.489.501.768.013.28-.118.61-.396.993l-.703.972Zm-1.032-.747-1.913-1.385.86-1.189c.237-.326.504-.523.8-.587.297-.065.59.007.879.216.648.47.747 1.028.295 1.673zm-4.091-.847 7.087 5.131 1.708-2.358c.591-.818.875-1.556.852-2.217-.024-.661-.354-1.222-.99-1.683a2.056 2.056 0 0 0-1.102-.409 1.836 1.836 0 0 0-1.093.286c.159-.411.172-.815.041-1.214C1.248-4.456.983-4.8.583-5.09c-.682-.493-1.347-.66-1.996-.5-.65.159-1.255.619-1.814 1.378z" style="fill:#3948a4;fill-opacity:1;fill-rule:nonzero;stroke:none;stroke-width:.312673" transform="translate(156.069 254.74)"/></g><g style="stroke-width:.312673"><path d="m0 0 1.446-1.492 1.626 3.03zm.72-2.841L-1.37-.685l-1.692-.844-1.267 1.308 8.436 3.867 1.104-1.139-4.116-8.324-1.268 1.308z" style="fill:#3948a4;fill-opacity:1;fill-rule:nonzero;stroke:none;stroke-width:.312673" transform="translate(160.211 246.675)"/></g><g style="stroke-width:.312673"><path d="M0 0c.209.269.279.545.21.829-.069.285-.276.689-.621 1.212-.346.523-.596.97-.749 1.336-.417 1.002-.347 1.864.21 2.583a2.19 2.19 0 0 0 1.075.766c.427.139.891.145 1.393.019a3.924 3.924 0 0 0 1.454-.73c.469-.364.818-.777 1.046-1.241.228-.463.318-.936.267-1.42a2.6 2.6 0 0 0-.556-1.347L2.375 3.055c.245.318.342.637.288.96-.053.323-.252.616-.594.882-.331.256-.645.383-.943.377A.897.897 0 0 1 .4 4.905C.225 4.68.187 4.409.284 4.091c.098-.32.304-.707.619-1.164.581-.84.908-1.578.98-2.212.073-.633-.1-1.219-.517-1.759-.464-.597-1.043-.9-1.736-.908-.695-.006-1.406.272-2.134.836-.505.392-.89.846-1.154 1.363-.265.516-.374 1.028-.33 1.537.045.507.24.984.586 1.431l1.358-1.053c-.591-.764-.454-1.481.412-2.152.322-.249.627-.376.914-.378C-.43-.369-.191-.247 0 0" style="fill:#3948a4;fill-opacity:1;fill-rule:nonzero;stroke:none;stroke-width:.312673" transform="translate(167.837 238.634)"/></g><g style="stroke-width:.312673"><path d="m0 0-1.272-.441-1.231-2.176-1.491.844L.313 5.843 1.805 5-.148 1.547l1.192.577 3.26 1.462 1.833-1.037L1.654.618l.251-5.728L.131-4.106Z" style="fill:#3948a4;fill-opacity:1;fill-rule:nonzero;stroke:none;stroke-width:.312673" transform="translate(174.242 235.924)"/></g><g style="stroke-width:.312673"><path d="m0 0-3.066 1.189-.847-2.184 3.598-1.396-.525-1.351-5.194 2.016 3.166 8.157 5.183-2.012-.529-1.361L-1.8 4.45l-.755-1.944 3.066-1.19Z" style="fill:#3948a4;fill-opacity:1;fill-rule:nonzero;stroke:none;stroke-width:.312673" transform="translate(184.705 231.446)"/></g><g style="stroke-width:.312673"><path d="m0 0-2.485.56-1.604-7.11-1.67.378 1.605 7.11-2.451.552.322 1.425 6.604-1.49z" style="fill:#3948a4;fill-opacity:1;fill-rule:nonzero;stroke:none;stroke-width:.312673" transform="translate(194.923 232.438)"/></g><g style="stroke-width:.312673"><path d="m0 0 1.264-.092c.863-.047 1.32.284 1.372.99.028.396-.06.689-.265.879-.206.189-.545.301-1.015.335L.16 2.2Zm-.092-1.271-.172-2.355L1.2-3.733c.401-.029.723.049.964.234.24.185.373.456.399.812.058.799-.304 1.233-1.09 1.302zm-1.985-3.675.635 8.726 2.904-.211c1.005-.073 1.754-.332 2.245-.775.49-.443.707-1.057.65-1.84a2.06 2.06 0 0 0-.396-1.107 1.818 1.818 0 0 0-.924-.652c.417-.143.736-.394.957-.751.22-.358.312-.781.276-1.273-.061-.84-.362-1.456-.901-1.851-.541-.395-1.281-.561-2.224-.501Z" style="fill:#3948a4;fill-opacity:1;fill-rule:nonzero;stroke:none;stroke-width:.312673" transform="translate(198.476 229.838)"/></g><g style="stroke-width:.312673"><path d="m0 0 2.072.147L.8 3.34Zm2.637-1.277-2.995-.212-.443-1.839-1.817-.128L-.147 5.49l1.583.112 3.72-8.508-1.817-.129z" style="fill:#3948a4;fill-opacity:1;fill-rule:nonzero;stroke:none;stroke-width:.312673" transform="translate(207.22 227.843)"/></g><g style="stroke-width:.312673"><path d="m0 0 3.556.759.303-1.417-5.232-1.115-1.826 8.556 1.676.357Z" style="fill:#3948a4;fill-opacity:1;fill-rule:nonzero;stroke:none;stroke-width:.312673" transform="translate(216.232 227.16)"/></g><g style="stroke-width:.312673"><path d="m0 0 3.431 1.203.48-1.366-5.048-1.77-2.895 8.256 1.616.568z" style="fill:#3948a4;fill-opacity:1;fill-rule:nonzero;stroke:none;stroke-width:.312673" transform="translate(223.771 229.179)"/></g><g style="stroke-width:.312673"><path d="M0 0c.427-.841.523-1.647.29-2.417-.236-.769-.771-1.405-1.607-1.903-.916-.547-1.829-.652-2.74-.317-.911.336-1.705 1.07-2.38 2.202l-.275.459c-.431.722-.69 1.431-.776 2.126-.087.694.007 1.323.28 1.885.275.563.709 1.021 1.303 1.376.824.492 1.626.656 2.406.492.781-.165 1.461-.643 2.04-1.436L-2.93 1.59c-.325.463-.663.739-1.013.825-.352.087-.754-.005-1.204-.273-.49-.293-.746-.697-.769-1.211-.023-.516.194-1.164.651-1.945l.339-.567c.485-.813.955-1.337 1.413-1.572.458-.236.937-.203 1.441.097.455.27.728.583.822.934.093.353.02.768-.22 1.244z" style="fill:#3948a4;fill-opacity:1;fill-rule:nonzero;stroke:none;stroke-width:.312673" transform="translate(237.78 237.661)"/></g><g style="stroke-width:.312673"><path d="m0 0 2.831 2.282.909-1.127-4.165-3.358-5.491 6.811 1.333 1.075Z" style="fill:#3948a4;fill-opacity:1;fill-rule:nonzero;stroke:none;stroke-width:.312673" transform="translate(242.184 239.158)"/></g><g style="stroke-width:.312673"><path d="m0 0 4.16-3.987c.692-.663 1.042-1.392 1.05-2.188.009-.796-.328-1.55-1.01-2.262-.672-.7-1.4-1.069-2.186-1.108-.785-.038-1.523.267-2.213.913L-4.408-4.6l1.185 1.237 4.17-3.996c.413-.396.804-.591 1.175-.585.369.007.713.177 1.032.509.667.696.62 1.417-.139 2.166L-1.189-1.24z" style="fill:#3948a4;fill-opacity:1;fill-rule:nonzero;stroke:none;stroke-width:.312673" transform="translate(245.565 252.411)"/></g><g style="stroke-width:.312673"><path d="m0 0 1.93-1.363.845 1.199c.234.328.333.645.298.946-.034.302-.197.555-.489.761-.654.463-1.214.375-1.678-.261Zm-1.04.735.731 1.035c.486.715.439 1.277-.14 1.686-.324.229-.62.304-.889.226-.269-.078-.539-.309-.811-.695l-.693-.979Zm3.164-4.332-7.146 5.049 1.68 2.377c.582.824 1.19 1.332 1.822 1.523.634.191 1.271.06 1.912-.393.35-.247.598-.551.744-.91.146-.359.173-.735.083-1.128.337.283.716.427 1.135.432.419.003.831-.137 1.233-.421.688-.486 1.06-1.062 1.12-1.728.059-.666-.18-1.386-.719-2.162Z" style="fill:#3948a4;fill-opacity:1;fill-rule:nonzero;stroke:none;stroke-width:.312673" transform="translate(251.8 252.427)"/></g><g style="stroke-width:.312673"><path d="M0 0c-13.779-5.582-29.396-10.324-46.17-13.768-.962-.198-1.916-.374-2.876-.56l-11.023.437-3.42.136C-44.673-9.175-27.16-3.229-13.325 3.473-8.8 5.666-4.832 8.791-1.716 12.637c9.265 11.432 14.379 23.854 15.538 35.54.039.39-.461.579-.699.267-14.828-19.358-47.739-39.6-88.699-52.468a285.484 285.484 0 0 0-16.87-4.734c-.129-.032-.26-.062-.389-.095-7.163-1.606-15.932-2.877-25.714-3.678l.001-.001c-1.863-.155-3.625-.856-5.009-2.011l-.377 2.09h-19.519l-.377-2.088c-1.435 1.201-3.28 1.912-5.223 2.02-9.733.802-18.46 2.069-25.593 3.668-.13.033-.26.063-.389.095a285.484 285.484 0 0 0-16.87 4.734c-40.96 12.868-73.871 33.11-88.7 52.468-.237.312-.737.123-.699-.267 1.16-11.686 6.275-24.109 15.539-35.54 3.117-3.846 7.084-6.971 11.609-9.164 13.836-6.702 31.35-12.649 50.168-17.229-1.681-.066-3.549-.14-5.636-.224l-8.807-.349c-.96.187-1.916.363-2.88.561-16.775 3.444-32.391 8.186-46.17 13.768a.197.197 0 0 1-.268-.211c1.259-7.907 8.896-15.676 20.877-22.241a32.654 32.654 0 0 1 10.711-3.663c3.73-.574 7.548-1.058 11.438-1.441 4.517-.446 8.953-.724 13.306-.877l.194-.375-.337-2.324c-13.358-.885-26.051-.49-37.364.997a.197.197 0 0 1-.202-.283c3.103-6.059 10.558-10.587 20.975-13.351 2.957-.784 6.048-.929 9.078-.495 1.894.27 3.812.582 5.737.912l-.471-3.244a198.393 198.393 0 0 0-15.292-3.246.196.196 0 0 1-.113-.325c2.99-3.278 7.82-5.352 13.974-6.282l-2.099-14.447 8.058 1.906c2.107.499 4.246.982 6.359 1.438l3.888.839 1.529 11.106a349.386 349.386 0 0 0 4.89 3.639 7.506 7.506 0 0 1 2.231-4.665c1.516-1.481 3.584-2.28 5.811-2.28.436 0 .878.031 1.323.093 4.373.604 8.796 1.134 13.147 1.573 0 0 6.384.588 6.658.611 2.399.197 4.847.374 7.28.525l4.03.228c1.581.08 3.162.15 4.745.211l2.665.089a350.8 350.8 0 0 0 6.406.138l4.635.059 4.621-.06a353.57 353.57 0 0 0 6.405-.141s5.692-.218 5.953-.23c3.527-.167 7.106-.389 10.635-.66.258-.019.515-.03.77-.03 1.592 0 3.107.395 4.412 1.121a10.19 10.19 0 0 1 5.123-2.03c4.17-.441 8.4-.963 12.563-1.551.457-.065.91-.098 1.357-.098a8.9 8.9 0 0 1 1.496.13c.999-3.442 4.158-6.299 7.983-7.035a331.132 331.132 0 0 0 13.859-2.953l8.051-1.896-2.079 14.331c6.291.908 11.228 2.993 14.264 6.321a.197.197 0 0 1-.113.325 198.56 198.56 0 0 0-15.597 3.321l-.467 3.221c2.028-.352 4.045-.68 6.039-.964 3.028-.434 6.12-.289 9.076.495 10.418 2.764 17.873 7.292 20.975 13.351a.196.196 0 0 1-.2.283c-11.763-1.546-25.012-1.92-38.955-.892l1.357 2.591c4.382.152 8.848.431 13.396.88 3.89.383 7.707.867 11.439 1.441 3.755.579 7.377 1.836 10.71 3.663C-8.628-15.887-.991-8.118.268-.211A.196.196 0 0 1 0 0" style="fill:#3948a4;fill-opacity:1;fill-rule:nonzero;stroke:none;stroke-width:.312673" transform="translate(337.835 326.305)"/></g></g><g style="stroke-width:.312673"><path d="M199.1 308.816a1329.315 1329.315 0 0 0-6.128-31.918c2.162.065 4.325.112 6.489.139.307 1.855.612 3.71.914 5.562 2.513.023 5.027.023 7.542-.001.301-1.853.608-3.707.916-5.563 2.164-.028 4.327-.074 6.489-.141a1320.128 1320.128 0 0 0-6.136 31.922c-1.681.005-3.362.006-5.043.006-1.682 0-3.363-.001-5.043-.006m5.043-7.222c.914-4.526 1.858-9.052 2.834-13.584-1.888.012-3.776.012-5.662.001.973 4.532 1.916 9.057 2.828 13.583" style="fill:url(#b);stroke:none;stroke-width:.312673" transform="matrix(1.12827 0 0 -1.12827 -58.03 437.807)"/></g><g style="stroke-width:.312673"><path d="M188.238 308.76a1989.72 1989.72 0 0 1-11.968-.133c-1.695-.021-3.162-1.222-3.274-2.676l-2.102-27.781c-.113-1.454 1.282-2.494 3.119-2.341 2.455.203 4.913.38 7.372.533 1.202.408 2.402.808 3.599 1.202l.483-.972c1.601.081 3.202.153 4.804.214.192 5.905.385 11.81.579 17.714a618.635 618.635 0 0 1-8.285-.227c-.732-1.696-1.472-3.397-2.219-5.107 1.21.057 2.421.109 3.632.155-.124-2.569-.248-5.139-.374-7.709a394.046 394.046 0 0 1-5.642-.318l1.372 22.453c1.812.039 3.625.077 5.439.106l-.305-6.298c2.217 1.22 4.418 2.417 6.599 3.6l.166 5.061c.044 1.396-1.282 2.524-2.967 2.524z" style="fill:url(#c);stroke:none;stroke-width:.312673" transform="matrix(1.12827 0 0 -1.12827 -58.03 437.807)"/></g><g style="stroke-width:.312673"><path d="m258.439 305.244 1.53-12.835c.089-.757.53-1.316 1.117-1.769 3.5-2.442 7.036-4.993 10.603-7.675l1.613-12.101c-1.608.308-3.218.605-4.829.892l-.675 5.295c-4.371 3.013-6.52 4.379-6.52 4.362.459-3.84.915-7.679 1.374-11.518.184-1.566 1.826-3.103 3.662-3.458a330.733 330.733 0 0 0 14.035-2.993l-2.94 21.051c-.179 1.29-1.175 2.136-1.805 2.62a360.756 360.756 0 0 1-9.924 7.252c-.319 2.511-.641 5.022-.959 7.533 1.507-.084 10.463-.805 11.948-.908a238.542 238.542 0 0 1 3.342 6.274c-3.757.151-16.42.662-18.84.732-.03.002-.059.002-.088.002-1.649 0-2.827-1.217-2.644-2.756" style="fill:url(#d);stroke:none;stroke-width:.312673" transform="matrix(1.12827 0 0 -1.12827 -58.03 437.807)"/></g><g style="stroke-width:.312673"><path d="M220.016 308.758c-1.683 0-3.008-1.126-2.964-2.522.115-3.516.232-7.029.348-10.545.023-.676.416-1.154.973-1.528a927.253 927.253 0 0 0 10.099-6.087l.387-6.642c-1.612.097-3.225.184-4.837.262-.052 1.073-.102 2.147-.152 3.221-4.177 2.271-6.221 3.333-6.224 3.314.098-2.961.197-5.922.294-8.884.044-1.404 1.571-2.6 3.41-2.688 3.595-.17 7.186-.393 10.775-.669 1.836-.143 3.238.899 3.134 2.349l-.822 11.478c-.081 1.107-1.027 1.772-1.628 2.156a876.233 876.233 0 0 1-9.456 5.791l-.272 5.746c1.515-.027 3.029-.057 4.544-.089l.105-1.808a800.52 800.52 0 0 0 6.132-3.77l-.582 8.149c-.105 1.447-1.567 2.64-3.263 2.661-3.323.043-6.649.079-9.972.105z" style="fill:url(#e);stroke:none;stroke-width:.312673" transform="matrix(1.12827 0 0 -1.12827 -58.03 437.807)"/></g><g style="stroke-width:.312673"><path d="M157.659 308.278c-1.693-.035-3.206-1.32-3.384-2.863l-3.299-29.48c-.175-1.545 1.163-2.574 2.987-2.319 4.428.612 8.864 1.144 13.309 1.594l.449 5.438c-3.34-.294-6.675-.63-10.007-1.006.349 3.43.696 6.86 1.042 10.289 2.337.192 4.675.368 7.014.53.779 1.881 1.551 3.753 2.314 5.614-2.921-.15-5.839-.317-8.756-.503.241 2.39.485 4.781.727 7.174 3.171.128 6.343.244 9.519.344.148 1.814.298 3.626.449 5.44-4.122-.072-8.244-.156-12.364-.252" style="fill:url(#f);stroke:none;stroke-width:.312673" transform="matrix(1.12827 0 0 -1.12827 -58.03 437.807)"/></g><g style="stroke-width:.312673"><path d="m236.613 308.556 2.424-30.59c.145-1.437 1.707-2.733 3.518-2.927 4.25-.45 8.493-.975 12.726-1.574 1.825-.261 3.158.769 2.98 2.319l-3.68 32.394c-2.142.055-4.287.105-6.432.155l2.971-29.001c-1.809.209-3.62.405-5.432.589l-2.641 28.518c-2.145.043-4.29.082-6.434.117z" style="fill:url(#g);stroke:none;stroke-width:.312673" transform="matrix(1.12827 0 0 -1.12827 -58.03 437.807)"/></g><g style="stroke-width:.312673"><path d="M147.883 308.024c-2.715-.077-17.055-.652-19.727-.758a247.835 247.835 0 0 1 3.343-6.274c1.407.098 11.106.862 12.443.936l-2.055-16.191a347.644 347.644 0 0 1-5.648-4.223l1.864 13.982a781.577 781.577 0 0 1-6.156-.566l-4.415-31.553c2.144.507 4.289.993 6.438 1.457.422 3.154.842 6.307 1.262 9.459 3.12 2.415 6.22 4.723 9.293 6.943 1.859 1.375 3.579 2.654 3.86 5.053.746 6.329 1.49 12.659 2.237 18.988.178 1.532-1.002 2.748-2.649 2.748l-.09-.001" style="fill:url(#h);stroke:none;stroke-width:.312673" transform="matrix(1.12827 0 0 -1.12827 -58.03 437.807)"/></g></g></svg>