<svg xmlns="http://www.w3.org/2000/svg" width="965.7241821289062px" height="971.4994506835938px" x="0px" y="0px" style="enable-background:new 0 0 1400 980" viewBox="0 0 965.7241821289062 971.4994506835938"><defs><clipPath id="a" clipPathUnits="userSpaceOnUse"><path d="M0 841.89h595.28V0H0Z"/></clipPath><clipPath id="c" clipPathUnits="userSpaceOnUse"><path d="M0 841.89h595.28V0H0Z"/></clipPath><radialGradient id="b" cx="0" cy="0" r="1" fx="0" fy="0" gradientTransform="translate(287.898 452.637) scale(101.36382)" gradientUnits="userSpaceOnUse" spreadMethod="pad"><stop offset="0" style="stop-opacity:1;stop-color:#009633"/><stop offset="0.0513324" style="stop-opacity:1;stop-color:#009633"/><stop offset="1" style="stop-opacity:1;stop-color:#005226"/></radialGradient></defs><path fill="none" d="M0 0h965.724v971.5H0z" style="fill:#064b07;fill-opacity:0;pointer-events:none"/><g clip-path="url(#a)" transform="matrix(4.21137 0 0 -4.21137 -730.137 2392.049)"><path d="M0 0c0 59.858 48.524 108.382 108.382 108.382 59.857 0 108.383-48.524 108.383-108.382 0-59.857-48.526-108.383-108.383-108.383C48.524-108.383 0-59.857 0 0" style="fill:#00205b;fill-opacity:1;fill-rule:nonzero;stroke:none" transform="translate(179.469 452.71)"/><path d="M0 0c-30.071 0-58.342-11.71-79.605-32.972-21.264-21.265-32.974-49.536-32.974-79.607 0-30.07 11.71-58.341 32.974-79.605C-58.342-213.448-30.071-225.157 0-225.157c30.072 0 58.341 11.709 79.606 32.973 21.263 21.264 32.974 49.535 32.974 79.605 0 30.071-11.711 58.342-32.974 79.607C58.341-11.71 30.072 0 0 0m0-4.196c59.858 0 108.382-48.525 108.382-108.383S59.858-220.959 0-220.959c-59.857 0-108.382 48.522-108.382 108.38S-59.857-4.196 0-4.196" style="fill:#b5b5b6;fill-opacity:1;fill-rule:nonzero;stroke:none" transform="translate(287.85 565.29)"/></g><path d="M186.478 452.711c0-55.897 45.475-101.374 101.372-101.374s101.372 45.477 101.372 101.374c0 55.896-45.475 101.372-101.372 101.372s-101.372-45.476-101.372-101.372" style="fill:url(#b);stroke:none" transform="matrix(4.21137 0 0 -4.21137 -730.137 2392.049)"/><g clip-path="url(#c)" transform="matrix(4.21137 0 0 -4.21137 -730.137 2392.049)"><path d="M0 0c-6.398 6.004-14.126 8.701-22.818 7.912a125.448 125.448 0 0 1-8.127 19.422 324.454 324.454 0 0 0 23.766 4.702 92.931 92.931 0 0 1-2.652 5.747 337.658 337.658 0 0 1-24.129-4.934c-3.206 5.573-6.606 10.642-10.154 15.25a31.625 31.625 0 0 1 2.551 1.73c4.666 3.506 9.151 9.157 8.237 17.641a93.653 93.653 0 0 1-8.048 6.058c3.707-8.062 2.469-14.068-3.855-18.824a26.786 26.786 0 0 0-2.762-1.811c-17.498 20.555-37.977 30.867-56.268 35.843a92.973 92.973 0 0 1-15.247-3.057c19.719-2.863 44.74-11.636 65.61-35.313-9.119-2.756-19.581-1.383-29.071.284-1.606.284-3.225.574-4.853.865-19.038 3.413-38.724 6.943-57.594 1.716-12.464-3.451-24.67-11.147-34.362-21.294a92.78 92.78 0 0 1-5.19-16.613c9.448 15.37 25.097 27.574 41.18 32.028 17.532 4.855 36.523 1.451 54.889-1.842 1.635-.294 3.26-.585 4.875-.868 11.761-2.065 23.85-3.243 34.302.714 3.346-4.249 6.561-8.921 9.602-14.056a360.819 360.819 0 0 1-38.587-12.407c-38.214-14.724-71.946-35.194-100.355-60.878a94.88 94.88 0 0 1 2.768-5.725C-128.975-4.395-74.991 16.158-37.046 25.835c.11-.208.223-.411.334-.62a120.563 120.563 0 0 0 7.871-18.453c-14.552-4.491-24.308-21.336-35.48-40.637-13.315-23-28.383-49.005-55.063-60.234a92.627 92.627 0 0 1 9.472-2.199c24.133 13.207 38.261 37.593 50.87 59.377C-48.531-18.775-39.36-2.936-27.071.923c6.17-22.458 5.68-46.737-1.499-72.51a93.693 93.693 0 0 1 8.567 9.449c2.461 11.841 3.543 23.486 3.206 34.767-.3 10.05-1.73 19.837-4.261 29.295 8.43.416 15.352-3.238 21.024-11.105a94.69 94.69 0 0 1 .133 4.985C.099-2.79.063-1.392 0 0" style="fill:#005226;fill-opacity:1;fill-rule:nonzero;stroke:none" transform="translate(380.284 456.498)"/><path d="m0 0-3.044-2.39 6.018-7.664 3.044 2.39zm8.276-9.181-5.849-4.593-9.215 11.736 5.85 4.593 2.619-.315L8.59-6.563Z" style="fill:#fff;fill-opacity:1;fill-rule:nonzero;stroke:none" transform="translate(238.542 518.75)"/><path d="m0 0-3.467-1.723 1.648-3.32 3.468 1.722zm-2.687 5.409-3.466-1.722L-4.608.576l3.467 1.721ZM3.551-5.267-3.09-8.563-9.728 4.802-3.086 8.1l2.501-.842 1.919-3.862-.527-1.563 1.564-.526 2.021-4.073Z" style="fill:#fff;fill-opacity:1;fill-rule:nonzero;stroke:none" transform="translate(255.663 521.994)"/><path d="m0 0-3.839-.496.513-3.956 3.838.497zm1.678-6.412-4.672-.606.741-5.712-2.684-.346-1.917 14.799 7.353.952 2.09-1.61.698-5.389z" style="fill:#fff;fill-opacity:1;fill-rule:nonzero;stroke:none" transform="translate(279.125 534.668)"/><path d="m0 0-3.861.273-.273-3.859 3.861-.275zm-.707-12.315-1.827 5.902-1.791.127-.406-5.744-2.7.191 1.056 14.885 7.396-.524L2.75.53l-.384-5.419L.373-6.618l1.918-5.909Z" style="fill:#fff;fill-opacity:1;fill-rule:nonzero;stroke:none" transform="translate(295.897 534.751)"/><path d="m0 0-3.727 1.048-2.635-9.381 3.725-1.047zm-2.529-12.099-5.342 1.5-1.29 2.302 3.027 10.771 2.3 1.292 5.341-1.502L2.799-.035-.229-10.809z" style="fill:#fff;fill-opacity:1;fill-rule:nonzero;stroke:none" transform="translate(312.04 531.523)"/><path d="m0 0-2.303 1.23 3.657 6.901-4.407-3.7-1.193.636.621 5.721-3.677-6.89-2.324 1.241 7.025 13.163 2.18-1.163-.847-7.926 6.114 5.115 2.179-1.163z" style="fill:#fff;fill-opacity:1;fill-rule:nonzero;stroke:none" transform="translate(325.64 511.982)"/><path d="m0 0-3.943-4.664-2.047 1.73 3.926 4.68 2.432 9.483 2.403-2.031L.868 3.083 6.51 6.037 8.859 4.05Z" style="fill:#fff;fill-opacity:1;fill-rule:nonzero;stroke:none" transform="translate(338.115 509.977)"/><path d="m0 0-1.098 2.527-2.601-1.132 1.098-2.525Zm-4.052-2.413L-5.388.659-9.145-.976-9.913.79l9.735 4.236L1.927.189 1.24-1.558l-3.544-1.543Z" style="fill:#fff;fill-opacity:1;fill-rule:nonzero;stroke:none" transform="translate(218.388 421.012)"/><path d="m0 0-1.433 2.352L-3.784.92l1.432-2.352Zm-7.435-4.663 2.672 3.491-.665 1.092-3.499-2.131-1.001 1.644L-.86 4.954 1.884.448 1.44-1.376l-3.302-2.01-1.823.444-2.637-3.548z" style="fill:#fff;fill-opacity:1;fill-rule:nonzero;stroke:none" transform="translate(223.403 411.78)"/><path d="m0 0-1.738 2.137-5.38-4.375 1.738-2.139zm-6.433-6.001-2.491 3.063.193 1.869 6.179 5.024 1.866-.193L1.806.698l-.193-1.866-6.178-5.025z" style="fill:#fff;fill-opacity:1;fill-rule:nonzero;stroke:none" transform="translate(229.482 403.518)"/><path d="m0 0-2.165 1.704-1.529-1.942 2.164-1.705zm-2.658-3.377-2.164 1.705-1.631-2.074 2.164-1.701zm-2.3-3.889-4.146 3.264 6.566 8.343 4.146-3.262.222-1.864-1.897-2.412-1.166-.139.139-1.166-2-2.539z" style="fill:#fff;fill-opacity:1;fill-rule:nonzero;stroke:none" transform="translate(241.797 391.822)"/><path d="m0 0-2.33-2.324 1.415-.834zm-2.032-7.543.678 2.623-2.288 1.346-1.893-1.906-1.658.974 8.001 7.61 1.515-.893L-.43-8.486Z" style="fill:#fff;fill-opacity:1;fill-rule:nonzero;stroke:none" transform="translate(248.585 385.795)"/><path d="m0 0-4.055 1.695-.454 1.108.428 1.025L.127 2.066l.949 2.266-3.015 1.262-.713 1.736 1.37 3.275 1.737.713 4.056-1.697.454-1.107-.428-1.026L.328 9.25l-.884-2.113 3.014-1.262.707-1.75L1.737.711Z" style="fill:#fff;fill-opacity:1;fill-rule:nonzero;stroke:none" transform="translate(256.87 373.397)"/><path d="m0 0-.758 6.055-2.876-2.26-.689-2.686-1.865.481 2.641 10.287 1.865-.481-1.242-4.837 4.922 3.892 2.187-.558-3.148-2.516.892-7.871Z" style="fill:#fff;fill-opacity:1;fill-rule:nonzero;stroke:none" transform="translate(269.169 369.62)"/><path d="m0 0 1.156 10.553 6.579-.721-.2-1.83-4.65.51-.273-2.491 3.15-.343-.21-1.912-3.15.343-.273-2.49 4.651-.51-.202-1.828Z" style="fill:#fff;fill-opacity:1;fill-rule:nonzero;stroke:none" transform="translate(275.378 368.453)"/><path d="m0 0-2.753-.061.191-8.777-1.924-.041-.192 8.775-2.753-.078-.041 1.858 7.432.164z" style="fill:#fff;fill-opacity:1;fill-rule:nonzero;stroke:none" transform="translate(293.282 376.482)"/><path d="m0 0-2.72-.426.408-2.605 2.719.424zm-.665 4.244-2.72-.426.383-2.441 2.72.426zm1.947-8.576-5.211-.816-1.642 10.486 5.211.816 1.515-1.103.476-3.033L.94 1.07l.948-.689.501-3.197Z" style="fill:#fff;fill-opacity:1;fill-rule:nonzero;stroke:none" transform="translate(301.806 373.27)"/><path d="m0 0 .121-3.289 1.573.473zm4.152-6.615L2.689-4.336.146-5.1.26-7.785l-1.844-.555-.147 11.045 1.684.506L5.932-6.08Z" style="fill:#fff;fill-opacity:1;fill-rule:nonzero;stroke:none" transform="translate(310.185 378.394)"/><path d="m0 0-4.347 9.684 1.755.787 3.593-8.004 3.89 1.744.753-1.68z" style="fill:#fff;fill-opacity:1;fill-rule:nonzero;stroke:none" transform="translate(320.063 373.857)"/><path d="m0 0-5.535 9.061 1.643 1.003 4.575-7.49 3.638 2.223.961-1.572z" style="fill:#fff;fill-opacity:1;fill-rule:nonzero;stroke:none" transform="translate(329.716 378.54)"/><path d="m0 0-2.717-2.586-1.877.049-5.489 5.77.047 1.876 2.718 2.585 1.876-.047.354-.373-3.246-3.086 4.78-5.027 3.247 3.088.354-.373z" style="fill:#fff;fill-opacity:1;fill-rule:nonzero;stroke:none" transform="translate(348.004 392.465)"/><path d="m0 0-8.232 6.708L-7.018 8.2l6.807-5.544 2.693 3.306 1.427-1.164Z" style="fill:#fff;fill-opacity:1;fill-rule:nonzero;stroke:none" transform="translate(352.088 396.8)"/><path d="m0 0-2.068-3.363-1.828-.435-7.913 4.867 1.008 1.641 7.477-4.599L-1.881.457l-7.476 4.6 1.009 1.637 7.912-4.868z" style="fill:#fff;fill-opacity:1;fill-rule:nonzero;stroke:none" transform="translate(361.418 409.84)"/><path d="m0 0-1.105-2.523L1.31-3.582l1.106 2.52zm-3.935 1.725L-5.041-.796l2.264-.995L-1.671.733zm8.277-2.978-2.119-4.83L-7.5-1.82l2.119 4.832 1.749.682 2.81-1.233.426-1.092 1.093.426L3.66.496Z" style="fill:#fff;fill-opacity:1;fill-rule:nonzero;stroke:none" transform="translate(362.273 421.598)"/><path d="M0 0c-53.073 0-96.251-43.178-96.251-96.251 0-53.074 43.178-96.252 96.251-96.252 53.074 0 96.252 43.178 96.252 96.252C96.252-43.178 53.074 0 0 0m0-3.729c51.099 0 92.522-41.424 92.522-92.522 0-51.098-41.423-92.522-92.522-92.522-51.099 0-92.521 41.424-92.521 92.522C-92.521-45.153-51.099-3.729 0-3.729" style="fill:#fff;fill-opacity:1;fill-rule:nonzero;stroke:none" transform="translate(287.85 548.962)"/><path d="M313.944 451.29h-51.386v14.692h51.386zm2.476 25.636h-63.274a2.024 2.024 0 0 1-2.025-2.024v-25.235l-2.863-3.721a.808.808 0 0 1 0-1.145l2.863-3.719v-23.265c0-.351.416-.536.676-.3l10.761 9.74v13.186h51.386l10.585 9.582c.543.491.854 1.189.854 1.922v16.018c0 .688-.274 1.347-.76 1.832l-6.37 6.37a2.592 2.592 0 0 1-1.833.759" style="fill:#007f41;fill-opacity:1;fill-rule:nonzero;stroke:none"/><path d="M263.663 452.395h49.177v12.483h-49.177zm51.386-2.21h-53.596v16.901h53.596zm-65.838-4.811 3.015-3.917v-22.063l9.227 8.353v13.8h52.066l10.27 9.298c.311.281.488.683.488 1.102v16.018c0 .397-.154.771-.435 1.051l-6.37 6.37a1.502 1.502 0 0 1-1.052.436h-63.274a.92.92 0 0 1-.92-.92V449.29Zm2.313-29.066a1.51 1.51 0 0 0-1.509 1.509v22.888l-2.598 3.378a1.916 1.916 0 0 0 0 2.582l2.598 3.377v24.86a3.134 3.134 0 0 0 3.131 3.129h63.274c.988 0 1.916-.384 2.614-1.083l6.37-6.37a3.668 3.668 0 0 0 1.082-2.613v-16.018a3.706 3.706 0 0 0-1.215-2.742l-10.901-9.867h-50.707v-12.571l-11.124-10.069a1.508 1.508 0 0 0-1.015-.39" style="fill:#001a54;fill-opacity:1;fill-rule:nonzero;stroke:none"/><path d="M0 0a.81.81 0 0 1-.81-.81v-14.691a.81.81 0 0 1 .81-.81h51.386a.81.81 0 0 1 .81.81V-.81a.81.81 0 0 1-.81.81zm-10.628-25.71c0 .215-.085.42-.238.572l-2.862 3.72 2.862 3.72a.806.806 0 0 1 .238.572V8.109c0 .671.546 1.216 1.214 1.216h63.277c.475 0 .923-.186 1.259-.522l6.37-6.371c.337-.335.522-.783.522-1.26v-16.017c0-.503-.213-.984-.586-1.321l-10.353-9.373H0a.809.809 0 0 1-.81-.808v-12.827l-9.818-8.888z" style="fill:#00205b;fill-opacity:1;fill-rule:nonzero;stroke:none" transform="translate(262.558 466.791)"/><path d="M0 0a.368.368 0 0 1-.368-.368V-15.06c0-.203.164-.368.368-.368h51.386c.202 0 .368.165.368.368V-.368a.37.37 0 0 1-.368.368Zm51.386-16.312H0c-.69 0-1.252.562-1.252 1.252V-.368C-1.252.322-.69.883 0 .883h51.386c.691 0 1.252-.561 1.252-1.251V-15.06c0-.69-.561-1.252-1.252-1.252m-61.917-8.095c.223-.233.345-.538.345-.862v-21.356l8.934 8.088v12.631c0 .69.562 1.252 1.252 1.252h50.903l10.228 9.258c.282.253.442.615.442.993V1.615c0 .357-.14.694-.395.947l-6.369 6.37c-.253.253-.59.393-.947.393H-9.413a.776.776 0 0 1-.773-.774v-25.236c0-.323-.122-.628-.344-.862l-2.64-3.43zm-.539-24.21v23.348a.363.363 0 0 1-.108.26l-.037.043-3.07 3.989 3.107 4.033c.07.069.108.16.108.259V8.551a1.66 1.66 0 0 0 1.657 1.657h63.275c.594 0 1.152-.23 1.572-.651l6.37-6.37c.421-.419.652-.979.652-1.572v-16.018a2.22 2.22 0 0 0-.733-1.649l-10.478-9.486H0a.368.368 0 0 1-.368-.368v-13.025z" style="fill:#001a54;fill-opacity:1;fill-rule:nonzero;stroke:none" transform="translate(262.558 466.35)"/><path d="M0 0v-12.594h-50.732l-11.312-10.238a.405.405 0 0 1 .271-.706H2.476a2.59 2.59 0 0 1 1.833.759l6.37 6.369c.486.487.759 1.145.759 1.835V2.503a2.59 2.59 0 0 1-.759 1.833L8.153 6.861a.402.402 0 0 1-.557.014Z" style="fill:#007f41;fill-opacity:1;fill-rule:nonzero;stroke:none" transform="translate(313.944 436.502)"/><path d="M0 0h62.432c.398 0 .772.154 1.052.436l6.37 6.37c.281.28.436.654.436 1.05v17.081c0 .397-.155.771-.436 1.053l-2.055 2.053-6.738-6.1V8.736H9.65Zm62.432-2.209H-1.817a1.5 1.5 0 0 0-1.409.967A1.501 1.501 0 0 0-2.83.42L8.799 10.944h50.053v11.981l7.959 7.202c.596.543 1.511.52 2.08-.05l2.526-2.525a3.674 3.674 0 0 0 1.082-2.615V7.856c0-.986-.384-1.915-1.082-2.613l-6.372-6.371a3.67 3.67 0 0 0-2.613-1.081" style="fill:#001a54;fill-opacity:1;fill-rule:nonzero;stroke:none" transform="translate(253.988 414.068)"/><path d="m0 0 10.302 9.325h50.42a.81.81 0 0 1 .81.81V22.37l7.043 6.375 2.253-2.253a1.77 1.77 0 0 0 .522-1.26V8.151c0-.475-.185-.922-.522-1.259L64.458.521A1.774 1.774 0 0 0 63.199 0Z" style="fill:#00205b;fill-opacity:1;fill-rule:nonzero;stroke:none" transform="translate(253.222 413.773)"/><path d="M0 0h62.051c.358 0 .695.139.948.393l6.369 6.369c.255.252.394.59.394.946V24.79c0 .358-.139.694-.394.947l-1.955 1.956-6.584-5.962V9.692c0-.69-.563-1.251-1.253-1.251H9.326Zm62.051-.884H-2.292L8.985 9.324h50.591c.203 0 .368.166.368.368v12.431l7.5 6.789 2.55-2.55c.421-.42.651-.978.651-1.572V7.708c0-.592-.23-1.151-.651-1.572l-6.37-6.369a2.21 2.21 0 0 0-1.573-.651" style="fill:#001a54;fill-opacity:1;fill-rule:nonzero;stroke:none" transform="translate(254.369 414.216)"/><path d="M296.484 407.699h-16.369v74.49h16.369zm4.309 84.677a2.593 2.593 0 0 1-1.832.759h-6.419l-3.675 2.907a.81.81 0 0 1-1.145 0l-3.675-2.907h-13.441a2.026 2.026 0 0 1-2.026-2.025v-92.33c0-1.119.907-2.025 2.026-2.025h13.441l3.675-2.622a.81.81 0 0 1 1.145 0l3.675 2.622h6.317c.752 0 1.473.298 2.005.83l6.228 6.228a2.84 2.84 0 0 1 .831 2.004v77.616a4.381 4.381 0 0 1-1.282 3.096z" style="fill:#007f41;fill-opacity:1;fill-rule:nonzero;stroke:none"/><path d="M281.221 408.805h14.158v72.28h-14.158zm16.369-2.209h-18.579v76.699h18.579zm-26.985 85.433a.92.92 0 0 1-.92-.919v-92.33a.92.92 0 0 1 .92-.92H284.4l3.894-2.777 3.894 2.777h6.671c.463 0 .897.179 1.225.506l6.227 6.229c.328.326.507.76.507 1.222v77.616c0 .875-.341 1.697-.959 2.315l-5.847 5.847a1.476 1.476 0 0 1-1.051.434h-6.803l-3.864 3.058-3.863-3.058zm17.689-99.237c-.475 0-.922.172-1.273.484l-3.328 2.374h-13.088a3.135 3.135 0 0 0-3.13 3.13v92.33a3.134 3.134 0 0 0 3.13 3.13h13.058l3.333 2.635c.709.658 1.887.658 2.597 0l3.333-2.635h6.035c.986 0 1.915-.386 2.613-1.083l5.848-5.847a5.447 5.447 0 0 0 1.605-3.877v-77.616c0-1.052-.41-2.042-1.154-2.785l-6.227-6.227a3.913 3.913 0 0 0-2.787-1.155h-5.963l-3.327-2.374a1.91 1.91 0 0 0-1.275-.484" style="fill:#001a54;fill-opacity:1;fill-rule:nonzero;stroke:none"/><path d="M0 0a.81.81 0 0 1-.81-.811v-74.49a.81.81 0 0 1 .81-.808h16.368a.81.81 0 0 1 .811.808v74.49a.812.812 0 0 1-.811.811Zm4.503-85.673a.802.802 0 0 1-.572.237H-9.511c-.67 0-1.216.546-1.216 1.216V8.11c0 .67.546 1.214 1.216 1.214H3.931c.218 0 .426.089.579.245l3.676 2.907 3.661-2.907a.81.81 0 0 1 .579-.245h6.419c.475 0 .923-.184 1.259-.521l5.848-5.848A3.545 3.545 0 0 0 26.997.433v-77.616c0-.541-.211-1.048-.594-1.432l-6.228-6.228a2.01 2.01 0 0 0-1.432-.593h-6.317a.805.805 0 0 1-.572-.236L8.178-88.49Z" style="fill:#00205b;fill-opacity:1;fill-rule:nonzero;stroke:none" transform="translate(280.116 483)"/><path d="M0 0a.369.369 0 0 1-.368-.368v-74.49c0-.205.165-.369.368-.369h16.368c.203 0 .369.164.369.369v74.49a.37.37 0 0 1-.369.368Zm16.368-76.111H0c-.69 0-1.251.562-1.251 1.253v74.49C-1.251.322-.69.884 0 .884h16.368c.691 0 1.252-.562 1.252-1.252v-74.49c0-.691-.561-1.253-1.252-1.253M4.792-84.896c.245-.188 2.585-1.983 3.386-2.595l3.387 2.596c.233.221.538.343.861.343h6.317c.423 0 .821.165 1.119.465l6.229 6.226c.299.299.465.696.465 1.12V.874a3.11 3.11 0 0 1-.917 2.211l-5.847 5.846c-.254.254-.59.392-.947.392h-6.419c-.325 0-.641.13-.873.357l-3.368 2.673-3.382-2.675a1.26 1.26 0 0 0-.872-.355H-9.511a.773.773 0 0 1-.773-.772v-92.329c0-.426.346-.774.773-.774H3.931c.318 0 .631-.125.861-.344m3.537-3.595h-.151c-.15 0-.15 0-3.944 2.91l-.044.038a.365.365 0 0 1-.259.107H-9.511a1.66 1.66 0 0 0-1.657 1.658V8.551c0 .914.743 1.656 1.657 1.656H3.931c.097 0 .194.041.263.112l.041.038 3.951 3.123 3.977-3.161a.368.368 0 0 1 .263-.112h6.419c.593 0 1.152-.23 1.572-.651l5.848-5.847A3.983 3.983 0 0 0 27.438.874v-77.615a2.45 2.45 0 0 0-.722-1.745l-6.227-6.228a2.464 2.464 0 0 0-1.746-.722h-6.317a.37.37 0 0 1-.261-.107l-.042-.038z" style="fill:#001a54;fill-opacity:1;fill-rule:nonzero;stroke:none" transform="translate(280.116 482.559)"/><path d="M316.631 454.039h-51.386v14.692h51.386zm2.476 25.636h-63.274a2.024 2.024 0 0 1-2.025-2.026v-25.234l-2.863-3.72a.811.811 0 0 1 0-1.146l2.863-3.72v-23.263c0-.351.417-.536.676-.3l10.761 9.739v13.186h51.386l10.586 9.583c.543.491.852 1.188.852 1.921v16.017c0 .688-.273 1.347-.758 1.833l-6.371 6.371a2.592 2.592 0 0 1-1.833.759" style="fill:#008f43;fill-opacity:1;fill-rule:nonzero;stroke:none"/><path d="M265.96 454.753h49.958v13.262H265.96Zm51.386-1.429h-52.814v16.121h52.814zm-61.513 25.636a1.312 1.312 0 0 1-1.311-1.311v-25.478l-3.072-3.981a.094.094 0 0 1-.027-.067c0-.027.009-.05.027-.068l.061-.07 3.011-3.912v-22.809l10.009 9.059v13.583h51.825l10.382 9.398c.393.355.617.862.617 1.391v16.017c0 .502-.195.974-.549 1.328l-6.37 6.371a1.89 1.89 0 0 1-1.329.549zm-1.622-59.514a1.117 1.117 0 0 0-1.117 1.12v23.02l-2.691 3.496c-.264.284-.409.65-.409 1.041 0 .388.145.755.409 1.039l2.691 3.496v24.991a2.741 2.741 0 0 0 2.739 2.74h63.274c.883 0 1.713-.344 2.339-.968l6.368-6.369c.626-.626.97-1.455.97-2.34v-16.017c0-.931-.396-1.826-1.087-2.451l-10.791-9.765H265.96v-12.79l-10.997-9.953c-.21-.19-.478-.29-.752-.29" style="fill:#001a54;fill-opacity:1;fill-rule:nonzero;stroke:none"/><path d="M0 0a.524.524 0 0 1-.524-.523v-14.692c0-.289.235-.525.524-.525h51.385c.29 0 .526.236.526.525V-.523a.525.525 0 0 1-.526.523Zm51.385-16.312H0c-.604 0-1.096.493-1.096 1.097V-.523C-1.096.081-.604.572 0 .572h51.385c.606 0 1.098-.491 1.098-1.095v-14.692c0-.604-.492-1.097-1.098-1.097m-62.034-8.351c.198-.207.307-.476.307-.762V-47.13l9.246 8.369v12.698c0 .605.492 1.097 1.096 1.097h50.963l10.274 9.298c.312.284.492.687.492 1.109V1.459c0 .4-.156.775-.439 1.058l-6.37 6.371a1.486 1.486 0 0 1-1.058.437H-9.414a.93.93 0 0 1-.928-.929v-25.235c0-.286-.109-.555-.307-.76l-2.718-3.532zm-.265-23.756v22.994a.52.52 0 0 1-.154.372l-.024.028-2.997 3.894 3.021 3.921c.1.1.154.231.154.371V8.396c0 .827.673 1.501 1.5 1.501h63.276c.553 0 1.072-.215 1.463-.606l6.369-6.37c.39-.39.605-.91.605-1.462v-16.018c0-.583-.247-1.141-.679-1.533l-10.436-9.445H0a.525.525 0 0 1-.524-.526v-12.953z" style="fill:#fff;fill-opacity:1;fill-rule:nonzero;stroke:none" transform="translate(265.246 469.254)"/><path d="M0 0v-12.595h-50.732l-11.312-10.24a.405.405 0 0 1 .272-.705H2.477c.687 0 1.346.273 1.833.76l6.37 6.369c.486.486.758 1.146.758 1.832V2.502c0 .688-.272 1.347-.758 1.834L8.154 6.859a.403.403 0 0 1-.558.015Z" style="fill:#008f43;fill-opacity:1;fill-rule:nonzero;stroke:none" transform="translate(316.63 439.252)"/><path d="M0 0h63.446c.502 0 .973.195 1.328.55l6.371 6.369c.354.355.549.825.549 1.328v17.08c0 .501-.195.973-.549 1.328l-2.318 2.317-7.142-6.465V9.517H10.514Zm63.446-1.429H-.803a1.11 1.11 0 0 0-1.044.717c-.168.436-.052.919.293 1.233L9.963 10.945h50.294v12.196l7.829 7.088a1.12 1.12 0 0 0 1.544-.038l2.525-2.525a3.29 3.29 0 0 0 .968-2.339V8.247c0-.884-.345-1.714-.968-2.337L65.784-.459a3.28 3.28 0 0 0-2.338-.97" style="fill:#001a54;fill-opacity:1;fill-rule:nonzero;stroke:none" transform="translate(255.661 416.427)"/><path d="M0 0a.81.81 0 0 1-.811-.81v-14.691a.81.81 0 0 1 .811-.81h51.385a.81.81 0 0 1 .811.81V-.81a.81.81 0 0 1-.811.81zm-10.628-25.709a.808.808 0 0 1-.238.571l-2.862 3.721 2.862 3.719a.81.81 0 0 1 .238.573V8.11c0 .67.545 1.215 1.214 1.215h63.276c.476 0 .924-.185 1.26-.522l6.37-6.371c.337-.335.522-.783.522-1.259v-16.018c0-.502-.213-.984-.586-1.321l-10.353-9.371H0a.81.81 0 0 1-.811-.81v-12.827l-9.817-8.888z" style="fill:#fff;fill-opacity:1;fill-rule:nonzero;stroke:none" transform="translate(265.246 469.54)"/><path d="m0 0 10.303 9.324h50.419c.447 0 .81.364.81.81V22.37l7.044 6.374 2.253-2.252c.336-.336.522-.784.522-1.261V8.151c0-.476-.186-.923-.522-1.26L64.458.521A1.769 1.769 0 0 0 63.198 0Z" style="fill:#fff;fill-opacity:1;fill-rule:nonzero;stroke:none" transform="translate(255.91 416.522)"/><path d="M0 0h62.457c.4 0 .776.156 1.058.439l6.369 6.37c.283.282.44.659.44 1.057v17.08c0 .4-.157.777-.44 1.059l-2.06 2.061-6.747-6.108V9.849c0-.603-.492-1.096-1.095-1.096H9.671zm62.457-.571h-63.94L9.451 9.325h50.531c.288 0 .523.236.523.524v12.362l7.339 6.643 2.445-2.446c.39-.389.605-.909.605-1.462V7.866c0-.551-.215-1.071-.605-1.462l-6.37-6.37a2.057 2.057 0 0 0-1.462-.605" style="fill:#fff;fill-opacity:1;fill-rule:nonzero;stroke:none" transform="translate(256.65 416.808)"/><path d="M0 0v13.393h-.588a.81.81 0 0 1-.81-.811V-2.109c0-.447.363-.811.81-.811h51.387a.81.81 0 0 1 .809.811V-.81H.811A.811.811 0 0 0 0 0" style="fill:#007f41;fill-opacity:1;fill-rule:nonzero;stroke:none" transform="translate(264.191 453.86)"/><path d="m0 0-6.371 6.371a1.77 1.77 0 0 1-1.26.522h-63.275c-.67 0-1.215-.545-1.215-1.215v-.895h63.092c.476 0 .924-.185 1.261-.522l6.37-6.37c.335-.336.522-.784.522-1.26v-15.964l.812.735c.371.337.585.819.585 1.321v16.018C.521-.783.336-.335 0 0" style="fill:#007f41;fill-opacity:1;fill-rule:nonzero;stroke:none" transform="translate(326.738 471.972)"/><path d="M0 0v-11.981l1.398 1.265V.811H.811A.81.81 0 0 1 0 0" style="fill:#007f41;fill-opacity:1;fill-rule:nonzero;stroke:none" transform="translate(262.794 441.165)"/><path d="M0 0a.81.81 0 0 1 .81.81v1.299h-49.833l-10.302-9.324h.934L-50.42 0Z" style="fill:#007f41;fill-opacity:1;fill-rule:nonzero;stroke:none" transform="translate(315.48 423.738)"/><path d="m0 0-.292.381 2.955 3.754v-.448a.944.944 0 0 0-.279-.674Z" style="fill:#007f41;fill-opacity:1;fill-rule:nonzero;stroke:none" transform="translate(252.094 447.723)"/><path d="m0 0-7.043-6.376v-.844l5.646 5.109L.855-4.364c.336-.335.522-.783.522-1.259v-17.08l-.001-.027.877.876c.337.336.522.784.522 1.261v17.079c0 .475-.185.925-.522 1.26z" style="fill:#007f41;fill-opacity:1;fill-rule:nonzero;stroke:none" transform="translate(324.484 444.977)"/><path d="M0 0a.524.524 0 0 1-.524-.523v-14.692c0-.289.235-.525.524-.525h51.385c.29 0 .526.236.526.525V-.523a.525.525 0 0 1-.526.523Zm51.385-16.312H0c-.604 0-1.096.493-1.096 1.097V-.523C-1.096.081-.604.572 0 .572h51.385c.606 0 1.098-.491 1.098-1.095v-14.692c0-.604-.492-1.097-1.098-1.097m-62.034-8.351c.198-.207.307-.476.307-.762V-47.13l9.246 8.369v12.698c0 .605.492 1.097 1.096 1.097h50.963l10.274 9.298c.312.284.492.687.492 1.109V1.459c0 .4-.156.775-.439 1.058l-6.37 6.371a1.486 1.486 0 0 1-1.058.437H-9.414a.93.93 0 0 1-.928-.929v-25.235c0-.286-.109-.555-.307-.76l-2.718-3.532zm-.265-23.756v22.994a.52.52 0 0 1-.154.372l-.024.028-2.997 3.894 3.021 3.921c.1.1.154.231.154.371V8.396c0 .827.673 1.501 1.5 1.501h63.276c.553 0 1.072-.215 1.463-.606l6.369-6.37c.39-.39.605-.91.605-1.462v-16.018c0-.583-.247-1.141-.679-1.533l-10.436-9.445H0a.525.525 0 0 1-.524-.526v-12.953z" style="fill:#fff;fill-opacity:1;fill-rule:nonzero;stroke:none" transform="translate(265.246 469.254)"/><path d="M0 0h62.457c.4 0 .776.156 1.058.439l6.369 6.37c.283.282.44.659.44 1.057v17.08c0 .4-.157.777-.44 1.059l-2.06 2.061-6.747-6.108V9.849c0-.603-.492-1.096-1.095-1.096H9.671zm62.457-.571h-63.94L9.451 9.325h50.531c.288 0 .523.236.523.524v12.362l7.339 6.643 2.445-2.446c.39-.389.605-.909.605-1.462V7.866c0-.551-.215-1.071-.605-1.462l-6.37-6.37a2.057 2.057 0 0 0-1.462-.605" style="fill:#fff;fill-opacity:1;fill-rule:nonzero;stroke:none" transform="translate(256.65 416.808)"/><path d="M0 0h-.271a.811.811 0 0 1-.811-.812v-28.261H0Z" style="fill:#007f41;fill-opacity:1;fill-rule:nonzero;stroke:none" transform="translate(281.706 483.826)"/><path d="M0 0c.328.329.51.766.51 1.23v6.432H-.603V-.603Z" style="fill:#007f41;fill-opacity:1;fill-rule:nonzero;stroke:none" transform="translate(309.003 407.336)"/><path d="M0 0v32.028h-1.082V-1.925a.81.81 0 0 1 .811-.809h16.368a.81.81 0 0 1 .81.809v.826H1.095A1.1 1.1 0 0 0 0 0" style="fill:#007f41;fill-opacity:1;fill-rule:nonzero;stroke:none" transform="translate(281.706 410.45)"/><path d="m0 0-5.847 5.848a1.48 1.48 0 0 1-.762.408h-.004c-.075.016-.154.02-.231.024-.021 0-.04.003-.061.003h-6.417a.847.847 0 0 0-.176.02 1.096 1.096 0 0 0-.595.299l-3.471 2.756-3.484-2.756a1.088 1.088 0 0 0-.597-.299.844.844 0 0 0-.174-.02h-13.442c-.069 0-.135-.01-.2-.02a.931.931 0 0 1-.728-.907V3.951c.196.139.434.221.693.221h12.279c.219 0 .427.089.58.245l3.675 2.907 3.661-2.907a.817.817 0 0 1 .58-.245h6.418a1.77 1.77 0 0 0 1.26-.521l5.848-5.846A3.546 3.546 0 0 0-.15-4.718v-3.395H.962v5.794C.962-1.443.621-.62 0 0" style="fill:#007f41;fill-opacity:1;fill-rule:nonzero;stroke:none" transform="translate(308.55 488.502)"/><path d="M0 0h-.286v-6.432c0-.464-.181-.901-.509-1.23l-.602-.603-5.625-5.624a1.728 1.728 0 0 0-1.231-.509h-6.316c-.287 0-.556-.11-.761-.307l-3.488-2.675c-.697.536-3.275 2.512-3.487 2.675a1.096 1.096 0 0 1-.761.307h-13.442a.93.93 0 0 0-.929.929V27.48h-.571v-40.949a1.5 1.5 0 0 1 1.5-1.5h13.442a.517.517 0 0 0 .371-.155l.028-.024c3.752-2.876 3.752-2.876 3.849-2.876h.097l3.751 2.876.03.024c.099.1.229.155.371.155h6.316c.617 0 1.197.24 1.635.675l6.226 6.229c.438.436.678 1.016.678 1.633V0h-.19z" style="fill:#fff;fill-opacity:1;fill-rule:nonzero;stroke:none" transform="translate(309.798 414.998)"/><path d="M0 0h.381v4.55c0 .603-.492 1.095-1.096 1.095h-16.368a1.097 1.097 0 0 1-1.096-1.095v-30.186H-17.607V4.55c0 .288.235.524.524.524H-.715a.527.527 0 0 0 .526-.524V0z" style="fill:#fff;fill-opacity:1;fill-rule:nonzero;stroke:none" transform="translate(299.885 480.39)"/><path d="m0 0-5.847 5.847c-.389.39-.91.605-1.462.605h-6.418a.53.53 0 0 0-.376.158l-3.865 3.072-3.852-3.047-.027-.025a.533.533 0 0 0-.376-.158h-13.441a1.501 1.501 0 0 1-1.501-1.5v-39.105h.571V4.952a.93.93 0 0 0 .728.906c.067.011.133.019.202.019h13.441c.059 0 .117.009.174.021.224.036.435.14.596.299l3.484 2.756 3.472-2.756c.162-.159.372-.263.596-.299a.828.828 0 0 1 .174-.021h6.418l.06-.002c.078-.004.156-.007.229-.023h.006c.286-.058.551-.198.763-.409L-.404-.405a3.25 3.25 0 0 0 .961-2.321v-5.792h.572v5.792C1.129-1.695.729-.728 0 0" style="fill:#fff;fill-opacity:1;fill-rule:nonzero;stroke:none" transform="translate(308.955 488.907)"/><path d="M0 0a1.1 1.1 0 0 1 1.095-1.099h16.369A1.1 1.1 0 0 1 18.56 0v4.548h-.571V0a.526.526 0 0 0-.525-.525H1.095A.525.525 0 0 0 .572 0v32.028H0Z" style="fill:#fff;fill-opacity:1;fill-rule:nonzero;stroke:none" transform="translate(281.706 410.45)"/><path d="M0 0h-16.369a.525.525 0 0 1-.523-.524v-30.187H-15.653v29.472H-.715v-3.835h1.24v4.55A.526.526 0 0 1 0 0" style="fill:#001a54;fill-opacity:1;fill-rule:nonzero;stroke:none" transform="translate(299.17 485.463)"/><path d="M0 0h-.715v-3.835h-14.939V27.48h-1.238V-4.548c0-.29.235-.525.524-.525H0c.289 0 .523.235.523.525V0Z" style="fill:#001a54;fill-opacity:1;fill-rule:nonzero;stroke:none" transform="translate(299.17 414.998)"/><path d="M0 0h-.715v-40.644H.523V0Z" style="fill:#001a54;fill-opacity:1;fill-rule:nonzero;stroke:none" transform="translate(299.17 468.016)"/><path d="M0 0h-.523v-6.432c0-.617-.241-1.197-.678-1.633l-6.227-6.229a2.3 2.3 0 0 0-1.635-.675h-6.316a.517.517 0 0 1-.371-.155l-.028-.024-3.753-2.876h-.096c-.097 0-.097 0-3.849 2.876l-.028.024a.52.52 0 0 1-.371.155h-13.441a1.5 1.5 0 0 0-1.501 1.5V27.48H-40.056v-40.949a2.741 2.741 0 0 1 2.74-2.739h13.212l3.448-2.46c.29-.266.659-.398 1.029-.398.369 0 .738.132 1.027.398l3.449 2.46h6.088c.95 0 1.84.368 2.511 1.039l6.227 6.228a3.523 3.523 0 0 1 1.04 2.509V0z" style="fill:#001a54;fill-opacity:1;fill-rule:nonzero;stroke:none" transform="translate(310.607 414.998)"/><path d="m0 0-5.847 5.846a3.284 3.284 0 0 1-2.338.969h-6.169l-3.453 2.731c-.586.55-1.502.55-2.088 0l-3.452-2.731H-36.54a2.743 2.743 0 0 1-2.74-2.739v-39.105h1.238V4.076c0 .826.674 1.5 1.502 1.5h13.441c.141 0 .277.058.375.159l.027.024 3.854 3.047 3.864-3.071a.528.528 0 0 1 .375-.159h6.419c.552 0 1.073-.214 1.462-.606L-.876-.876A3.828 3.828 0 0 0 .253-3.6v-5.794h1.238V-3.6A5.057 5.057 0 0 1 0 0" style="fill:#001a54;fill-opacity:1;fill-rule:nonzero;stroke:none" transform="translate(309.831 489.783)"/><path d="M0 0h-.523v-40.644H.715V0Z" style="fill:#001a54;fill-opacity:1;fill-rule:nonzero;stroke:none" transform="translate(310.607 468.016)"/><path d="M0 0h-.557v-.826a.81.81 0 0 0-.81-.81h-16.368a.81.81 0 0 0-.81.81v33.953h-8.263V-7.822a.93.93 0 0 1 .928-.93h13.442c.287 0 .555-.109.761-.307l3.487-2.674 3.488 2.674c.205.198.473.307.761.307h6.316c.465 0 .902.181 1.23.51L9.23-2.618v8.264H1.096V1.099C1.096.493.604 0 0 0" style="fill:#fff;fill-opacity:1;fill-rule:nonzero;stroke:none" transform="translate(299.17 409.352)"/><path d="m0 0-5.847 5.846a1.772 1.772 0 0 1-1.26.523h-6.418a.814.814 0 0 0-.58.243l-3.662 2.907-3.675-2.907a.812.812 0 0 0-.579-.243h-12.28c-.259 0-.496-.083-.693-.223v-37.699h8.263v28.262a.81.81 0 0 0 .81.809h.272v1.114c0 .604.491 1.096 1.095 1.096h16.368c.604 0 1.096-.492 1.096-1.096v-4.549h8.135v3.394C1.045-1.57.674-.675 0 0" style="fill:#fff;fill-opacity:1;fill-rule:nonzero;stroke:none" transform="translate(307.356 486.307)"/><path d="M300.267 427.372h8.134v40.644h-8.134z" style="fill:#fff;fill-opacity:1;fill-rule:nonzero;stroke:none"/><path d="M308.4 427.372h1.112v40.644H308.4Z" style="fill:#007f41;fill-opacity:1;fill-rule:nonzero;stroke:none"/><path d="M0 0H-.287v-40.644h.573V0Z" style="fill:#fff;fill-opacity:1;fill-rule:nonzero;stroke:none" transform="translate(299.98 468.016)"/><path d="M0 0h-.382v-40.644H.19V0Z" style="fill:#fff;fill-opacity:1;fill-rule:nonzero;stroke:none" transform="translate(309.894 468.016)"/><path d="m0 0-3.887-2.745c-.184-.129-.426.051-.357.265l1.473 4.457a.232.232 0 0 1-.083.261l-3.833 2.843c-.18.133-.085.421.139.421h4.698c.1 0 .19.063.221.159l1.512 4.497c.073.212.374.211.443-.003l1.466-4.491a.234.234 0 0 1 .222-.162h4.84c.226 0 .319-.291.136-.423L3.033 2.238a.235.235 0 0 1-.085-.267l1.574-4.477c.075-.215-.171-.399-.356-.268L.271-.001A.234.234 0 0 1 0 0" style="fill:#001a54;fill-opacity:1;fill-rule:nonzero;stroke:none" transform="translate(290.797 505.32)"/><path d="M0 0h-4.279l-1.303 3.993L-6.924 0h-4.162l3.405-2.525-1.304-3.953 3.442 2.431 3.413-2.431-1.389 3.953z" style="fill:#e9470a;fill-opacity:1;fill-rule:nonzero;stroke:none" transform="translate(296.478 510.212)"/><path d="m0 0 3.046-2.26-1.163-3.526 3.072 2.171L7.983-5.77 6.749-2.258 9.896 0H6.08L4.914 3.57 3.714 0Zm8.754-6.794-3.8 2.703L1.146-6.78 2.59-2.403-1.173.389h4.608L4.92 4.803 6.361.389h4.74l-3.89-2.794z" style="fill:#fff;fill-opacity:1;fill-rule:nonzero;stroke:none" transform="translate(285.98 510.018)"/><path d="M0 0c0 38.856 31.5 70.355 70.355 70.355 38.856 0 70.355-31.499 70.355-70.355 0-38.855-31.499-70.355-70.355-70.355C31.5-70.355 0-38.855 0 0" style="fill:#00205b;fill-opacity:1;fill-rule:nonzero;stroke:none" transform="translate(220.752 140.611)"/><path d="M0 0c-19.52 0-37.871-7.603-51.674-21.403C-65.478-35.207-73.079-53.56-73.079-73.08c0-19.52 7.601-37.872 21.405-51.675C-37.871-138.557-19.52-146.159 0-146.159c19.521 0 37.873 7.602 51.676 21.404C65.479-110.952 73.079-92.6 73.079-73.08c0 19.52-7.6 37.873-21.403 51.677C37.873-7.603 19.521 0 0 0m0-2.724c38.856 0 70.355-31.5 70.355-70.356 0-38.857-31.499-70.355-70.355-70.355-38.855 0-70.355 31.498-70.355 70.355 0 38.856 31.5 70.356 70.355 70.356" style="fill:#b5b5b6;fill-opacity:1;fill-rule:nonzero;stroke:none" transform="translate(291.107 213.691)"/><path d="M0 0c-36.285 0-65.804-29.521-65.804-65.806 0-36.284 29.519-65.804 65.804-65.804 36.286 0 65.807 29.52 65.807 65.804C65.807-29.521 36.286 0 0 0" style="fill:#fff;fill-opacity:1;fill-rule:nonzero;stroke:none" transform="translate(291.107 206.417)"/><path d="M0 0c-4.155 3.897-9.171 5.648-14.813 5.137a81.368 81.368 0 0 1-5.277 12.607 212.065 212.065 0 0 0 15.428 3.053 59.428 59.428 0 0 1-1.721 3.729 218.32 218.32 0 0 1-15.663-3.203 88.629 88.629 0 0 1-6.591 9.9 20.72 20.72 0 0 1 1.657 1.123c3.027 2.276 5.938 5.945 5.346 11.452a60.577 60.577 0 0 1-5.224 3.932c2.406-5.233 1.602-9.132-2.503-12.219a17.242 17.242 0 0 0-1.793-1.175C-42.513 47.679-55.807 54.373-67.68 57.603a60.41 60.41 0 0 1-9.898-1.985c12.801-1.858 29.045-7.554 42.591-22.924-5.919-1.789-12.71-.896-18.871.186-1.043.183-2.094.372-3.151.56-12.358 2.217-25.137 4.507-37.387 1.115-8.09-2.241-16.013-7.237-22.305-13.823a60.293 60.293 0 0 1-3.37-10.784c6.134 9.977 16.293 17.9 26.733 20.79 11.38 3.152 23.709.942 35.63-1.196 1.062-.19 2.118-.379 3.165-.563 7.635-1.341 15.482-2.105 22.268.463a83.557 83.557 0 0 0 6.233-9.124 234.214 234.214 0 0 1-25.05-8.053c-24.806-9.559-46.702-22.846-65.144-39.519a60.266 60.266 0 0 1 1.798-3.716C-83.724-2.853-48.681 10.489-24.05 16.771c.072-.135.146-.267.217-.403A78.198 78.198 0 0 0-18.722 4.39c-9.446-2.916-15.781-13.85-23.034-26.379-8.64-14.93-18.423-31.811-35.742-39.1a60.226 60.226 0 0 1 6.149-1.428c15.665 8.573 24.835 24.403 33.022 38.544C-31.505-12.188-25.551-1.905-17.573.6c4.004-14.579 3.685-30.339-.974-47.07a60.98 60.98 0 0 1 5.561 6.133c1.598 7.688 2.3 15.246 2.082 22.569A82.93 82.93 0 0 1-13.67 1.249C-8.198 1.52-3.704-.853-.022-5.959.033-4.888.063-3.81.063-2.723.063-1.811.04-.903 0 0" style="fill:#f4f4f4;fill-opacity:1;fill-rule:nonzero;stroke:none" transform="translate(351.111 143.07)"/><path d="M0 0c-34.452 0-62.48-28.028-62.48-62.481s28.028-62.48 62.48-62.48c34.453 0 62.48 28.027 62.48 62.48C62.48-28.028 34.453 0 0 0m0-2.421c33.171 0 60.06-26.891 60.06-60.06 0-33.17-26.889-60.059-60.06-60.059-33.17 0-60.059 26.889-60.059 60.059 0 33.169 26.889 60.06 60.059 60.06" style="fill:#007f41;fill-opacity:1;fill-rule:nonzero;stroke:none" transform="translate(291.107 203.093)"/><path d="m0 0-2.032-1.572 3.96-5.113 2.031 1.573zm5.45-6.13L1.548-9.151l-6.061 7.828 3.902 3.022 1.736-.221 4.546-5.872z" style="fill:#007f41;fill-opacity:1;fill-rule:nonzero;stroke:none" transform="translate(259.3 183.874)"/><path d="m0 0-2.305-1.131 1.083-2.208 2.307 1.132zm-1.765 3.599L-4.07 2.467-3.055.396-.75 1.528Zm4.106-7.103-4.417-2.168-4.362 8.89 4.417 2.167 1.656-.565L.896 2.25.542 1.214 1.578.86l1.329-2.708Z" style="fill:#007f41;fill-opacity:1;fill-rule:nonzero;stroke:none" transform="translate(270.393 185.787)"/><path d="m0 0-2.547-.334.344-2.623 2.546.334zm1.118-4.253-3.098-.405.497-3.789-1.779-.234-1.286 9.816 4.877.638L1.715.708l.469-3.573Z" style="fill:#007f41;fill-opacity:1;fill-rule:nonzero;stroke:none" transform="translate(285.353 193.995)"/><path d="m0 0-2.562.172-.172-2.561 2.562-.172zm-.441-8.171-1.225 3.912-1.188.08-.256-3.811-1.79.119.663 9.877 4.907-.33L1.822.358 1.58-3.238.262-4.389l1.287-3.915Z" style="fill:#007f41;fill-opacity:1;fill-rule:nonzero;stroke:none" transform="translate(296.153 194.071)"/><path d="m0 0-2.476.68-1.709-6.237 2.477-.677zm-1.625-8.037-3.55.973-.867 1.519 1.963 7.16 1.519.867L.992 1.51l.866-1.521-1.962-7.16z" style="fill:#007f41;fill-opacity:1;fill-rule:nonzero;stroke:none" transform="translate(306.554 192.045)"/><path d="m0 0-1.536.804 2.39 4.599-2.905-2.479-.794.415.381 3.799-2.402-4.592-1.549.81 4.589 8.775 1.453-.762-.519-5.264 4.029 3.428 1.453-.761Z" style="fill:#007f41;fill-opacity:1;fill-rule:nonzero;stroke:none" transform="translate(315.37 179.27)"/><path d="m0 0-2.584-3.122-1.37 1.135 2.572 3.131L.166 7.452l1.609-1.331-1.22-4.069L4.276 4.05l1.575-1.302Z" style="fill:#007f41;fill-opacity:1;fill-rule:nonzero;stroke:none" transform="translate(323.405 178.193)"/><path d="m0 0-.714 1.64-1.688-.736.713-1.638zm-2.63-1.566L-3.498.428-5.937-.634-6.435.512l6.319 2.75L1.25.122.804-1.012l-2.3-1.002z" style="fill:#007f41;fill-opacity:1;fill-rule:nonzero;stroke:none" transform="translate(246.018 120.035)"/><path d="m0 0-.93 1.527-1.527-.929.93-1.527zm-4.827-3.026 1.735 2.265-.432.709-2.271-1.384-.65 1.068 5.886 3.584L1.223.291.935-.893l-2.144-1.304-1.183.288-1.712-2.304z" style="fill:#007f41;fill-opacity:1;fill-rule:nonzero;stroke:none" transform="translate(249.273 114.042)"/><path d="m0 0-1.127 1.388-3.494-2.841 1.129-1.386zm-4.175-3.895-1.617 1.989.125 1.213 4.01 3.261 1.213-.125L1.173.455 1.048-.758l-4.01-3.262z" style="fill:#007f41;fill-opacity:1;fill-rule:nonzero;stroke:none" transform="translate(253.218 108.678)"/><path d="m0 0-1.405 1.105-.993-1.26L-.994-1.26zm-1.725-2.192-1.404 1.107-1.06-1.347 1.405-1.105zm-1.494-2.524L-5.91-2.598l4.263 5.415L1.044.7l.144-1.21-1.231-1.566-.758-.089.091-.757-1.299-1.649Z" style="fill:#007f41;fill-opacity:1;fill-rule:nonzero;stroke:none" transform="translate(261.213 101.087)"/><path d="m0 0-1.512-1.509.919-.541zm-1.318-4.896.438 1.703-1.484.873-1.228-1.238-1.077.633L.524 2.016l.984-.58-1.787-6.944z" style="fill:#007f41;fill-opacity:1;fill-rule:nonzero;stroke:none" transform="translate(265.619 97.174)"/><path d="m0 0-2.632 1.102-.294.719.278.665L.083 1.343l.615 1.47-1.957.819-.462 1.127.89 2.127 1.127.461 2.633-1.1.294-.72-.278-.665L.212 6.005l-.573-1.371 1.958-.82.458-1.135L1.128.463Z" style="fill:#007f41;fill-opacity:1;fill-rule:nonzero;stroke:none" transform="translate(270.997 89.125)"/><path d="m0 0-.492 3.929-1.867-1.465L-2.807.72l-1.209.311 1.714 6.678 1.21-.312-.806-3.14 3.195 2.527 1.419-.364L.673 4.787l.579-5.109Z" style="fill:#007f41;fill-opacity:1;fill-rule:nonzero;stroke:none" transform="translate(278.981 86.675)"/><path d="m0 0 .75 6.85 4.271-.468-.13-1.189-3.018.331-.177-1.616 2.044-.223-.136-1.242-2.045.223-.177-1.616L4.4.72 4.271-.469Z" style="fill:#007f41;fill-opacity:1;fill-rule:nonzero;stroke:none" transform="translate(283.012 85.918)"/><path d="m0 0-1.787-.038.124-5.697-1.249-.028-.125 5.697-1.787-.05-.026 1.205 4.824.106z" style="fill:#007f41;fill-opacity:1;fill-rule:nonzero;stroke:none" transform="translate(294.634 91.128)"/><path d="m0 0-1.766-.277.265-1.691 1.766.276zm-.433 2.755-1.764-.277.248-1.585 1.764.276zM.833-2.813l-3.382-.53-1.067 6.808 3.383.53.982-.718.31-1.967L.61.695l.616-.449.324-2.074Z" style="fill:#007f41;fill-opacity:1;fill-rule:nonzero;stroke:none" transform="translate(300.167 89.044)"/><path d="m0 0 .079-2.136 1.022.308zm2.696-4.295-.951 1.48-1.65-.497.073-1.743-1.195-.36-.096 7.169 1.093.329 3.881-6.031z" style="fill:#007f41;fill-opacity:1;fill-rule:nonzero;stroke:none" transform="translate(305.606 92.371)"/><path d="m0 0-2.822 6.285 1.139.513L.649 1.602l2.525 1.131.49-1.089Z" style="fill:#007f41;fill-opacity:1;fill-rule:nonzero;stroke:none" transform="translate(312.019 89.425)"/><path d="m0 0-3.592 5.882 1.067.651L.444 1.671l2.363 1.443.622-1.02Z" style="fill:#007f41;fill-opacity:1;fill-rule:nonzero;stroke:none" transform="translate(318.283 92.464)"/><path d="m0 0-1.765-1.678-1.217.031L-6.546 2.1l.031 1.216 1.763 1.679 1.22-.031.228-.242-2.106-2.004 3.102-3.263L-.2 1.46l.229-.243Z" style="fill:#007f41;fill-opacity:1;fill-rule:nonzero;stroke:none" transform="translate(330.156 101.504)"/><path d="m0 0-5.345 4.354.789.969 4.418-3.598 1.747 2.144.929-.754Z" style="fill:#007f41;fill-opacity:1;fill-rule:nonzero;stroke:none" transform="translate(332.808 104.318)"/><path d="m0 0-1.343-2.185-1.185-.282L-7.665.694l.654 1.064 4.853-2.986.937 1.524-4.853 2.985.655 1.065 5.137-3.161z" style="fill:#007f41;fill-opacity:1;fill-rule:nonzero;stroke:none" transform="translate(338.863 112.784)"/><path d="m0 0-.719-1.638L.85-2.325l.717 1.637zm-2.554 1.12-.717-1.638 1.468-.644.717 1.638zM2.818-.813 1.442-3.95l-6.31 2.769 1.376 3.136 1.134.442 1.824-.799.277-.71.709.277L2.375.322z" style="fill:#007f41;fill-opacity:1;fill-rule:nonzero;stroke:none" transform="translate(339.419 120.415)"/><path d="m0 0-2.523-1.782c-.119-.084-.278.033-.231.172l.955 2.894c.022.062 0 .13-.054.169L-4.34 3.299c-.117.086-.056.272.09.272h3.049c.065 0 .123.042.145.104l.981 2.919a.151.151 0 0 0 .287-.002l.953-2.915a.151.151 0 0 1 .144-.106h3.14c.147 0 .208-.188.088-.273L1.969 1.453a.153.153 0 0 1-.055-.174l1.021-2.906c.05-.14-.11-.259-.23-.174L.175 0A.155.155 0 0 1 0 0" style="fill:#001a54;fill-opacity:1;fill-rule:nonzero;stroke:none" transform="translate(293.03 174.763)"/><path d="M0 0h-2.777l-.847 2.593L-4.495 0h-2.701l2.21-1.639-.847-2.565 2.234 1.577 2.216-1.577-.901 2.565z" style="fill:#e9470a;fill-opacity:1;fill-rule:nonzero;stroke:none" transform="translate(296.719 177.938)"/><path d="m0 0 1.978-1.467-.756-2.289 1.994 1.409 1.966-1.398-.801 2.279L6.425 0H3.947L3.19 2.317 2.411 0Zm5.683-4.411L3.216-2.655.744-4.401l.939 2.841L-.762.252H2.23l.965 2.866.934-2.866h3.078L4.681-1.561Z" style="fill:#fff;fill-opacity:1;fill-rule:nonzero;stroke:none" transform="translate(289.903 177.811)"/><path d="M308.057 139.707H274.72v9.531h33.337zm1.606 16.632h-41.05a1.313 1.313 0 0 1-1.314-1.313v-16.373l-1.857-2.412a.527.527 0 0 1 0-.744l1.857-2.412v-15.093c0-.228.27-.348.439-.195l6.981 6.318v8.556h33.338l6.867 6.216c.352.319.553.771.553 1.246v10.392c0 .447-.177.874-.493 1.189l-4.131 4.133a1.686 1.686 0 0 1-1.19.492" style="fill:#001a54;fill-opacity:1;fill-rule:nonzero;stroke:none"/><path d="M275.476 140.464H307.3v8.019h-31.824zm33.338-1.514h-34.852v11.045h34.852zm-42.703-3.082 1.946-2.527v-14.236l5.905 5.347v8.976h33.803l6.65 6.019a.923.923 0 0 1 .305.686v10.392a.932.932 0 0 1-.27.654l-4.133 4.133a.92.92 0 0 1-.654.27h-41.05a.556.556 0 0 1-.556-.556v-16.63zm1.451-18.895a1.02 1.02 0 0 0-1.021 1.019v14.835l-1.675 2.179a1.267 1.267 0 0 0-.334.862c0 .324.118.628.334.865l1.675 2.178v16.115c0 1.142.93 2.071 2.072 2.071h41.05c.651 0 1.263-.253 1.724-.714l4.134-4.133c.46-.461.714-1.072.714-1.725v-10.392a2.44 2.44 0 0 0-.802-1.807l-7.083-6.413h-32.874v-8.134l-7.23-6.544a1.022 1.022 0 0 0-.684-.262" style="fill:#001a54;fill-opacity:1;fill-rule:nonzero;stroke:none"/><path d="M0 0a.526.526 0 0 1-.526-.526v-9.532c0-.29.236-.525.526-.525h33.337c.291 0 .526.235.526.525v9.532a.525.525 0 0 1-.526.526Zm-6.895-16.68a.524.524 0 0 1-.154.371l-1.857 2.413 1.857 2.414a.522.522 0 0 1 .154.371V5.261a.79.79 0 0 0 .789.788h41.05c.309 0 .599-.12.817-.337l4.133-4.135c.218-.218.339-.508.339-.816V-9.632c0-.325-.139-.639-.38-.856l-6.718-6.079H0a.528.528 0 0 1-.526-.527v-8.322l-6.369-5.765z" style="fill:#001a54;fill-opacity:1;fill-rule:nonzero;stroke:none" transform="translate(274.72 149.765)"/><path d="M0 0a.223.223 0 0 1-.222-.224v-9.531c0-.122.099-.223.222-.223h33.337c.124 0 .222.101.222.223v9.531a.223.223 0 0 1-.222.224Zm33.337-10.583H0a.829.829 0 0 0-.828.828v9.531c0 .457.371.83.828.83h33.337c.458 0 .83-.373.83-.83v-9.531a.83.83 0 0 0-.83-.828m-40.156-5.225a.826.826 0 0 0 .227-.569v-13.818l5.764 5.216v8.188c0 .457.371.828.828.828h33.019l6.63 6.002a.852.852 0 0 1 .281.633V1.063c0 .228-.09.442-.25.604l-4.134 4.132a.843.843 0 0 1-.602.251h-41.05a.487.487 0 0 1-.486-.487v-16.372a.825.825 0 0 0-.227-.57l-1.704-2.215zm-.378-15.753v15.184c0 .06-.024.114-.066.157l-.025.03-2 2.596 2.025 2.627c.042.043.066.1.066.158V5.563c0 .602.489 1.09 1.091 1.09h41.05c.389 0 .756-.15 1.031-.425l4.133-4.133c.276-.277.428-.643.428-1.032V-9.328c0-.411-.175-.806-.48-1.082l-6.804-6.157H0a.223.223 0 0 1-.222-.224v-8.455z" style="fill:#001a54;fill-opacity:1;fill-rule:nonzero;stroke:none" transform="translate(274.72 149.462)"/><path d="M0 0v-8.172h-32.913l-7.339-6.641a.263.263 0 0 1 .177-.458H1.606c.447 0 .874.176 1.19.492l4.132 4.133c.317.315.492.742.492 1.188V1.624c0 .444-.175.873-.492 1.189L5.291 4.45c-.1.1-.259.104-.362.01z" style="fill:#001a54;fill-opacity:1;fill-rule:nonzero;stroke:none" transform="translate(308.057 130.114)"/><path d="M0 0h40.4c.247 0 .479.096.655.271l4.131 4.131a.922.922 0 0 1 .271.655v11.082a.918.918 0 0 1-.271.653l-1.306 1.306-4.328-3.919V5.587H6.172Zm40.4-1.514H-1.282c-.426 0-.799.255-.951.653-.154.395-.048.838.266 1.123L5.589 7.1h32.448v7.75l5.175 4.685a1.02 1.02 0 0 0 1.407-.035l1.638-1.637a2.424 2.424 0 0 0 .715-1.724V5.057a2.42 2.42 0 0 0-.715-1.724L42.124-.799a2.422 2.422 0 0 0-1.724-.715" style="fill:#001a54;fill-opacity:1;fill-rule:nonzero;stroke:none" transform="translate(269.263 115.6)"/><path d="m0 0 6.683 6.049h32.711c.291 0 .526.235.526.525v7.939l4.568 4.136 1.462-1.462c.219-.218.339-.509.339-.817V5.288c0-.308-.12-.599-.339-.817L41.817.338A1.144 1.144 0 0 0 41 0Z" style="fill:#001a54;fill-opacity:1;fill-rule:nonzero;stroke:none" transform="translate(268.663 115.368)"/><path d="M0 0h40.215c.228 0 .442.088.602.249l4.134 4.132c.16.162.25.377.25.603v11.082c0 .228-.09.442-.25.603l-1.258 1.258-4.255-3.853V6.271a.83.83 0 0 0-.83-.829H6.015Zm40.215-.606H-1.571l7.352 6.655h32.827c.124 0 .224.099.224.222v8.072l4.882 4.419 1.665-1.664a1.45 1.45 0 0 0 .428-1.032V4.984a1.45 1.45 0 0 0-.428-1.031L41.246-.18a1.45 1.45 0 0 0-1.031-.426" style="fill:#001a54;fill-opacity:1;fill-rule:nonzero;stroke:none" transform="translate(269.448 115.672)"/><path d="M296.729 111.428H286.11v48.326h10.619zm2.796 54.933a1.677 1.677 0 0 1-1.19.493h-4.163l-2.384 1.886a.524.524 0 0 1-.743 0l-2.385-1.886h-8.72a1.315 1.315 0 0 1-1.315-1.313v-59.9c0-.726.59-1.313 1.315-1.313h8.72l2.385-1.702a.526.526 0 0 1 .743 0l2.384 1.702h4.099c.487 0 .956.193 1.299.538l4.041 4.039c.346.345.539.814.539 1.301v50.356c0 .752-.298 1.475-.832 2.007z" style="fill:#001a54;fill-opacity:1;fill-rule:nonzero;stroke:none"/><path d="M286.867 112.185h9.106v46.813h-9.106zm10.621-1.514h-12.134v49.841h12.134zm-17.548 55.427a.556.556 0 0 1-.556-.557v-59.9c0-.307.249-.557.556-.557h8.963l2.514-1.793 2.513 1.793h4.341c.288 0 .561.112.764.317l4.041 4.039c.205.206.317.477.317.766v50.356c0 .555-.217 1.079-.61 1.471l-3.793 3.794a.919.919 0 0 1-.655.271h-4.426l-2.492 1.971-2.494-1.971zm11.477-64.382c-.317 0-.617.113-.852.322l-2.147 1.532h-8.478c-1.142 0-2.07.929-2.07 2.071v59.9c0 1.142.928 2.07 2.07 2.07h8.457l2.151 1.702a1.284 1.284 0 0 0 1.737 0l2.15-1.702h3.9c.652 0 1.265-.254 1.726-.714l3.793-3.793a3.572 3.572 0 0 0 1.053-2.542v-50.356c0-.693-.269-1.345-.76-1.836l-4.042-4.039a2.579 2.579 0 0 0-1.834-.761h-3.856l-2.147-1.532a1.273 1.273 0 0 0-.851-.322" style="fill:#001a54;fill-opacity:1;fill-rule:nonzero;stroke:none"/><path d="M0 0a.525.525 0 0 1-.525-.526v-48.327c0-.291.235-.525.525-.525h10.619c.292 0 .526.234.526.525V-.526a.525.525 0 0 1-.526.526Zm2.922-55.582a.521.521 0 0 1-.372.155h-8.72a.789.789 0 0 0-.788.787V5.261a.79.79 0 0 0 .788.788h8.72a.52.52 0 0 1 .376.159l2.386 1.885 2.375-1.885a.52.52 0 0 1 .376-.159h4.163c.309 0 .6-.12.817-.338l3.794-3.794A2.297 2.297 0 0 0 17.515.28v-50.354c0-.351-.137-.681-.386-.929l-4.04-4.041a1.301 1.301 0 0 0-.928-.383H8.063a.522.522 0 0 1-.373-.155l-2.383-1.827z" style="fill:#001a54;fill-opacity:1;fill-rule:nonzero;stroke:none" transform="translate(286.11 160.28)"/><path d="M0 0a.223.223 0 0 1-.222-.223v-48.326c0-.122.1-.222.222-.222h10.619c.124 0 .223.1.223.222V-.223a.223.223 0 0 1-.223.223Zm10.619-49.378H0a.83.83 0 0 0-.827.829V-.223c0 .457.371.829.827.829h10.619a.83.83 0 0 0 .829-.829v-48.326a.83.83 0 0 0-.829-.829m-7.498-5.671 2.186-1.675 2.186 1.676a.821.821 0 0 0 .57.228h4.098c.27 0 .524.104.715.295l4.04 4.04c.191.191.296.445.296.714V.585c0 .535-.21 1.042-.589 1.422L12.829 5.8a.843.843 0 0 1-.603.25H8.063a.83.83 0 0 0-.578.235L5.311 8.011 3.128 6.285a.832.832 0 0 0-.578-.235h-8.72a.486.486 0 0 1-.485-.486v-59.9c0-.268.217-.484.485-.484h8.72a.823.823 0 0 0 .571-.229m2.288-2.36h-.102c-.104 0-.104 0-2.569 1.891l-.03.026a.217.217 0 0 1-.158.065h-8.72c-.601 0-1.091.489-1.091 1.091v59.9c0 .602.49 1.09 1.091 1.09h8.72a.23.23 0 0 1 .16.069l.029.025 2.573 2.035 2.591-2.06a.228.228 0 0 1 .16-.069h4.163c.39 0 .756-.15 1.031-.426l3.793-3.793a2.596 2.596 0 0 0 .768-1.85v-50.356a1.61 1.61 0 0 0-.473-1.143l-4.041-4.039a1.61 1.61 0 0 0-1.143-.474H8.063a.222.222 0 0 1-.158-.065l-.03-.026z" style="fill:#001a54;fill-opacity:1;fill-rule:nonzero;stroke:none" transform="translate(286.11 159.977)"/><path d="M309.8 141.491h-33.337v9.531H309.8Zm1.607 16.632h-41.052a1.314 1.314 0 0 1-1.313-1.313v-16.373l-1.856-2.413a.525.525 0 0 1 0-.744l1.856-2.412v-15.093c0-.228.271-.348.439-.195l6.982 6.319v8.555H309.8l6.867 6.215c.354.319.554.772.554 1.248v10.392c0 .445-.177.873-.492 1.188l-4.132 4.133a1.69 1.69 0 0 1-1.19.493" style="fill:#008f43;fill-opacity:1;fill-rule:nonzero;stroke:none"/><path d="M276.927 141.953h32.41v8.605h-32.41zm33.337-.926h-34.265v10.457h34.265zm-39.909 16.632a.851.851 0 0 1-.849-.849v-16.53l-1.993-2.584a.061.061 0 0 1-.018-.044c0-.017.007-.031.018-.045l.04-.044 1.953-2.539v-14.796l6.493 5.877v8.812h33.623l6.734 6.097c.255.23.402.558.402.903v10.392c0 .325-.127.63-.357.861l-4.132 4.133a1.235 1.235 0 0 1-.862.356zm-1.05-38.61a.728.728 0 0 0-.726.726v14.935l-1.745 2.268a.98.98 0 0 0-.266.674c0 .253.094.492.266.674l1.745 2.269v16.215c0 .979.797 1.776 1.776 1.776h41.052c.572 0 1.111-.223 1.517-.629l4.133-4.131c.403-.406.628-.945.628-1.517v-10.392c0-.604-.258-1.186-.706-1.591l-7-6.336h-33.052v-8.297l-7.134-6.457a.729.729 0 0 0-.488-.187" style="fill:#001a54;fill-opacity:1;fill-rule:nonzero;stroke:none"/><path d="M0 0a.34.34 0 0 1-.34-.34v-9.532c0-.188.153-.341.34-.341h33.337a.34.34 0 0 1 .341.341V-.34a.34.34 0 0 1-.341.34Zm33.337-10.583H0a.71.71 0 0 0-.71.711V-.34c0 .392.318.711.71.711h33.337a.714.714 0 0 0 .713-.711v-9.532a.713.713 0 0 0-.713-.711m-40.246-5.419a.704.704 0 0 0 .2-.493v-14.082l5.999 5.43v8.239c0 .391.318.711.71.711h33.063l6.666 6.032a.974.974 0 0 1 .318.72V.946c0 .26-.101.503-.284.686l-4.132 4.134a.97.97 0 0 1-.687.284h-41.05a.604.604 0 0 1-.603-.603v-16.372a.707.707 0 0 0-.2-.494l-1.763-2.29zm-.172-15.41v14.917a.336.336 0 0 1-.099.24l-.016.019-1.944 2.527 1.96 2.544a.336.336 0 0 1 .099.24V5.447c0 .536.438.973.975.973h41.05c.358 0 .695-.139.948-.393l4.133-4.132a1.33 1.33 0 0 0 .393-.949V-9.445c0-.378-.16-.742-.44-.995l-6.772-6.127H0a.343.343 0 0 1-.34-.341v-8.404z" style="fill:#fff;fill-opacity:1;fill-rule:nonzero;stroke:none" transform="translate(276.463 151.362)"/><path d="M0 0v-8.171h-32.913l-7.338-6.642a.263.263 0 0 1 .175-.459H1.607c.446 0 .872.177 1.19.493l4.133 4.133c.314.316.491.743.491 1.188V1.623c0 .446-.177.873-.491 1.19L5.29 4.451a.263.263 0 0 1-.362.009Z" style="fill:#008f43;fill-opacity:1;fill-rule:nonzero;stroke:none" transform="translate(309.8 131.898)"/><path d="M0 0h41.162c.324 0 .63.127.86.357l4.134 4.132c.23.231.357.536.357.862v11.081c0 .326-.127.631-.357.862l-1.505 1.502-4.632-4.193V6.175H6.821Zm41.162-.926H-.521a.722.722 0 0 0-.678.465.724.724 0 0 0 .19.8l7.473 6.762h32.628v7.914l5.08 4.597a.726.726 0 0 0 1-.024l1.64-1.64c.403-.404.627-.943.627-1.516V5.351c0-.573-.224-1.112-.627-1.517L42.679-.298a2.14 2.14 0 0 0-1.517-.628" style="fill:#001a54;fill-opacity:1;fill-rule:nonzero;stroke:none" transform="translate(270.245 117.089)"/><path d="M0 0a.526.526 0 0 1-.525-.525v-9.533c0-.29.235-.525.525-.525h33.337c.291 0 .526.235.526.525v9.533a.526.526 0 0 1-.526.525Zm-6.896-16.681a.528.528 0 0 1-.153.372l-1.857 2.413 1.857 2.414a.526.526 0 0 1 .153.372V5.262a.79.79 0 0 0 .79.787h41.05c.309 0 .598-.12.819-.339l4.131-4.132c.218-.219.339-.51.339-.817V-9.631c0-.327-.139-.639-.38-.857l-6.717-6.08H0a.526.526 0 0 1-.525-.526v-8.322l-6.371-5.765z" style="fill:#007f41;fill-opacity:1;fill-rule:nonzero;stroke:none" transform="translate(276.463 151.548)"/><path d="m0 0 6.684 6.05h32.71c.291 0 .525.235.525.525v7.938l4.571 4.134 1.461-1.459c.218-.219.34-.509.34-.819V5.288c0-.309-.122-.598-.34-.817L41.819.339A1.154 1.154 0 0 0 41.001 0Z" style="fill:#007f41;fill-opacity:1;fill-rule:nonzero;stroke:none" transform="translate(270.406 117.151)"/><path d="M0 0h40.521a.97.97 0 0 1 .686.284l4.132 4.131a.97.97 0 0 1 .284.687v11.081a.969.969 0 0 1-.284.687l-1.336 1.337-4.377-3.963V6.389a.712.712 0 0 0-.713-.711H6.275zm40.521-.372H-.962l7.094 6.42h32.781a.34.34 0 0 1 .341.341v8.019l4.762 4.31 1.586-1.586c.253-.254.392-.591.392-.949V5.102a1.33 1.33 0 0 0-.392-.948L41.468.021a1.332 1.332 0 0 0-.947-.393" style="fill:#007f41;fill-opacity:1;fill-rule:nonzero;stroke:none" transform="translate(270.887 117.338)"/><path d="M0 0v8.688h-.382a.525.525 0 0 1-.525-.525v-9.532c0-.29.235-.527.525-.527h33.338c.291 0 .525.237.525.527v.844H.525A.525.525 0 0 0 0 0" style="fill:#004b21;fill-opacity:1;fill-rule:nonzero;stroke:none" transform="translate(275.78 141.376)"/><path d="m0 0-4.132 4.132c-.22.22-.509.339-.818.339H-46a.79.79 0 0 1-.789-.787v-.582h40.932c.309 0 .599-.121.818-.337l4.133-4.134a1.15 1.15 0 0 0 .339-.817v-10.356l.526.476c.241.218.381.53.381.857V-.817C.34-.509.219-.219 0 0" style="fill:#004b21;fill-opacity:1;fill-rule:nonzero;stroke:none" transform="translate(316.356 153.126)"/><path d="M0 0v-7.774l.907.822V.525H.526A.525.525 0 0 1 0 0" style="fill:#004b21;fill-opacity:1;fill-rule:nonzero;stroke:none" transform="translate(274.872 133.139)"/><path d="M0 0c.289 0 .524.235.524.525v.844h-32.33l-6.682-6.05h.605L-32.712 0Z" style="fill:#004b21;fill-opacity:1;fill-rule:nonzero;stroke:none" transform="translate(309.054 121.832)"/><path d="m0 0-.19.246 1.918 2.437v-.291a.616.616 0 0 0-.181-.437Z" style="fill:#004b21;fill-opacity:1;fill-rule:nonzero;stroke:none" transform="translate(267.93 137.394)"/><path d="m0 0-4.569-4.135v-.547l3.661 3.315L.555-2.829c.217-.219.339-.509.339-.817v-11.082l-.001-.018.568.569c.219.219.338.509.338.818v11.081c0 .308-.119.599-.338.817z" style="fill:#004b21;fill-opacity:1;fill-rule:nonzero;stroke:none" transform="translate(314.896 135.61)"/><path d="M0 0a.34.34 0 0 1-.34-.34v-9.532c0-.188.153-.341.34-.341h33.337a.34.34 0 0 1 .341.341V-.34a.34.34 0 0 1-.341.34Zm33.337-10.583H0a.71.71 0 0 0-.71.711V-.34c0 .392.318.711.71.711h33.337a.714.714 0 0 0 .713-.711v-9.532a.713.713 0 0 0-.713-.711m-40.246-5.419a.704.704 0 0 0 .2-.493v-14.082l5.999 5.43v8.239c0 .391.318.711.71.711h33.063l6.666 6.032a.974.974 0 0 1 .318.72V.946c0 .26-.101.503-.284.686l-4.132 4.134a.97.97 0 0 1-.687.284h-41.05a.604.604 0 0 1-.603-.603v-16.372a.707.707 0 0 0-.2-.494l-1.763-2.29zm-.172-15.41v14.917a.336.336 0 0 1-.099.24l-.016.019-1.944 2.527 1.96 2.544a.336.336 0 0 1 .099.24V5.447c0 .536.438.973.975.973h41.05c.358 0 .695-.139.948-.393l4.133-4.132a1.33 1.33 0 0 0 .393-.949V-9.445c0-.378-.16-.742-.44-.995l-6.772-6.127H0a.343.343 0 0 1-.34-.341v-8.404z" style="fill:#fff;fill-opacity:1;fill-rule:nonzero;stroke:none" transform="translate(276.463 151.362)"/><path d="M0 0h40.521a.97.97 0 0 1 .686.284l4.132 4.131a.97.97 0 0 1 .284.687v11.081a.969.969 0 0 1-.284.687l-1.336 1.337-4.377-3.963V6.389a.712.712 0 0 0-.713-.711H6.275zm40.521-.372H-.962l7.094 6.42h32.781a.34.34 0 0 1 .341.341v8.019l4.762 4.31 1.586-1.586c.253-.254.392-.591.392-.949V5.102a1.33 1.33 0 0 0-.392-.948L41.468.021a1.332 1.332 0 0 0-.947-.393" style="fill:#fff;fill-opacity:1;fill-rule:nonzero;stroke:none" transform="translate(270.887 117.338)"/><path d="M0 0h-.177a.525.525 0 0 1-.524-.526v-18.336H0Z" style="fill:#004b21;fill-opacity:1;fill-rule:nonzero;stroke:none" transform="translate(287.142 160.815)"/><path d="M0 0c.213.214.331.497.331.799v4.173h-.723V-.391Z" style="fill:#004b21;fill-opacity:1;fill-rule:nonzero;stroke:none" transform="translate(304.852 111.191)"/><path d="M0 0v20.779h-.701V-1.248c0-.29.235-.525.524-.525h10.619c.291 0 .526.235.526.525v.537H.711A.711.711 0 0 0 0 0" style="fill:#004b21;fill-opacity:1;fill-rule:nonzero;stroke:none" transform="translate(287.142 113.21)"/><path d="m0 0-3.794 3.792a.97.97 0 0 1-.495.266l-.002.001c-.049.008-.1.012-.15.014l-.039.002h-4.165a.47.47 0 0 0-.112.013.715.715 0 0 0-.388.194l-2.251 1.787-2.26-1.787a.705.705 0 0 0-.387-.194.472.472 0 0 0-.113-.013h-8.719c-.046 0-.088-.007-.131-.013a.603.603 0 0 1-.473-.588v-.912c.127.09.282.144.45.144h7.966c.142 0 .277.057.376.158l2.385 1.886 2.375-1.886a.524.524 0 0 1 .376-.158h4.164c.309 0 .6-.12.817-.339l3.794-3.793a2.297 2.297 0 0 0 .677-1.637v-2.202h.723v3.758C.624-.938.401-.403 0 0" style="fill:#004b21;fill-opacity:1;fill-rule:nonzero;stroke:none" transform="translate(304.559 163.85)"/><path d="M0 0h-.185v-4.173c0-.302-.118-.584-.331-.798l-.39-.391-3.651-3.65a1.12 1.12 0 0 0-.798-.329h-4.098a.704.704 0 0 1-.493-.2l-2.262-1.733c-.453.345-2.125 1.628-2.263 1.733a.705.705 0 0 1-.494.2h-8.719a.603.603 0 0 0-.604.603v26.565h-.371V-8.738c0-.538.437-.975.975-.975h8.719a.34.34 0 0 0 .241-.099l.018-.016c2.434-1.866 2.434-1.866 2.498-1.866h.062l2.435 1.866.018.016a.338.338 0 0 0 .24.099h4.098c.402 0 .779.156 1.06.44l4.041 4.04c.283.283.44.66.44 1.06V0H.062Z" style="fill:#fff;fill-opacity:1;fill-rule:nonzero;stroke:none" transform="translate(305.367 116.163)"/><path d="M0 0h.248v2.951a.712.712 0 0 1-.712.712h-10.619a.711.711 0 0 1-.71-.712v-19.584h.37V2.951a.34.34 0 0 0 .34.341H-.464a.34.34 0 0 0 .34-.341V0z" style="fill:#fff;fill-opacity:1;fill-rule:nonzero;stroke:none" transform="translate(298.935 158.586)"/><path d="m0 0-3.793 3.794c-.254.253-.59.393-.949.393h-4.164a.342.342 0 0 0-.243.102l-2.507 1.993-2.5-1.976-.018-.017a.344.344 0 0 0-.244-.102h-8.719a.975.975 0 0 1-.975-.974v-25.371h.371V3.213a.603.603 0 0 0 .604.601h8.719c.039 0 .077.004.113.013.146.024.282.09.387.194l2.261 1.788 2.251-1.788a.719.719 0 0 1 .387-.194.478.478 0 0 1 .113-.013h4.164l.039-.001c.051-.002.101-.006.15-.015l.002-.001a.956.956 0 0 0 .495-.266L-.263-.261c.403-.403.625-.937.625-1.507v-3.757h.37v3.757C.732-1.1.472-.472 0 0" style="fill:#fff;fill-opacity:1;fill-rule:nonzero;stroke:none" transform="translate(304.82 164.111)"/><path d="M0 0c0-.393.319-.711.711-.711H11.33c.392 0 .712.318.712.711v2.952h-.372V0a.34.34 0 0 0-.34-.341H.711A.34.34 0 0 0 .371 0v20.779H0Z" style="fill:#fff;fill-opacity:1;fill-rule:nonzero;stroke:none" transform="translate(287.142 113.21)"/><path d="M0 0h-10.619a.34.34 0 0 1-.34-.341v-19.584h.804V-.804h9.691v-2.488H.34v2.951A.34.34 0 0 1 0 0" style="fill:#001a54;fill-opacity:1;fill-rule:nonzero;stroke:none" transform="translate(298.472 161.878)"/><path d="M0 0h-.464v-2.489h-9.691v20.316h-.804V-2.952a.34.34 0 0 1 .34-.341H0a.34.34 0 0 1 .34.341V0Z" style="fill:#001a54;fill-opacity:1;fill-rule:nonzero;stroke:none" transform="translate(298.472 116.163)"/><path d="M0 0h-.464v-26.369H.34V0Z" style="fill:#001a54;fill-opacity:1;fill-rule:nonzero;stroke:none" transform="translate(298.472 150.559)"/><path d="M0 0h-.341v-4.173c0-.4-.155-.777-.438-1.06l-4.041-4.04a1.483 1.483 0 0 0-1.059-.44h-4.099a.336.336 0 0 1-.24-.099l-.019-.016-2.434-1.866h-.063c-.064 0-.064 0-2.497 1.866l-.019.016a.335.335 0 0 1-.24.099h-8.719a.975.975 0 0 0-.975.975v26.565h-.803V-8.738a1.78 1.78 0 0 1 1.778-1.779h8.57l2.238-1.595a.986.986 0 0 1 .667-.257c.239 0 .479.085.667.257l2.237 1.595h3.951c.614 0 1.193.241 1.628.675l4.04 4.04c.435.436.675 1.014.675 1.629V0z" style="fill:#001a54;fill-opacity:1;fill-rule:nonzero;stroke:none" transform="translate(305.893 116.163)"/><path d="m0 0-3.793 3.794a2.134 2.134 0 0 1-1.518.628h-4.002l-2.24 1.772a.99.99 0 0 1-1.354 0l-2.241-1.772h-8.558a1.778 1.778 0 0 1-1.777-1.777v-25.372h.803V2.645c0 .537.436.972.974.972h8.72c.091 0 .18.038.242.104l.019.016 2.499 1.977 2.509-1.993a.338.338 0 0 1 .242-.104h4.164c.36 0 .696-.138.95-.391L-.568-.568c.472-.472.731-1.1.731-1.768v-3.758h.805v3.758A3.28 3.28 0 0 1 0 0" style="fill:#001a54;fill-opacity:1;fill-rule:nonzero;stroke:none" transform="translate(305.389 164.68)"/><path d="M0 0h-.341v-26.369h.805V0Z" style="fill:#001a54;fill-opacity:1;fill-rule:nonzero;stroke:none" transform="translate(305.893 150.559)"/><path d="M0 0h-.361v-.538a.526.526 0 0 0-.526-.525h-10.619a.526.526 0 0 0-.525.525V21.49h-5.361V-5.075c0-.333.269-.603.603-.603h8.72a.71.71 0 0 0 .494-.2c.137-.105 1.809-1.388 2.262-1.733l2.263 1.733c.133.128.307.2.493.2h4.099c.301 0 .584.116.797.33l3.65 3.649v5.362H.712V.711A.711.711 0 0 0 0 0" style="fill:#007f41;fill-opacity:1;fill-rule:nonzero;stroke:none" transform="translate(298.472 112.5)"/><path d="m0 0-3.794 3.793a1.146 1.146 0 0 1-.816.339h-4.165a.522.522 0 0 0-.375.158l-2.376 1.886-2.385-1.886a.526.526 0 0 0-.376-.158h-7.966a.778.778 0 0 1-.45-.144v-24.46h5.362v18.337c0 .29.235.526.524.526h.177v.721c0 .393.319.712.711.712h10.618a.712.712 0 0 0 .712-.712v-2.951H.678v2.202C.678-1.019.438-.438 0 0" style="fill:#007f41;fill-opacity:1;fill-rule:nonzero;stroke:none" transform="translate(303.782 162.425)"/><path d="M299.184 124.189h5.277v26.369h-5.277z" style="fill:#007f41;fill-opacity:1;fill-rule:nonzero;stroke:none"/><path d="M304.46 124.189h.722v26.369h-.722z" style="fill:#00411d;fill-opacity:1;fill-rule:nonzero;stroke:none"/><path d="M0 0h-.186v-26.369h.372V0Z" style="fill:#fff;fill-opacity:1;fill-rule:nonzero;stroke:none" transform="translate(298.998 150.559)"/><path d="M0 0h-.246v-26.369h.37V0Z" style="fill:#fff;fill-opacity:1;fill-rule:nonzero;stroke:none" transform="translate(305.429 150.559)"/></g></svg>