<svg xmlns="http://www.w3.org/2000/svg" width="675.0822143554688px" height="398.3559875488281px" x="0px" y="0px" style="enable-background:new 0 0 1400 980" viewBox="0 0 675.0822143554688 398.3559875488281"><path fill="none" d="M0 0h675.082v398.356H0z" style="fill:#03061a;fill-opacity:0;pointer-events:none"/><defs><linearGradient id="a" x1="0" x2="1" y1="0" y2="0" gradientTransform="matrix(0 -.54148 -.54148 0 674.038 54.262)" gradientUnits="userSpaceOnUse" spreadMethod="pad"><stop offset="0" style="stop-opacity:1;stop-color:#00adef"/><stop offset="1" style="stop-opacity:1;stop-color:#176fc1"/></linearGradient></defs><g style="stroke-width:.208609"><g style="stroke-width:.208609"><path d="M0 0h.002Z" style="fill:#231f20;fill-opacity:1;fill-rule:nonzero;stroke:none;stroke-width:.208609" transform="matrix(26.22854 0 0 -26.22854 557.288 119.447)"/></g><g style="stroke-width:.208609"><path d="m0 0 1.222.115L.061.512c-2.764.945-4.481.6-5.674.139-.116.162-.24.321-.372.474l-.043.05a6.822 6.822 0 0 1-.967.909l-.021.016.295 1.59a.498.498 0 0 1-.097.413.463.463 0 0 1-.361.169h-3.157l.509.555h-1.502l-.506-.555h-2.243a.607.607 0 0 1-.59-.477l-.324-1.589a6.857 6.857 0 0 1-.314-.241l-.029-.022-.053-.041A6.706 6.706 0 0 1-16.63.527c-1.636.635-3.078 1.098-4.292 1.378l-1.092.252.865-.713c1.412-1.162 1.552-2.293 1.565-2.43-.045-.265-.453-2.587-.61-3.483l-.076-.436c-.235-.989-2.025-2.793-2.695-3.405l-.936-.855 1.311.449c2.299.791 4.269 1.39 5.864 1.782l.416-.491.111-.145.005.007.014-.017.049-.053.024-.026a6.812 6.812 0 0 1 .429-.445l.026-.023a5.122 5.122 0 0 1 .294-.261l.031-.027a6.596 6.596 0 0 1 2.266-1.222l.071-.022c.064-.021.128-.041.194-.058l-.007-.009.386-.078c.254-.051.509-.089.761-.11.032-.003.065-.004.097-.005l.059-.002c.068-.004.135-.008.202-.009a5.84 5.84 0 0 1 .495.001l.1.004c.455.024.893.089 1.301.193l.825.217-.072.026c.68.265 1.313.64 1.886 1.119.041.035.081.072.121.108l.086.078c.293.267.562.558.799.868l.078.026c.215.083.628.238.628.238.826.269 1.84.292 2.584.057l2.078-.655-1.861 1.132c-1.127.685-1.245 1.028-1.067 1.855h.001c.169.79-.15 1.333-.348 1.58C-2.348-.266-.096-.01 0 0" style="fill:#fff;fill-opacity:1;fill-rule:nonzero;stroke:none;stroke-width:.208609" transform="matrix(26.22854 0 0 -26.22854 635.009 133.033)"/></g><g style="stroke-width:.208609"><path d="M0 0c.025.069.047.148.058.238.056.448-.101 1.241-1.17 2.5-.028.037-2.699 3.503.516 7.376a6.456 6.456 0 0 1-1.747-1.052 6.383 6.383 0 0 1-2.274-4.374 6.421 6.421 0 0 1 .031-1.415l.019.007C-3.206 1.616-1.678.521 0 0" style="fill:#f68712;fill-opacity:1;fill-rule:nonzero;stroke:none;stroke-width:.208609" transform="matrix(26.22854 0 0 -26.22854 297.303 326.149)"/></g><g style="stroke-width:.208609"><path d="M0 0c.004.003.058.043.117.125-1.462.503-2.986 1.491-4.439 3.238A6.355 6.355 0 0 1-3.117.587l.008.01C-3.091.584-1.143-.861 0 0" style="fill:#f68712;fill-opacity:1;fill-rule:nonzero;stroke:none;stroke-width:.208609" transform="matrix(26.22854 0 0 -26.22854 291.36 334.933)"/></g><g style="stroke-width:.208609"><path d="M0 0c.518-.61.876-1.169 1.075-1.676v9.101a6.658 6.658 0 0 1-.589-.178C-2.679 3.542-.102.136 0 0" style="fill:#f68712;fill-opacity:1;fill-rule:nonzero;stroke:none;stroke-width:.208609" transform="matrix(26.22854 0 0 -26.22854 275.232 248.593)"/></g><g style="stroke-width:.208609"><path d="M0 0a1.46 1.46 0 0 0-.066-.275C.195-.345.461-.4.728-.439c.997 2.241 2.147 6.213.744 10.832a6.438 6.438 0 0 1-1.642-.191v-9.1C-.013.7.044.332 0 0" style="fill:#f68712;fill-opacity:1;fill-rule:nonzero;stroke:none;stroke-width:.208609" transform="matrix(26.22854 0 0 -26.22854 307.876 321.436)"/></g><g style="stroke-width:.208609"><path d="M0 0c-.535-2.388-2.757-3.503-2.952-3.597-.709-.378-1.051-.834-1.151-1.253.379.003.764.029 1.154.083a10.488 10.488 0 0 1 3.951 1.416 6.453 6.453 0 0 1-2.624 8.636C-.206 3.355.383 1.706 0 0" style="fill:#f68712;fill-opacity:1;fill-rule:nonzero;stroke:none;stroke-width:.208609" transform="matrix(26.22854 0 0 -26.22854 468.153 208.21)"/></g><g style="stroke-width:.208609"><path d="m0 0-.002-.003a.963.963 0 0 0-.255-.296c-1.056-.795-2.477.11-3.08.572A6.38 6.38 0 0 1-.083-1.781l.081.126c.17.271.465.773.786 1.466C.526-.141.264-.078 0 0" style="fill:#f68712;fill-opacity:1;fill-rule:nonzero;stroke:none;stroke-width:.208609" transform="matrix(26.22854 0 0 -26.22854 303.462 334.521)"/></g><g style="stroke-width:.208609"><path d="M0 0a1.615 1.615 0 0 0-.019.172c-.22.013-.444.036-.671.07a13.489 13.489 0 0 0-.84-1.617 6.49 6.49 0 0 1 2.897.069C.918-1.153.134-.782 0 0" style="fill:#f68712;fill-opacity:1;fill-rule:nonzero;stroke:none;stroke-width:.208609" transform="matrix(26.22854 0 0 -26.22854 350.828 347.313)"/></g><g style="stroke-width:.208609"><path d="M0 0c.002-.037.004-.073.008-.11C.1-.815 1.057-1.266 1.326-1.378a6.504 6.504 0 0 1 3.445 2.562C3.86.701 2.101-.044 0 0" style="fill:#f68712;fill-opacity:1;fill-rule:nonzero;stroke:none;stroke-width:.208609" transform="matrix(26.22854 0 0 -26.22854 359.698 343.221)"/></g><g style="stroke-width:.208609"><path d="M0 0a9.9 9.9 0 0 1 .573-.043c.08.536.464 1.107 1.333 1.539l.012.01.012.004c.024.013 2.308 1.131 2.857 3.406.386 1.591-.148 3.371-1.588 5.29a6.372 6.372 0 0 1-2.629.667C2.015 6.256.968 2.292 0 0" style="fill:#f68712;fill-opacity:1;fill-rule:nonzero;stroke:none;stroke-width:.208609" transform="matrix(26.22854 0 0 -26.22854 335.691 334.133)"/></g><g style="stroke-width:.208609"><path d="M0 0v-.003L.002 0Z" style="fill:#f68712;fill-opacity:1;fill-rule:nonzero;stroke:none;stroke-width:.208609" transform="matrix(26.22854 0 0 -26.22854 303.41 334.521)"/></g><g style="stroke-width:.208609"><path d="M0 0h.001-.002Z" style="fill:#f68712;fill-opacity:1;fill-rule:nonzero;stroke:none;stroke-width:.208609" transform="matrix(26.22854 0 0 -26.22854 394.871 383.985)"/></g><g style="stroke-width:.208609"><path d="M0 0c1.63-1.343 1.661-2.648 1.661-2.648 0-.02-.685-3.916-.694-3.966-.304-1.285-2.773-3.538-2.773-3.538.836.286 6.579 2.294 9.072 2.341.248-.105.512-.187.794-.244.227-.044.462-.072.699-.083.329-.014.822.048 1.504.194.298.016.51-.014.582-.051.615-.31 1.513-.701 2.323-.816.415-.081.903-.143 1.485-.034 0 0 .383.089.555.154l.64.242c.784.255 1.858.337 2.745.058-1.187.721-1.398 1.158-1.187 2.135.203.945-.401 1.476-.401 1.476 1.389 3.153 3.951 3.394 3.951 3.394-3.238 1.108-4.938.39-5.933-.038-1.363-.585-.482.063-.482.063-1.584-.548-3.758-1.745-3.758-1.745s-1.687 1.088-3.489.881c.955-.519.645-.748-.094-.388C7.2-2.613 3.241-.749 0 0" style="fill:#231f20;fill-opacity:1;fill-rule:nonzero;stroke:none;stroke-width:.208609" transform="matrix(26.22854 0 0 -26.22854 84.713 89.808)"/></g><g style="stroke-width:.208609"><path d="M639.243 55.977s-.593-3.561-.697-4.177c-.164-.988-1.313-2.01-1.554-2.215 1.192.408 4.851 1.588 7.321 1.603.239-.111.506-.197.796-.252.202-.04.412-.066.632-.077.351-.016.928.085 1.428.192.194.012.606.022.842-.097.546-.277 1.431-.671 2.199-.775.555-.112 1.139-.15 1.866.114a2.952 2.952 0 0 1 1.665 1.493c.338.712.211 1.22-.226 1.66-.346.348-.808.494-1.262.648-.04.012-.525.188-.554.547-.033.432.712.566.929.604.59.1.969-.139 1.348-.38.491.719 1.746 2.15 2.61 2.323-.158.032-.589.134-1.388.169-.72.045-1.548-.082-2.295-.305-.727-.218-1.562-.593-2.187-1.106 0 0-1.091-.88-.955-2.201.065-1.264 2.108-1.241 1.716-2.255-.19-.492-.764-.554-1.122-.51 0 0-.957.044-1.081.837.072.987.186 2.435.242 3.132 0 .002.002.003.002.003 0 .778 1.083 1.455 1.083 1.455-2.349-.962-2.669-1.376-2.669-1.376l-.29-3.521c-.196.095-.375.164-.375.468l.148 1.46-1.728.124s.441-.203.379-.706c0 0-.133-.918-.171-1.109-.344-.004-.608.095-.787.3-.327.374-.284.995-.23 1.33.074.445.262.794.546 1.008.267.202.608.278 1.011.232.561-.068.999-.58.999-.58s.26.74.07 1.078c-.19.339-2.223.889-2.223.889s.806-.334.212-.522a3.062 3.062 0 0 1-1.41-.569 2.447 2.447 0 0 1-.665-.755c-.124-.063-.326-.14-.473-.081l-1.496.255.147 1.355 1.237-.398c.508-.25.329-.485.329-.485l.816.712s-3.353 1.544-5.632 2.146c0 0 1.053-.741.897-1.685m2.111-2.516 1.06-.08c.478-.016.639-.254.691-.417a1.88 1.88 0 0 1 .157-.796c-.096-.199-.306-.443-.765-.443l-1.333-.02z" style="fill:url(#a);stroke:none;stroke-width:.208609" transform="matrix(26.22854 0 0 -26.22854 -16622.193 1625.718)"/></g><g style="stroke-width:.208609"><path d="M0 0c1.993-.591 4.538-1.677 5.063-1.913-.37-.232-.62-.575-.62-.575-.052.336-.5.48-.5.48l-1.234.4-.17-1.57 1.58-.27s.45-.089.661.236c.157.279.298.417.564.617.377.287.848.477 1.363.552.306.035.276.265.276.265 0 .083-.088.172-.228.251 1.369-.371 1.903-.841 1.903-.841l-.08-.821s-.373.404-.931.478c-.431.052-.796-.032-1.084-.25-.305-.231-.506-.602-.584-1.074-.057-.352-.102-1.005.255-1.412.198-.226.488-.339.862-.332l.082.002.015.08c.038.188.167 1.075.172 1.112.005.03.005.06.005.087 0 .211-.057.391-.184.509.46-.027 1.175-.087 1.319-.095-.019-.179-.125-1.284-.125-1.284 0-.294.237-.432.519-.571 0 0 .322 3.401.329 3.491.132.093.624.478 2.004 1.086-.341-.299-.58-.632-.613-1.113l-.244-3.241c0-.746 1.091-.827 1.171-.832.464-.055 1.028.066 1.224.574.228.588-.214.879-.689 1.16-.467.278-.952.563-.98 1.139-.123 1.251.959 2.105.971 2.114.517.444 1.23.839 2.06 1.089.79.237 1.592.344 2.259.301h.003c.422-.018.74-.056.97-.092-.637-.242-1.63-1.125-2.209-2.09-.485.297-.861.4-1.348.355-.235-.02-.969-.18-1.08-.774-.071-.378.436-.551.742-.673.263-.104.858-.289 1.174-.607.441-.442.504-.92.207-1.545a2.83 2.83 0 0 0-1.609-1.442c-.742-.269-1.331-.206-1.81-.109h-.004l-.003.001c-.738.099-1.586.47-2.167.763-.252.128-.669.124-.894.109l-.007-.001-.008-.001c-.637-.137-1.122-.204-1.401-.189-.21.008-.418.033-.618.073-.28.054-.54.137-.773.245l-.02.01h-.024C3.279-6.153.053-7.122-1.394-7.597c.441.434 1.113 1.199 1.24 1.953l.696 4.178C.678-.767 0 0 0 0m8.688-3.746.159 1.44c-1.213.955-2.784 1.04-2.784 1.04.794-.338.719-.511.719-.513 0-.008-.011-.057-.116-.068-1.065-.092-1.781-.748-1.983-1.136-.183-.328-.513-.27-.513-.27l-1.411.242c.017.146.104.949.124 1.136.192-.062 1-.312 1-.312.528-.165.49-.795.49-.795a2.918 2.918 0 0 0 1.124 1.084C5.463-1.882 1.747-.179-.656.4c0 0 .934-.931.879-1.833l-.694-4.176s-.3-1.401-1.805-2.5c1.081.37 5.294 1.747 7.77 1.769.242-.11.509-.194.796-.251.21-.041.427-.067.647-.078.3-.013.786.051 1.445.193.169.01.569.023.783-.086.594-.302 1.463-.681 2.226-.784.508-.103 1.075-.167 1.901.118.81.284 1.451.832 1.805 1.544.351.705.269 1.269-.257 1.775-.368.351-1.142.604-1.305.666-.215.083-.637.17-.558.497.081.339.558.512.89.515.623.009 1.002-.209 1.37-.567.516 1.159 2.093 2.4 2.83 2.546-.677.226-1.663.283-1.663.283a7.597 7.597 0 0 1-2.329-.309c-.503-.151-1.395-.498-2.125-1.124-.044-.034-1.178-.927-1.043-2.289.034-.681.587-1.009 1.077-1.297.525-.311.756-.505.599-.914-.201-.518-.882-.462-1.017-.446h-.007c-.036.003-.983.06-.983.656.071.969.239 3.211.239 3.211s.06.786 1.243 1.646c-2.064-.788-3.023-1.51-3.023-1.51s-.256-2.954-.28-3.255c-.181.076-.181.288-.181.454l.151 1.251-2.006.1c.02-.007.451-.334.451-.702l-.003-.061c-.003-.005-.107-.728-.156-1.015-.27.011-.483.095-.626.259-.191.219-.243.533-.243.815 0 .163.017.315.036.431.068.42.243.747.508.947.243.185.559.256.938.211 0 0 .926-.154 1.064-.836" style="fill:#fff;fill-opacity:1;fill-rule:nonzero;stroke:none;stroke-width:.208609" transform="matrix(26.22854 0 0 -26.22854 132.601 119.5)"/></g><g style="stroke-width:.208609"><path d="m0 0 .963-.075c.401-.013.546-.186.597-.335 0-.277.051-.534.148-.768-.126-.232-.344-.351-.654-.351l-1.222-.018L0 0m-.189.117-.204-1.869 1.45.021h-.003c.51 0 .746.274.856.502l.02.042-.02.043a1.776 1.776 0 0 0-.148.754v.014l-.005.016c-.056.173-.232.469-.783.487l-1.055.08-.097.009z" style="fill:#fff;fill-opacity:1;fill-rule:nonzero;stroke:none;stroke-width:.208609" transform="matrix(26.22854 0 0 -26.22854 201.931 226.315)"/></g><g style="stroke-width:.208609"><path d="M0 0s-.149-1.146 1.017-1.387c0 0-.721.212-.832 1.379" style="fill:#fff;fill-opacity:1;fill-rule:nonzero;stroke:none;stroke-width:.208609" transform="matrix(26.22854 0 0 -26.22854 243.296 236.366)"/></g><g style="stroke-width:.208609"><path d="M0 0s-1.067.37-1.346.876c0 0 .227-.777 1.329-1.074z" style="fill:#fff;fill-opacity:1;fill-rule:nonzero;stroke:none;stroke-width:.208609" transform="matrix(26.22854 0 0 -26.22854 421.823 283.126)"/></g><g style="stroke-width:.208609"><path d="M0 0a.34.34 0 0 1 .32.265L.947 3.65c.03.147-.064.266-.199.266H-6.15a.344.344 0 0 1-.332-.266l-.69-3.385C-7.202.118-7.107 0-6.961 0Z" style="fill:#254aa5;fill-opacity:1;fill-rule:nonzero;stroke:none;stroke-width:.208609" transform="matrix(26.22854 0 0 -26.22854 427.082 130.615)"/></g><g style="stroke-width:.208609"><path d="m0 0-.267-1.304s-.182-.751.806-.751c0 0 .868-.029 1.109.661l.08.386H1.05l-.063-.306S.92-1.571.642-1.551c0 0-.288-.029-.225.208L.691 0S.7.221 1.01.246c0 0 .282 0 .253-.217l-.069-.336h.677l.069.336s.134.722-.831.702C1.109.731.184.691 0 0" style="fill:#fff;fill-opacity:1;fill-rule:nonzero;stroke:none;stroke-width:.208609" transform="matrix(26.22854 0 0 -26.22854 323.383 64.448)"/></g><g style="stroke-width:.208609"><path d="m0 0-.267-1.304s-.183-.751.805-.751c0 0 .868-.029 1.109.661l.079.386h-.678l-.062-.306S.919-1.571.64-1.551c0 0-.287-.029-.226.208L.69 0s.008.221.319.246c0 0 .282 0 .252-.217l-.069-.336h.678l.068.336s.133.722-.83.702C1.108.731.183.691 0 0" style="fill:#fff;fill-opacity:1;fill-rule:nonzero;stroke:none;stroke-width:.208609" transform="matrix(26.22854 0 0 -26.22854 377.528 64.448)"/></g><g style="stroke-width:.208609"><path d="M0 0h-.784l-1.385-1.51.221.984-.715.002-.613-2.844h.716l.164.794.186.213.246-1.008h.709l-.411 1.549z" style="fill:#fff;fill-opacity:1;fill-rule:nonzero;stroke:none;stroke-width:.208609" transform="matrix(26.22854 0 0 -26.22854 347.95 28.18)"/></g><g style="stroke-width:.208609"><path d="M0 0h-.786l-.516-.565.784.001z" style="fill:#ed1c24;fill-opacity:1;fill-rule:nonzero;stroke:none;stroke-width:.208609" transform="matrix(26.22854 0 0 -26.22854 361.518 13.353)"/></g><g style="stroke-width:.208609"><path d="M0 0s-.037.893.533 1.651l-.061.185-.212-.235C-.012 1.18-.196 1.145-.211.205Z" style="fill:#fff;fill-opacity:1;fill-rule:nonzero;stroke:none;stroke-width:.208609" transform="matrix(26.22854 0 0 -26.22854 248.114 240.53)"/></g><g style="stroke-width:.208609"><path d="M0 0s-.698-.699-.567-1.852l.162.032S-.484-.691.186-.058z" style="fill:#fff;fill-opacity:1;fill-rule:nonzero;stroke:none;stroke-width:.208609" transform="matrix(26.22854 0 0 -26.22854 257.874 193.656)"/></g><g style="stroke-width:.208609"><path d="M0 0s-.368-.4-.393-1.459l.215-.02s-.017.768.422 1.442z" style="fill:#231f20;fill-opacity:1;fill-rule:nonzero;stroke:none;stroke-width:.208609" transform="matrix(26.22854 0 0 -26.22854 247.136 197.802)"/></g><g style="stroke-width:.208609"><path d="M0 0s-.206-.373-.271-1.143c0 0-.026.127-.221.175 0 0 .124.59.271.923 0 0 .123-.013.221.045" style="fill:#fff;fill-opacity:1;fill-rule:nonzero;stroke:none;stroke-width:.208609" transform="matrix(26.22854 0 0 -26.22854 243.896 203.13)"/></g><g style="stroke-width:.208609"><path d="M0 0s.127-.028.2.006c0 0-.096-.236-.137-.61 0 0-.042.052-.216.057z" style="fill:#127bca;fill-opacity:1;fill-rule:nonzero;stroke:none;stroke-width:.208609" transform="matrix(26.22854 0 0 -26.22854 232.091 208.545)"/></g></g></svg>