<svg xmlns="http://www.w3.org/2000/svg" xmlns:xlink="http://www.w3.org/1999/xlink" xml:space="preserve" id="레이어_1" x="0px" y="0px" style="enable-background:new 0 0 413.1 553.1" version="1.1" viewBox="0 0 413.1 553.1"><style>.st1{fill:#223e63}</style><defs><path id="SVGID_1_" d="M0 0h413.1v553.1H0z"/></defs><clipPath id="SVGID_00000119814301143986347060000002469702696522020781_"><use xlink:href="#SVGID_1_" style="overflow:visible"/></clipPath><g style="clip-path:url(#SVGID_00000119814301143986347060000002469702696522020781_)"><path d="M348.8 457.2c35.4-36 56.2-84.1 58.5-135l5.7-4.1-5.5-8c-.3-39.6-12.1-78.2-33.7-111.3L361 179.4l-18.8 34.4c-1 1.9-2 3.7-3.1 5.6-10.7-9.6-22.4-18-34.9-25.1l-3.1-1.7.6-4.1 23.8-29.3-17.6-7.4c-1.3-.5-2.7-1-4-1.4v-23.7l24.2-28.9-17.9-7.5c-9.1-3.8-18.4-7.2-27.9-10V77c0-20.3-7.9-39.8-22.1-54.3A73.672 73.672 0 0 0 207 0h-.8c-20.1 0-39.2 8.2-53.3 22.5-14.2 14.5-22.1 34-22.1 54.3v3.3c-9.5 2.8-18.8 6.1-27.9 10L85 97.6l24.2 28.9v23.7c-1.8.6-3.1 1-4 1.4L87.6 159l23.8 29.3.6 4.1-3 1.7c-12.5 7.1-24.2 15.5-34.9 25.1-1-1.9-2.1-3.7-3.1-5.6l-19-34.4-12.8 19.4C17.5 231.9 5.8 270.5 5.4 310.1l-5.5 8 5.7 4.1c2.3 50.9 23.2 99 58.5 135 2.8 2.8 5.8 5.8 9 8.7l.6.6c-2.7 6.9-6 13.7-9.8 20.1l-7.3 12.2L95.3 523l7.3-12.2c3.3-5.6 6.4-11.4 9.1-17.3 13.4 7.3 27.6 13 42.3 17l5.7 42.9h93.4l5.7-42.9c14.7-4 28.9-9.7 42.3-17 2.7 5.9 5.8 11.7 9.1 17.3l7.3 12.2 38.6-24.1-7.3-12.2c-3.8-6.4-7-13.2-9.7-20.1l.6-.6c3.3-3 6.4-5.9 9.1-8.8zm-23-73.6c.3-9.3 1.4-18.6 3.1-27.7l1.1-.2c2.1-.4 14.6-3.9 28.9-9-4.5 25.2-15.5 48.7-32 68.3-1.2-10.4-1.5-20.9-1.1-31.4zm20.3-80.3c3.1-6.7 6.6-13.9 11-22.1l1.6-2.9c1.3 6 2.3 12.1 2.9 18.2-4.8 2.2-10 4.5-15.5 6.8zm-59.7 145.2c-6.6 4-13.5 7.6-20.7 10.6l11.9-89.4 3.7-.7c-.4 4.3-.7 8.6-.8 13-.8 22.3 1.2 44.7 5.9 66.5zm-2.3-127.3 10.4-78.2c7.7 5.4 14.9 11.5 21.7 18-10.1 18.7-18.5 38.3-25 58.6l-7.1 1.6zm-64.9 149.2c-8.4.7-16.9.7-25.4 0l-1.5-14.6 7.1-79.8c2.1 0 4.4.1 7.1.1 2.7 0 5 0 7-.1l7.1 79.8-1.4 14.6zm-12.7-140.3h-3.8l3.8-45.7 3.8 45.7h-3.8zm-87.9-87 10.4 78.2c-2.4-.5-4.8-1.1-7.1-1.6-6.5-20.2-14.9-39.8-25-58.5 6.8-6.7 14-12.7 21.7-18.1zm14 138.8c-.2-4.3-.4-8.7-.8-13l3.7.7 11.9 89.4c-7.2-3-14.1-6.5-20.7-10.6 4.7-21.7 6.7-44.1 5.9-66.5zm-81-85.5c.6-6.1 1.5-12.2 2.9-18.2L56 281c3.9 7.3 7.6 14.7 11 22.1-5.2-2-10.3-4.2-15.4-6.7zm31.6 59.3 1.1.2c1.7 9.2 2.7 18.4 3.1 27.7.4 10.5 0 21-1.1 31.4-16.5-19.6-27.5-43.2-32-68.3 14.3 5.1 26.7 8.5 28.9 9z" class="st1"/><path d="M344.1 452.3c35-35.5 55.3-83.4 56.6-133.8l3-2.1-2.8-4.2c.1-39-11.3-77.1-32.7-109.6l-6.6-10.1-13.4 24.6c-2.4 4.4-4.9 8.8-7.3 13.2-12-11.7-25.4-21.8-39.9-30l-7.1-4 1.4-10.7 19.2-23.6-9.1-3.9c-1.3-.6-4.2-1.5-8.2-2.6v-31.4l19.8-23.7-9.2-3.9c-10.4-4.4-21.2-8.1-32.1-11.1v-8.6c0-18.5-7.2-36.3-20.1-49.4C242.7 14.3 225.2 6.9 207 6.9h-.9c-9 0-17.9 1.8-26.2 5.3s-15.9 8.7-22.2 15.2c-6.4 6.5-11.4 14.2-14.9 22.7-3.4 8.5-5.2 17.6-5.2 26.8v8.6c-10.9 3-21.7 6.7-32.1 11.1l-9.3 3.9 19.8 23.7v31.4c-3.9 1.1-6.9 2-8.2 2.6l-9.1 3.9 19.2 23.6 1.4 10.7-7.1 4c-14.5 8.3-27.9 18.3-39.9 30-2.4-4.4-4.9-8.8-7.3-13.2l-13.4-24.6-6.6 10.1c-21.4 32.6-32.7 70.7-32.6 109.6l-2.8 4.2 3 2.1C13.8 368.9 34 416.8 69 452.3c2.7 2.8 5.6 5.6 8.7 8.4l4.2 3.8c-3.2 8.9-7.2 17.5-12.1 25.7l-3.8 6.3 27.2 16.9 3.8-6.3c4.5-7.5 8.4-15.4 11.7-23.5 16 9.6 33.4 16.7 51.6 21.2l5.5 41.5h81.6l5.5-41.5c18.1-4.5 35.5-11.6 51.6-21.2 3.3 8.1 7.2 16 11.7 23.5l3.8 6.4 27.2-16.9-3.8-6.3c-4.8-8.2-8.9-16.8-12-25.7l4.1-3.7c2.9-3 5.9-5.8 8.6-8.6zM52.3 260.2l9.6 17.6c6.6 12.1 12.4 24.7 17.5 37.5-12-4.1-23.7-9.1-35.1-14.8 1.1-13.7 3.8-27.2 8-40.3zm38.6 169.9c-25.2-24.4-40.4-55.9-45.3-93.9 12.7 5 25.7 9.3 38.9 12.8l5.4 1.2c2.3 11 3.7 22.1 4.1 33.3.6 15.5-.5 31.2-3.1 46.6zm-2.4-170.3c10-10.3 21.2-19.4 33.3-27.2l2-1.3 13.1 98.6c-6.8-1.3-13.6-2.8-20.4-4.5-7.2-24.7-17.9-46.8-28-65.6zm30.5 192c5.4-22.8 7.7-46.2 6.8-69.6-.3-7.3-.9-14.7-1.9-22 5.8 1.3 11.7 2.5 17.5 3.6l14.1 105.8c-12.9-4.3-25.2-10.3-36.5-17.8zm87.1-243.1h.9l10.8 128c-5.3.3-8.1.4-11.2.3-3.7 0-7.5-.1-11.2-.3l10.7-128zm-41.8 89.1L175 239l3.7 96.8c-3.2-.3-6.3-.6-9.5-.9l-4.9-37.1zm8 69.5 8.7 1.1.6 45.7-9.3-46.8zm48.1 146.5h-27.7l-.5-4c4.8.3 9.6.5 14.4.5 4.8 0 9.6-.2 14.4-.5l-.6 4zm5-37.1c-12.5 1.5-25.1 1.5-37.7 0l-2.2-20.8 7.8-86.9c4.6.2 8 .3 13.2.3 5.1 0 8.6-.2 13.2-.3l7.8 86.9-2.1 20.8zm6.1-62.7.6-45.7 8.7-1.1c0 .1-9.3 46.8-9.3 46.8zm12.4-79.2c-3.2.4-6.4.7-9.5.9l3.7-96.8 10.7 58.8-4.9 37.1zm107.3-57 9.6-17.6c4.3 13.1 6.9 26.6 7.9 40.3-11.3 5.7-23 10.6-35.1 14.8 5.1-12.8 11-25.3 17.6-37.5zm-93.7 191.8 14.1-105.8c5.9-1.1 11.8-2.3 17.5-3.6-1 7.3-1.6 14.6-1.9 22-.9 23.4 1.4 46.8 6.8 69.6-11.3 7.5-23.6 13.4-36.5 17.8zm39-144.2c-6.5 1.6-13.4 3.1-20.4 4.5l13.1-98.7 2 1.3c12.1 7.8 23.3 16.9 33.3 27.2-10 18.9-20.8 41-28 65.7zm25.8 104.7c-2.7-15.4-3.7-31-3.2-46.7.4-11.2 1.8-22.3 4.1-33.3l5.4-1.2c13.2-3.5 26.2-7.7 38.9-12.8-4.9 38.1-20.1 69.6-45.2 94z" style="fill:#72a3cd"/><path d="M393.2 312.5c.1-37.6-10.8-74.4-31.4-105.8l-7.7 14c-3.4 6.1-6.8 12.3-10.2 18.2l-1.9 3.5c-13.1-14.1-28.3-26.2-45-35.7l-2.3 19.5c14.1 9.1 27 19.9 38.3 32.4-12.3 22.5-23.8 46.2-31.1 72.8-10.8 2.8-22.7 5.4-34.8 7.4l20.8-156.5 14.2-17.5c-3.6-1.5-27.2-7.7-43.2-11.4l2.6-40.8c3.5.9 7.1 1.8 10.6 2.8v27.9c5.8 1.5 11.5 3.2 17.2 5v-27.2l15.1-17.9C291 97.6 277.2 93.1 263 89.9V74.5c-.2-15-6.3-29.4-16.9-40.1C235.7 23.9 221.4 18 206.6 18s-29 5.9-39.6 16.5c-10.6 10.7-16.6 25-16.9 40.1V90c-14.2 3.2-28.1 7.7-41.5 13.4l15 18v27.2c5.7-1.8 11.4-3.5 17.2-5v-27.9c3.5-1 7-2 10.5-2.8l2.7 40.9c-16 3.7-39.6 9.9-43.2 11.4l14.2 17.5 21 156.4c-11.7-1.9-23.3-4.4-34.8-7.4-7.3-26.7-18.8-50.3-31.1-72.8 11.2-12.5 24.1-23.5 38.2-32.6l-2.3-19.5c-15.3 8.7-29.2 19.4-41.5 32-1.2 1.2-2.3 2.5-3.5 3.7l-2-3.5c-3.4-5.9-6.8-12.1-10.2-18.2l-7.7-14C30.6 238.2 19.7 275 19.8 312.6v2c.4 49.8 20 97.3 54.6 132.4 2.7 2.8 5.5 5.5 8.4 8.1l5.4-17.7c-31.3-29.1-47.7-67.3-50.8-113 15.8 7 32.1 12.7 48.8 17.2-1.3-5.2-4.1-14.2-5.3-18.1-15.1-5-29.7-11.2-43.8-18.7.9-21.3 5.7-42.2 14.1-61.7.9 1.5 1.8 3 2.7 4.6 1.7 3 3.3 5.9 5 8.8l9.3 16.9C85.7 306.3 100 340 101.6 383c1.5 40.6-8 82-25.3 111l14.7 9.2c5.8-9.7 10.7-19.9 14.5-30.5 18.5 12.4 39.1 21.2 60.9 26l5.3 40.2h69.8l5.3-40.2c21.7-4.8 42.4-13.6 60.9-26 3.8 10.6 8.6 20.9 14.3 30.6l14.7-9.2c-17.3-28.9-26.7-70.4-25.3-111 1.6-42.9 15.8-76.6 33.4-109.6l9.2-16.9c1.7-2.9 3.3-5.9 5-8.8.9-1.6 1.8-3.1 2.7-4.6 8.4 19.5 13.2 40.5 14.1 61.7-14 7.4-28.7 13.7-43.8 18.6-1.2 3.9-4 12.9-5.3 18.1 16.7-4.4 33-10.1 48.8-17.1-3.1 45.7-19.6 83.9-50.8 113l5.4 17.7c2.9-2.6 5.7-5.2 8.4-8.1 34.6-35.1 54.2-82.7 54.6-132.4 0-.8.1-1.6.1-2.2zM249.7 151.4c-1.6-.3-2.9-.6-3.8-.7-12.6-2.6-25.4-3.9-38.2-4l.9-40.7c13.5.2 26.9 1.5 40.2 4l.9 41.4zm-1.3-76.3v12c-10.2-9.5-16.4-22.5-17.6-36.3 5.3 2.4 10.3 5.5 14.8 9.2 1.9 4.8 2.8 9.9 2.8 15.1zm-17.6-34.6c5.2 3.8 9.6 8.8 12.6 14.5-4-2.9-8.3-5.3-12.8-7.2-.1-2.5 0-5 .2-7.3zm-20.6-3.7c0-1.4.2-2.8.6-4.1 5 .5 9.9 2 14.4 4.3 0 3 .1 5.9.5 8.9-5.1-1.6-10.3-2.5-15.6-2.7 0 .1.1-6.4.1-6.4zm15.9 12.3c2 14 8.2 27.1 18 37.3-11.6-1.7-23.2-2.6-34.9-2.8l.9-37.5c5.4.1 10.8 1.1 16 3zM187.8 37c4.5-2.3 9.4-3.8 14.4-4.3.4 1.3.6 2.7.6 4.1l.2 6.7c-5.4.6-10.8 1.9-15.8 4 .4-3.5.7-7 .6-10.5zm-5.5 3.5c.3 3.1.3 6.2.1 9.3-5.5 2.8-10.5 6.4-15 10.6 2.9-8 8.1-15 14.9-20v.1zm-16.4 24.7c4.8-4.9 10.2-9 16.2-12.3-1.6 13-7.7 25.1-17.3 34.1V75c-.1-3.3.3-6.6 1.1-9.8zm20.8-14.6c5.2-2.3 10.7-3.7 16.4-4.3l.9 37.3c-11.7.1-23.3 1-34.9 2.8 9.3-9.9 15.4-22.4 17.6-35.8 0 .1 0 0 0 0zm-22.5 59.3c13.3-2.5 26.7-3.8 40.2-4l.9 40.7c-12.8.1-25.6 1.5-38.2 4-.9.2-2.2.4-3.8.7l.9-41.4zm-22.5 67c4.5-1.3 9.1-2.5 13.6-3.5l5.6 86.9 1.9-88.4c14.2-2.8 28.6-4.2 43-4.4l.7 30.5.7-30.5c14.4.1 28.8 1.6 42.9 4.3l1.9 88.4 5.6-86.8c4.6 1.1 9.1 2.2 13.6 3.5l-21.7 164.6c-14.2 1.8-28.6 2.7-42.9 2.9-14.4-.1-28.7-1-43-2.7l-21.9-164.8zM111 455.1c6.2-23.7 8.9-48.1 8-72.6-.4-10.8-1.6-21.5-3.5-32.1 10.9 2.9 21.8 5.3 33 7L164.8 480c-19.3-5.1-37.5-13.5-53.8-24.9zm115.9 66.1h-40.8l-2.2-19.7c7.5.9 15 1.3 22.5 1.3s15.1-.4 22.5-1.3l-2 19.7zm4.8-37.8c-8.3 1.2-16.7 1.7-25.2 1.7-8.4 0-16.8-.6-25.2-1.7L165 359.8c15.7 1.7 32.3 2 41.5 2 9.2 0 25.8-.3 41.5-2l-16.3 123.6zm16.7-3.4 16.3-122.6c11.1-1.8 22.1-4.1 33-7-2 10.6-3.1 21.3-3.5 32.1-.9 24.5 1.7 49 7.9 72.6-16.3 11.4-34.5 19.8-53.7 24.9 0-.1 0 0 0 0z" class="st1"/></g></svg>