<svg xmlns="http://www.w3.org/2000/svg" xml:space="preserve" width="1525.438px" height="1124.742px" x="0px" y="0px" viewBox="0 0 1525.438 1124.742"><path fill="#E1002A" stroke="#FFF" stroke-linejoin="round" stroke-width="82.1379" d="M1303.265 562.4c0 287.928-232.634 521.272-519.484 521.272-286.835 0-519.469-233.345-519.469-521.272 0-287.979 232.634-521.331 519.469-521.331 286.85 0 519.484 233.351 519.484 521.331z"/><path fill="#FFF" stroke="#FFF" stroke-linejoin="round" stroke-width="82.1379" d="M779.542 206.926c-196.358 0-355.43 159.167-355.43 355.474 0 196.271 159.071 355.423 355.43 355.423 196.275 0 355.451-159.152 355.451-355.423 0-196.307-159.176-355.474-355.451-355.474z"/><g fill="#FFF" stroke="#FFF" stroke-linejoin="round" stroke-width="82.1379"><path d="M459.626 288.346c2.865 2.3 4.881 4.938 5.951 7.928 1.172 2.983 1.327 6.193.586 9.425-.777 3.283-2.346 6.538-4.793 9.659-.638.895-1.612 1.847-2.631 3.049-1.136 1.165-2.777 2.578-4.99 4.222a45.172 45.172 0 0 1-7.623 4.572l-11.433-8.897c3.093-1.04 5.966-2.125 8.502-3.459 2.594-1.319 4.786-3.121 6.646-5.496 1.62-2.146 2.338-3.885 2.052-5.123-.351-1.238-.784-2.146-1.517-2.704-1.216-.967-2.683-1.229-4.449-.835-1.692.455-3.847 1.334-6.441 2.697-2.836 1.473-5.533 2.595-8.164 3.357-2.682.747-5.379.908-8.156.527-2.734-.396-5.431-1.613-8.018-3.635-2.5-1.95-4.39-4.324-5.563-7.021-1.187-2.623-1.429-5.577-.842-8.882.586-3.21 2.103-6.464 4.646-9.755 1.854-2.337 3.811-4.338 5.826-5.9 2.096-1.641 3.913-2.826 5.613-3.671 1.613-.782 2.829-1.268 3.459-1.466l11.058 8.553c-2.74.66-5.43 1.612-8.215 2.881-2.727 1.273-4.991 3.1-6.889 5.532-1.172 1.562-1.759 3.005-1.664 4.222.154 1.253.741 2.227 1.664 3.004.923.689 2.008.982 3.18.762 1.305-.175 3.122-.762 5.467-1.883 4.192-1.897 7.769-3.298 10.597-4.206 2.836-.894 5.57-1.21 8.215-.946 2.642.256 5.273 1.458 7.926 3.489zM507.693 263.325l-28.281 28.566-42.08-41.661 27.752-28.083 8.501 8.311-16.511 16.672 7.769 7.726 15.682-15.933 8.539 8.377-15.771 15.879 8.933 8.896 17.009-17.117 8.458 8.367zM540.43 199.774c3.415 4.411 5.511 9.16 6.543 14.231 1.034 5.042.536 10.128-1.421 15.008-1.956 4.882-5.474 9.374-10.634 13.353-5.239 3.958-10.553 6.201-15.888 6.771-5.379.506-10.304-.41-14.914-2.755-4.58-2.345-8.479-5.636-11.717-9.834-3.225-4.267-5.372-8.839-6.464-13.925-1.055-4.932-.579-9.98 1.334-15.037 1.905-4.984 5.481-9.484 10.714-13.484 3.906-2.99 7.856-5.043 11.909-6.121 4.052-1.047 7.958-1.209 11.571-.527 3.672.711 7.138 2.148 10.407 4.273 3.239 2.148 6.111 4.852 8.56 8.047zm-13.053 9.98a18.584 18.584 0 0 0-4.346-4.308c-1.612-1.063-3.275-1.833-5.034-2.171a12.745 12.745 0 0 0-5.365.133c-1.81.461-3.627 1.378-5.43 2.696-3.474 2.595-5.27 5.796-5.569 9.505-.191 3.716 1.077 7.41 3.81 10.971 2.785 3.578 6.017 5.761 9.615 6.507 3.672.689 7.241-.226 10.612-2.783 2.294-1.862 3.972-3.862 4.793-6.171.879-2.244 1.026-4.633.439-7.153-.484-2.418-1.656-4.866-3.525-7.226zM600.779 170.057c2.426 4.448 3.759 8.678 3.958 12.633.19 3.922-.491 7.505-1.957 10.62-1.523 3.231-3.43 5.937-5.914 8.311-2.456 2.315-5.035 4.243-7.878 5.774-4.001 2.161-8.2 3.488-12.751 4.03-4.631.476-9.131-.38-13.572-2.623-4.543-2.243-8.325-6.259-11.389-12.042l-15.492-28.762 14.07-7.594 13.279 24.652c1.876 3.475 3.84 6.084 5.935 7.813 2.097 1.788 4.237 2.74 6.391 2.924 2.14.199 4.295-.285 6.493-1.501 2.052-1.077 3.576-2.595 4.698-4.501 1.07-1.846 1.37-4.162 1.114-6.888-.329-2.712-1.399-5.761-3.269-9.204l-13.33-24.779 14.173-7.613 15.441 28.75zM661.751 175.604 623.783 189.5l-20.329-55.595 15.052-5.504 15.493 42.248 22.865-8.397 4.887 13.352zM727.268 144.276c.683 3.627.389 6.99-.813 9.898-1.29 2.955-3.247 5.424-5.98 7.33-2.742 1.979-6.067 3.246-10.018 3.906-1.019.189-2.338.345-4.009.483-1.612.153-3.767.08-6.501-.206a50.613 50.613 0 0 1-8.684-1.691l-2.492-14.319a58.14 58.14 0 0 0 8.633 3.194c2.741.748 5.629.895 8.604.381 2.652-.462 4.294-1.23 4.938-2.396.586-1.122.836-2.126.682-3.013-.183-1.561-1.172-2.785-2.697-3.605-1.605-.888-3.715-1.642-6.53-2.33-3.092-.828-5.92-1.906-8.324-3.107-2.478-1.188-4.573-2.895-6.332-5.027-1.811-2.155-2.99-4.822-3.518-8.076-.586-3.195-.336-6.111.63-8.896.938-2.785 2.639-5.167 5.321-7.152 2.543-2.009 5.855-3.357 9.967-4.091a34.4 34.4 0 0 1 8.311-.481c2.624.24 4.785.614 6.501 1.083 1.794.528 2.975.908 3.715 1.291l2.345 13.651c-2.448-1.326-5.086-2.477-7.973-3.318-2.888-.91-5.819-1.115-8.838-.646-1.957.396-3.328 1.069-4.061 2.037-.674.968-.924 2.125-.732 3.327.197 1.172.783 2.119 1.817 2.799 1.019.652 2.785 1.408 5.276 2.272 4.382 1.407 7.958 2.712 10.641 3.979 2.733 1.268 4.939 2.879 6.698 4.844 1.701 2.008 2.932 4.646 3.423 7.879zM795.474 157.913l-19.537.734-21.399-26.926 1.078 27.629-16.13.615-2.155-59.141 16.078-.586.924 26.427 18.372-27.115 17.39-.66-18.761 28.405 24.14 30.618zM881.085 170.46l-19.312-3.431-15.191-30.867-4.896 27.32-15.764-2.764 10.355-58.275 15.771 2.734-4.589 26.081 23.604-22.718 17.201 3.057-24.434 23.817 17.255 35.046zM939.514 190.649l-13.536-4.719-15.228-40.195-10.817 31.137-15.104-5.226 19.501-55.908 13.44 4.669 15.199 40.012 10.803-30.917 15.234 5.254-19.492 55.893zM964.526 203.481l-14.423-7.027 26.147-53.103 14.416 7.065-26.14 53.065zM1018.625 231.081c-1.231-.198-2.258-.426-3.122-.586-.945-.176-1.678-.396-2.506-.543a68.666 68.666 0 0 1-3.225-.938c-2.485-.747-4.749-1.647-6.984-2.667a49.903 49.903 0 0 1-6.706-3.723c-4.587-2.881-8.253-6.426-10.934-10.736-2.683-4.301-4.009-9.125-3.812-14.525.146-5.4 1.949-10.889 5.512-16.583 2.344-3.636 5.195-6.794 8.655-9.646 3.421-2.711 7.034-4.396 10.89-4.945 3.188-.5 6.016-.529 8.713-.111 2.684.354 5.086 1.049 7.27 2.039 2.199.908 4.5 2.16 6.874 3.678 3.972 2.47 7.036 4.888 9.25 7.197 2.153 2.27 4.404 4.91 6.793 8.002l-7.482 11.792c-1.209-2.61-2.69-5.064-4.331-7.409-1.766-2.316-4.266-4.574-7.738-6.729-3.855-2.469-7.57-3.635-10.942-3.444-3.399.133-6.259 1.07-8.641 2.771-2.351 1.692-4.198 3.677-5.577 5.796-1.619 2.537-2.535 5.174-2.828 7.967-.293 2.807.234 5.539 1.561 8.207 1.371 2.631 3.475 4.896 6.553 6.823 1.699 1.091 3.773 1.985 6.061 2.674l3.707-5.862-6.053-3.854 6.347-10.114 17.94 11.389-15.245 24.08zM1066.545 277.315l-12.019-10.589 15.243-17.368-18.226-15.917-15.192 17.382-12.069-10.604 39.046-44.549 12.048 10.646-14.342 16.307 18.219 15.94 14.269-16.351 12.063 10.553-39.04 44.55zM1139.639 293.901l-12.604-14.906-34.201 28.916-10.355-12.244 34.202-28.94-12.576-14.905 10.949-9.309 35.63 42.052-11.045 9.336zM1142.52 348.592c-3.122 2.002-6.245 3.07-9.483 3.123-3.122.072-6.142-.814-9.029-2.566-2.887-1.766-5.429-4.302-7.621-7.555-.541-.975-1.274-2.148-2.008-3.605-.777-1.379-1.554-3.371-2.389-5.967-.836-2.609-1.467-5.511-1.862-8.691l12.086-7.973c0 3.334.08 6.361.52 9.197.454 2.881 1.474 5.504 3.034 8.01 1.561 2.286 2.888 3.488 4.258 3.612 1.252.126 2.221-.052 3.012-.549 1.29-.851 2.066-2.142 2.258-3.942.146-1.759 0-4.061-.543-6.904-.425-3.209-.542-6.192-.425-8.918.08-2.684.82-5.32 2.037-7.791 1.274-2.478 3.326-4.66 6.112-6.441 2.594-1.803 5.415-2.74 8.346-3.005 2.896-.233 5.863.462 8.714 2.03 2.933 1.59 5.468 4.127 7.711 7.613 1.612 2.5 2.887 4.941 3.708 7.425.894 2.477 1.422 4.632 1.619 6.39.257 1.855.286 3.079.286 3.885l-11.564 7.578c.233-2.793.19-5.645-.118-8.662-.38-2.961-1.304-5.762-2.924-8.305-1.18-1.691-2.345-2.645-3.554-2.908-1.144-.322-2.258-.073-3.371.557-.982.66-1.568 1.592-1.825 2.844-.189 1.23-.189 3.129.059 5.753.477 4.61.667 8.347.587 11.351-.11 2.991-.74 5.658-1.76 8.032-1.131 2.416-3.132 4.542-5.871 6.382z"/></g><g fill="#FFF" stroke="#FFF" stroke-linejoin="round" stroke-width="82.1379"><path d="M450.523 868.407c-3.869 3.283-8.017 4.69-12.311 4.184-4.338-.477-8.354-2.924-11.96-7.189l-19.699-23.691 45.567-37.838 16.489 19.832c2.089 2.564 3.709 5.025 4.735 7.4 1.069 2.331 1.568 4.472 1.568 6.449 0 1.986-.396 3.768-1.173 5.365-.835 1.692-2.066 3.158-3.562 4.411-1.715 1.394-3.43 2.36-5.379 2.998-1.92.542-3.664.776-5.321.681-1.67-.139-3.048-.483-4.111-1.084 1.063 3.84 1.318 7.233.674 10.23-.731 3.07-2.541 5.804-5.517 8.252zm-9.731-12.854c3.964-3.239 3.766-7.389-.47-12.475l-4.104-5.084-11.726 9.658 4.185 5.071c4.215 5.094 8.267 6.026 12.115 2.83zm17.361-17.736c2.191-1.802 3.128-3.707 2.732-5.605-.292-1.914-1.656-4.273-3.949-7.072l-2.111-2.572-10.985 9.088 2.184 2.674c2.308 2.83 4.397 4.61 6.156 5.248 1.818.657 3.782.072 5.973-1.761zM490.229 928.368l-12.106-11.08 4.8-11.814-17.054-15.551-11.396 5.893-12.158-11.096 57.309-27.892 13.206 12.004-22.601 59.536zm-3.056-32.971 8.743-21.23-20.373 10.627 11.63 10.603zM538.041 940.417c-2.141 3.063-4.683 5.152-7.622 6.449-3.042 1.216-6.119 1.561-9.498.938-3.254-.645-6.581-2.037-9.806-4.295-.828-.645-1.993-1.451-3.225-2.47-1.173-1.077-2.682-2.704-4.397-4.771-1.803-2.118-3.422-4.572-4.983-7.379l8.398-11.822a48.943 48.943 0 0 0 3.855 8.304c1.422 2.528 3.319 4.654 5.775 6.325 2.228 1.627 4.001 2.197 5.276 1.816 1.216-.3 2.096-.857 2.587-1.598.938-1.312 1.129-2.785.623-4.471-.527-1.699-1.554-3.833-3.019-6.303-1.612-2.807-2.887-5.488-3.708-8.09a19.235 19.235 0 0 1-.982-8.047c.292-2.791 1.376-5.555 3.275-8.236 1.854-2.616 4.038-4.602 6.699-5.863 2.631-1.305 5.621-1.759 8.845-1.349 3.225.44 6.596 1.87 10.011 4.272 2.448 1.708 4.485 3.548 6.156 5.504 1.766 1.994 3.079 3.789 3.914 5.394.872 1.598 1.407 2.763 1.7 3.503l-8.003 11.33c-.732-2.631-1.905-5.328-3.327-8.003-1.362-2.675-3.327-4.896-5.804-6.639-1.678-1.136-3.092-1.644-4.294-1.452-1.291.176-2.272.756-2.946 1.773-.63 1.012-.879 2.052-.63 3.284.249 1.245 1.026 2.975 2.147 5.378 2.146 4.074 3.715 7.549 4.741 10.377 1.012 2.777 1.451 5.49 1.312 8.12-.183 2.655-1.166 5.315-3.07 8.021zM589.486 988.432l-17.354-9.184-5.028-33.98-12.957 24.418-14.202-7.52 27.702-52.295 14.21 7.519-12.466 23.422 29.468-14.409 15.485 8.18-30.486 15.213 5.628 38.636zM636.674 1005.852l-37.661-14.005 20.769-55.514 37.024 13.771-4.148 11.19-21.978-8.179-3.819 10.165 20.96 7.774-4.156 11.146-20.952-7.752-4.413 11.799 22.543 8.464-4.169 11.141zM712.802 978.458l-19.047-4.324-9.863 43.736-15.699-3.539 9.923-43.715-19.01-4.33 3.173-13.984 53.696 12.137-3.173 14.019zM766.849 1011.458c-.542 5.064-2.447 8.97-5.805 11.783-3.385 2.771-7.825 3.863-13.454 3.365l-30.633-2.573 4.991-58.935 25.642 2.154c3.283.287 6.163.879 8.56 1.795 2.433.902 4.339 2.053 5.708 3.481 1.372 1.364 2.382 2.895 3.034 4.589.58 1.758.835 3.619.58 5.62-.133 2.176-.675 4.133-1.562 5.915-.975 1.758-2.053 3.194-3.276 4.213-1.209 1.106-2.491 1.847-3.664 2.235 3.481 1.898 6.068 4.104 7.783 6.713 1.642 2.536 2.382 5.818 2.096 9.645zm-16.036-2.088c.455-5.064-2.638-7.879-9.277-8.377l-6.5-.572-1.275 15.068 6.5.57c6.64.514 10.07-1.692 10.552-6.689zm-.526-24.78c.241-2.836-.447-4.821-2.008-5.861-1.672-1.07-4.207-1.773-7.886-2.08l-3.357-.301-1.172 14.164 3.474.265c3.605.323 6.332.073 8.01-.726 1.715-.769 2.697-2.631 2.939-5.461zM837.341 1025.294l-16.423.88-4.97-11.778-23.113 1.253-3.708 12.239-16.474.864 20.329-60.386 17.733-.925 26.626 57.853zm-25.606-20.989-8.934-21.113-6.735 21.985 15.669-.872zM887.182 1015.723l-39.721 7.475-10.904-58.246 15.741-2.888 8.303 44.213 23.949-4.463 2.632 13.909zM937.952 1000.569l-38.599 11.929-17.463-56.53 15.309-4.749 13.346 43.011 23.261-7.219 4.146 13.558zM1009.047 962.885c-1.364 2.16-2.983 4.074-4.654 5.805-1.714 1.729-3.518 3.261-5.511 4.615a50.115 50.115 0 0 1-6.258 3.715c-4.156 2.105-8.165 3.321-12.115 3.717a26.52 26.52 0 0 1-11.38-1.327c-3.622-1.238-6.948-3.261-9.835-5.942-2.873-2.77-5.276-6.076-7.27-10.084-2.302-4.5-3.62-8.831-3.877-13-.33-4.105.196-7.944 1.634-11.492 1.422-3.59 3.511-6.727 6.186-9.49 2.739-2.704 5.921-4.945 9.54-6.778 5.373-2.741 12.151-4.456 20.33-5.232l7.064 13.997c-3.122-.396-6.141-.623-8.984-.527-2.873.073-5.863.923-8.934 2.506a19.242 19.242 0 0 0-6.845 5.716c-1.81 2.448-2.836 5.159-3.181 8.136-.337 3.033.301 5.994 1.751 9.057 1.379 2.697 3.255 4.793 5.688 6.347 2.403 1.598 5.025 2.522 7.958 2.668 2.931.132 5.869-.505 8.751-1.935 2.241-1.188 4.346-2.608 6.002-4.266 1.823-1.642 3.188-3.165 4.205-4.727a43.418 43.418 0 0 0 2.977-4.83l6.758 13.351zM1057.904 935.952l-33.578 22.595-33.124-49.071 13.344-9 25.16 37.332 20.225-13.602 7.973 11.746zM1091.858 871.852c3.319 3.78 5.575 7.592 6.689 11.373 1.129 3.818 1.32 7.416.536 10.859-.682 3.431-1.957 6.516-3.761 9.381-1.846 2.829-3.957 5.32-6.397 7.469-3.319 3.012-7.13 5.24-11.542 6.801-4.354 1.568-8.882 1.802-13.776.6-4.882-1.165-9.469-4.198-13.822-9.088l-21.693-24.453 12.021-10.627 18.569 20.938c2.595 2.967 5.174 5.057 7.57 6.252 2.447 1.201 4.785 1.699 6.837 1.377 2.199-.293 4.163-1.305 6.01-2.916 1.76-1.555 2.888-3.387 3.518-5.475.587-2.133.396-4.391-.469-6.985-.981-2.563-2.741-5.306-5.291-8.178l-18.673-21.048 12.033-10.67 21.641 24.39zM1140.658 829.727c3.957 3.297 6.053 7.139 6.404 11.447.294 4.368-1.325 8.705-4.983 13.059l-19.728 23.599-45.407-37.962 16.474-19.75c2.155-2.529 4.295-4.552 6.45-6.002 2.096-1.444 4.154-2.287 6.111-2.689 1.848-.359 3.752-.294 5.468.257 1.766.433 3.414 1.333 4.938 2.608 1.664 1.422 2.932 2.99 3.906 4.793a13.989 13.989 0 0 1 1.605 5.042c.204 1.626.16 3.093-.235 4.266 3.518-1.789 6.837-2.64 9.967-2.522 3.079.072 6.1 1.421 9.03 3.854zm-31.41-1.898c-2.205-1.795-4.244-2.367-6.054-1.692-1.817.733-3.854 2.454-6.154 5.188l-2.156 2.637 10.846 9.066 2.287-2.645c2.302-2.83 3.715-5.174 4.016-7.007.286-1.883-.638-3.7-2.785-5.547zm20.579 13.829c-3.906-3.224-7.967-2.367-12.225 2.727l-4.206 5.026 11.638 9.732 4.205-5.006c4.252-5.086 4.434-9.284.588-12.479z"/></g><path fill="#E1002A" d="M1302.528 562.4c0 286.513-232.305 518.711-518.748 518.711-286.429 0-518.732-232.198-518.732-518.711 0-286.564 232.304-518.77 518.732-518.77 286.444 0 518.748 232.205 518.748 518.77z"/><path fill="#FFF" d="M783.777 206.922c-196.358 0-355.43 159.167-355.43 355.474 0 196.271 159.071 355.423 355.43 355.423 196.275 0 355.451-159.152 355.451-355.423.001-196.307-159.175-355.474-355.451-355.474z"/><linearGradient id="a" x1="-2764.7285" x2="-2764.7285" y1="-990.2261" y2="-1597.4575" gradientTransform="translate(2006.764 1323.43) scale(.5974)" gradientUnits="userSpaceOnUse"><stop offset="0" style="stop-color:#f5a200"/><stop offset="0.4" style="stop-color:#ef8000"/><stop offset="1" style="stop-color:#e1002a"/></linearGradient><path fill="url(#a)" d="m309.715 551.678 159.73-148.27-115.174 9.418 4.838 37.623-118.325 111.585 15.771 88.652c4.294 28.133 18.277 80.648 70.03 76.369l54.751-4.484c-28.427-16.725-44.594-44.205-52.42-79.777l-19.201-91.116z"/><linearGradient id="b" x1="-2526.6753" x2="-2526.6753" y1="-1012.7256" y2="-1423.1267" gradientTransform="translate(2006.764 1323.43) scale(.5974)" gradientUnits="userSpaceOnUse"><stop offset="0" style="stop-color:#f5a200"/><stop offset="0.4" style="stop-color:#ef8000"/><stop offset="1" style="stop-color:#e1002a"/></linearGradient><path fill="url(#b)" d="m440.792 565.331-50.464 156.426 60.628-4.961 38.951-120.684c3.033-9.557 6.588-21.592 14.518-30.281 5.467-6.296 13.037-10.715 18.958-11.198 7.373-.631 12.986 3.107 14.349 10.597 2.213 7.797-.975 17.734-4.045 27.262l-38.885 120.684 60.635-4.975 38.306-118.986c7.364-22.878 14.745-42.475 7.812-59.996-6.999-17.516-22.521-22.119-41.486-20.557-17.882 1.414-35.184 9.607-50.478 26.418l7.189-22.279-79.74 6.523 3.752 46.007z"/><linearGradient id="c" x1="-1992.8442" x2="-1992.8442" y1="-973.3877" y2="-1455.4902" gradientTransform="translate(2006.764 1323.43) scale(.5974)" gradientUnits="userSpaceOnUse"><stop offset="0" style="stop-color:#f5a200"/><stop offset="0.4" style="stop-color:#ef8000"/><stop offset="1" style="stop-color:#e1002a"/></linearGradient><path fill="url(#c)" d="M789.713 691.307c-41.375 15.91-67.685-9.329-67.685-50.244 0-25.555 16.086-93.371 72.229-132.807 25.049-17.559 58.041-28.529 101.133-29.269 32.494.058 48.572 2.96 66.102 8.853 0 0-19.2 12.803-27.057 37.888l-50.39 158.573c-40.146 124.063-150.819 144.648-213.059 88.607l49.005-49.746c2.594 8.627 7.123 15.172 13.338 19.664 29.46 21.311 70.06 2.219 93.174-68.785l45.633-143.527c-1.224-.301-1.957-1.035-3.173-1.313-20.959-7.115-42.176 2.74-60.356 28.023-8.01 11.434-14.262 25.738-19.421 49.241-3.87 17.2-2.008 61.668 40.497 35.843l-39.97 48.999z"/><linearGradient id="d" x1="-2246.5361" x2="-2246.5361" y1="-1018.2793" y2="-1437.2354" gradientTransform="translate(2006.764 1323.43) scale(.5974)" gradientUnits="userSpaceOnUse"><stop offset="0" style="stop-color:#f5a200"/><stop offset="0.4" style="stop-color:#ef8000"/><stop offset="1" style="stop-color:#e1002a"/></linearGradient><path fill="url(#d)" d="m727.861 496.239-79.704 6.553 3.767 46-50.42 156.453 60.585-5.012z"/><linearGradient id="e" x1="-2171.6812" x2="-2171.6812" y1="-1018.2993" y2="-1437.2639" gradientTransform="translate(2006.764 1323.43) scale(.5974)" gradientUnits="userSpaceOnUse"><stop offset="0" style="stop-color:#f5a200"/><stop offset="0.4" style="stop-color:#ef8000"/><stop offset="1" style="stop-color:#e1002a"/></linearGradient><path fill="url(#e)" d="m696.034 480.659-27.013-38.168 53.71-44.776 27.05 38.138z"/><g fill="#FFF"><path d="M459.626 288.346c2.865 2.3 4.881 4.938 5.951 7.928 1.172 2.983 1.327 6.193.586 9.425-.777 3.283-2.346 6.538-4.793 9.659-.638.895-1.612 1.847-2.631 3.049-1.136 1.165-2.777 2.578-4.99 4.222a45.172 45.172 0 0 1-7.623 4.572l-11.433-8.897c3.093-1.04 5.966-2.125 8.502-3.459 2.594-1.319 4.786-3.121 6.646-5.496 1.62-2.146 2.338-3.885 2.052-5.123-.351-1.238-.784-2.146-1.517-2.704-1.216-.967-2.683-1.229-4.449-.835-1.692.455-3.847 1.334-6.441 2.697-2.836 1.473-5.533 2.595-8.164 3.357-2.682.747-5.379.908-8.156.527-2.734-.396-5.431-1.613-8.018-3.635-2.5-1.95-4.39-4.324-5.563-7.021-1.187-2.623-1.429-5.577-.842-8.882.586-3.21 2.103-6.464 4.646-9.755 1.854-2.337 3.811-4.338 5.826-5.9 2.096-1.641 3.913-2.826 5.613-3.671 1.613-.782 2.829-1.268 3.459-1.466l11.058 8.553c-2.74.66-5.43 1.612-8.215 2.881-2.727 1.273-4.991 3.1-6.889 5.532-1.172 1.562-1.759 3.005-1.664 4.222.154 1.253.741 2.227 1.664 3.004.923.689 2.008.982 3.18.762 1.305-.175 3.122-.762 5.467-1.883 4.192-1.897 7.769-3.298 10.597-4.206 2.836-.894 5.57-1.21 8.215-.946 2.642.256 5.273 1.458 7.926 3.489zM507.693 263.325l-28.281 28.566-42.08-41.661 27.752-28.083 8.501 8.311-16.511 16.672 7.769 7.726 15.682-15.933 8.539 8.377-15.771 15.879 8.933 8.896 17.009-17.117 8.458 8.367zM540.43 199.774c3.415 4.411 5.511 9.16 6.543 14.231 1.034 5.042.536 10.128-1.421 15.008-1.956 4.882-5.474 9.374-10.634 13.353-5.239 3.958-10.553 6.201-15.888 6.771-5.379.506-10.304-.41-14.914-2.755-4.58-2.345-8.479-5.636-11.717-9.834-3.225-4.267-5.372-8.839-6.464-13.925-1.055-4.932-.579-9.98 1.334-15.037 1.905-4.984 5.481-9.484 10.714-13.484 3.906-2.99 7.856-5.043 11.909-6.121 4.052-1.047 7.958-1.209 11.571-.527 3.672.711 7.138 2.148 10.407 4.273 3.239 2.148 6.111 4.852 8.56 8.047zm-13.053 9.98a18.584 18.584 0 0 0-4.346-4.308c-1.612-1.063-3.275-1.833-5.034-2.171a12.745 12.745 0 0 0-5.365.133c-1.81.461-3.627 1.378-5.43 2.696-3.474 2.595-5.27 5.796-5.569 9.505-.191 3.716 1.077 7.41 3.81 10.971 2.785 3.578 6.017 5.761 9.615 6.507 3.672.689 7.241-.226 10.612-2.783 2.294-1.862 3.972-3.862 4.793-6.171.879-2.244 1.026-4.633.439-7.153-.484-2.418-1.656-4.866-3.525-7.226zM600.779 170.057c2.426 4.448 3.759 8.678 3.958 12.633.19 3.922-.491 7.505-1.957 10.62-1.523 3.231-3.43 5.937-5.914 8.311-2.456 2.315-5.035 4.243-7.878 5.774-4.001 2.161-8.2 3.488-12.751 4.03-4.631.476-9.131-.38-13.572-2.623-4.543-2.243-8.325-6.259-11.389-12.042l-15.492-28.762 14.07-7.594 13.279 24.652c1.876 3.475 3.84 6.084 5.935 7.813 2.097 1.788 4.237 2.74 6.391 2.924 2.14.199 4.295-.285 6.493-1.501 2.052-1.077 3.576-2.595 4.698-4.501 1.07-1.846 1.37-4.162 1.114-6.888-.329-2.712-1.399-5.761-3.269-9.204l-13.33-24.779 14.173-7.613 15.441 28.75zM661.751 175.604 623.783 189.5l-20.329-55.595 15.052-5.504 15.493 42.248 22.865-8.397 4.887 13.352zM727.268 144.276c.683 3.627.389 6.99-.813 9.898-1.29 2.955-3.247 5.424-5.98 7.33-2.742 1.979-6.067 3.246-10.018 3.906-1.019.189-2.338.345-4.009.483-1.612.153-3.767.08-6.501-.206a50.613 50.613 0 0 1-8.684-1.691l-2.492-14.319a58.14 58.14 0 0 0 8.633 3.194c2.741.748 5.629.895 8.604.381 2.652-.462 4.294-1.23 4.938-2.396.586-1.122.836-2.126.682-3.013-.183-1.561-1.172-2.785-2.697-3.605-1.605-.888-3.715-1.642-6.53-2.33-3.092-.828-5.92-1.906-8.324-3.107-2.478-1.188-4.573-2.895-6.332-5.027-1.811-2.155-2.99-4.822-3.518-8.076-.586-3.195-.336-6.111.63-8.896.938-2.785 2.639-5.167 5.321-7.152 2.543-2.009 5.855-3.357 9.967-4.091a34.4 34.4 0 0 1 8.311-.481c2.624.24 4.785.614 6.501 1.083 1.794.528 2.975.908 3.715 1.291l2.345 13.651c-2.448-1.326-5.086-2.477-7.973-3.318-2.888-.91-5.819-1.115-8.838-.646-1.957.396-3.328 1.069-4.061 2.037-.674.968-.924 2.125-.732 3.327.197 1.172.783 2.119 1.817 2.799 1.019.652 2.785 1.408 5.276 2.272 4.382 1.407 7.958 2.712 10.641 3.979 2.733 1.268 4.939 2.879 6.698 4.844 1.701 2.008 2.932 4.646 3.423 7.879zM795.474 157.913l-19.537.734-21.399-26.926 1.078 27.629-16.13.615-2.155-59.141 16.078-.586.924 26.427 18.372-27.115 17.39-.66-18.761 28.405 24.14 30.618zM881.085 170.46l-19.312-3.431-15.191-30.867-4.896 27.32-15.764-2.764 10.355-58.275 15.771 2.734-4.589 26.081 23.604-22.718 17.201 3.057-24.434 23.817 17.255 35.046zM939.514 190.649l-13.536-4.719-15.228-40.195-10.817 31.137-15.104-5.226 19.501-55.908 13.44 4.669 15.199 40.012 10.803-30.917 15.234 5.254-19.492 55.893zM964.526 203.481l-14.423-7.027 26.147-53.103 14.416 7.065-26.14 53.065zM1018.625 231.081c-1.231-.198-2.258-.426-3.122-.586-.945-.176-1.678-.396-2.506-.543a68.666 68.666 0 0 1-3.225-.938c-2.485-.747-4.749-1.647-6.984-2.667a49.903 49.903 0 0 1-6.706-3.723c-4.587-2.881-8.253-6.426-10.934-10.736-2.683-4.301-4.009-9.125-3.812-14.525.146-5.4 1.949-10.889 5.512-16.583 2.344-3.636 5.195-6.794 8.655-9.646 3.421-2.711 7.034-4.396 10.89-4.945 3.188-.5 6.016-.529 8.713-.111 2.684.354 5.086 1.049 7.27 2.039 2.199.908 4.5 2.16 6.874 3.678 3.972 2.47 7.036 4.888 9.25 7.197 2.153 2.27 4.404 4.91 6.793 8.002l-7.482 11.792c-1.209-2.61-2.69-5.064-4.331-7.409-1.766-2.316-4.266-4.574-7.738-6.729-3.855-2.469-7.57-3.635-10.942-3.444-3.399.133-6.259 1.07-8.641 2.771-2.351 1.692-4.198 3.677-5.577 5.796-1.619 2.537-2.535 5.174-2.828 7.967-.293 2.807.234 5.539 1.561 8.207 1.371 2.631 3.475 4.896 6.553 6.823 1.699 1.091 3.773 1.985 6.061 2.674l3.707-5.862-6.053-3.854 6.347-10.114 17.94 11.389-15.245 24.08zM1066.545 277.315l-12.019-10.589 15.243-17.368-18.226-15.917-15.192 17.382-12.069-10.604 39.046-44.549 12.048 10.646-14.342 16.307 18.219 15.94 14.269-16.351 12.063 10.553-39.04 44.55zM1139.639 293.901l-12.604-14.906-34.201 28.916-10.355-12.244 34.202-28.94-12.576-14.905 10.949-9.309 35.63 42.052-11.045 9.336zM1142.52 348.592c-3.122 2.002-6.245 3.07-9.483 3.123-3.122.072-6.142-.814-9.029-2.566-2.887-1.766-5.429-4.302-7.621-7.555-.541-.975-1.274-2.148-2.008-3.605-.777-1.379-1.554-3.371-2.389-5.967-.836-2.609-1.467-5.511-1.862-8.691l12.086-7.973c0 3.334.08 6.361.52 9.197.454 2.881 1.474 5.504 3.034 8.01 1.561 2.286 2.888 3.488 4.258 3.612 1.252.126 2.221-.052 3.012-.549 1.29-.851 2.066-2.142 2.258-3.942.146-1.759 0-4.061-.543-6.904-.425-3.209-.542-6.192-.425-8.918.08-2.684.82-5.32 2.037-7.791 1.274-2.478 3.326-4.66 6.112-6.441 2.594-1.803 5.415-2.74 8.346-3.005 2.896-.233 5.863.462 8.714 2.03 2.933 1.59 5.468 4.127 7.711 7.613 1.612 2.5 2.887 4.941 3.708 7.425.894 2.477 1.422 4.632 1.619 6.39.257 1.855.286 3.079.286 3.885l-11.564 7.578c.233-2.793.19-5.645-.118-8.662-.38-2.961-1.304-5.762-2.924-8.305-1.18-1.691-2.345-2.645-3.554-2.908-1.144-.322-2.258-.073-3.371.557-.982.66-1.568 1.592-1.825 2.844-.189 1.23-.189 3.129.059 5.753.477 4.61.667 8.347.587 11.351-.11 2.991-.74 5.658-1.76 8.032-1.131 2.416-3.132 4.542-5.871 6.382z"/></g><g fill="#FFF"><path d="M450.523 868.407c-3.869 3.283-8.017 4.69-12.311 4.184-4.338-.477-8.354-2.924-11.96-7.189l-19.699-23.691 45.567-37.838 16.489 19.832c2.089 2.564 3.709 5.025 4.735 7.4 1.069 2.331 1.568 4.472 1.568 6.449 0 1.986-.396 3.768-1.173 5.365-.835 1.692-2.066 3.158-3.562 4.411-1.715 1.394-3.43 2.36-5.379 2.998-1.92.542-3.664.776-5.321.681-1.67-.139-3.048-.483-4.111-1.084 1.063 3.84 1.318 7.233.674 10.23-.731 3.07-2.541 5.804-5.517 8.252zm-9.731-12.854c3.964-3.239 3.766-7.389-.47-12.475l-4.104-5.084-11.726 9.658 4.185 5.071c4.215 5.094 8.267 6.026 12.115 2.83zm17.361-17.736c2.191-1.802 3.128-3.707 2.732-5.605-.292-1.914-1.656-4.273-3.949-7.072l-2.111-2.572-10.985 9.088 2.184 2.674c2.308 2.83 4.397 4.61 6.156 5.248 1.818.657 3.782.072 5.973-1.761zM490.229 928.368l-12.106-11.08 4.8-11.814-17.054-15.551-11.396 5.893-12.158-11.096 57.309-27.892 13.206 12.004-22.601 59.536zm-3.056-32.971 8.743-21.23-20.373 10.627 11.63 10.603zM538.041 940.417c-2.141 3.063-4.683 5.152-7.622 6.449-3.042 1.216-6.119 1.561-9.498.938-3.254-.645-6.581-2.037-9.806-4.295-.828-.645-1.993-1.451-3.225-2.47-1.173-1.077-2.682-2.704-4.397-4.771-1.803-2.118-3.422-4.572-4.983-7.379l8.398-11.822a48.943 48.943 0 0 0 3.855 8.304c1.422 2.528 3.319 4.654 5.775 6.325 2.228 1.627 4.001 2.197 5.276 1.816 1.216-.3 2.096-.857 2.587-1.598.938-1.312 1.129-2.785.623-4.471-.527-1.699-1.554-3.833-3.019-6.303-1.612-2.807-2.887-5.488-3.708-8.09a19.235 19.235 0 0 1-.982-8.047c.292-2.791 1.376-5.555 3.275-8.236 1.854-2.616 4.038-4.602 6.699-5.863 2.631-1.305 5.621-1.759 8.845-1.349 3.225.44 6.596 1.87 10.011 4.272 2.448 1.708 4.485 3.548 6.156 5.504 1.766 1.994 3.079 3.789 3.914 5.394.872 1.598 1.407 2.763 1.7 3.503l-8.003 11.33c-.732-2.631-1.905-5.328-3.327-8.003-1.362-2.675-3.327-4.896-5.804-6.639-1.678-1.136-3.092-1.644-4.294-1.452-1.291.176-2.272.756-2.946 1.773-.63 1.012-.879 2.052-.63 3.284.249 1.245 1.026 2.975 2.147 5.378 2.146 4.074 3.715 7.549 4.741 10.377 1.012 2.777 1.451 5.49 1.312 8.12-.183 2.655-1.166 5.315-3.07 8.021zM589.486 988.432l-17.354-9.184-5.028-33.98-12.957 24.418-14.202-7.52 27.702-52.295 14.21 7.519-12.466 23.422 29.468-14.409 15.485 8.18-30.486 15.213 5.628 38.636zM636.674 1005.852l-37.661-14.005 20.769-55.514 37.024 13.771-4.148 11.19-21.978-8.179-3.819 10.165 20.96 7.774-4.156 11.146-20.952-7.752-4.413 11.799 22.543 8.464-4.169 11.141zM712.802 978.458l-19.047-4.324-9.863 43.736-15.699-3.539 9.923-43.715-19.01-4.33 3.173-13.984 53.696 12.137-3.173 14.019zM766.849 1011.458c-.542 5.064-2.447 8.97-5.805 11.783-3.385 2.771-7.825 3.863-13.454 3.365l-30.633-2.573 4.991-58.935 25.642 2.154c3.283.287 6.163.879 8.56 1.795 2.433.902 4.339 2.053 5.708 3.481 1.372 1.364 2.382 2.895 3.034 4.589.58 1.758.835 3.619.58 5.62-.133 2.176-.675 4.133-1.562 5.915-.975 1.758-2.053 3.194-3.276 4.213-1.209 1.106-2.491 1.847-3.664 2.235 3.481 1.898 6.068 4.104 7.783 6.713 1.642 2.536 2.382 5.818 2.096 9.645zm-16.036-2.088c.455-5.064-2.638-7.879-9.277-8.377l-6.5-.572-1.275 15.068 6.5.57c6.64.514 10.07-1.692 10.552-6.689zm-.526-24.78c.241-2.836-.447-4.821-2.008-5.861-1.672-1.07-4.207-1.773-7.886-2.08l-3.357-.301-1.172 14.164 3.474.265c3.605.323 6.332.073 8.01-.726 1.715-.769 2.697-2.631 2.939-5.461zM837.341 1025.294l-16.423.88-4.97-11.778-23.113 1.253-3.708 12.239-16.474.864 20.329-60.386 17.733-.925 26.626 57.853zm-25.606-20.989-8.934-21.113-6.735 21.985 15.669-.872zM887.182 1015.723l-39.721 7.475-10.904-58.246 15.741-2.888 8.303 44.213 23.949-4.463 2.632 13.909zM937.952 1000.569l-38.599 11.929-17.463-56.53 15.309-4.749 13.346 43.011 23.261-7.219 4.146 13.558zM1009.047 962.885c-1.364 2.16-2.983 4.074-4.654 5.805-1.714 1.729-3.518 3.261-5.511 4.615a50.115 50.115 0 0 1-6.258 3.715c-4.156 2.105-8.165 3.321-12.115 3.717a26.52 26.52 0 0 1-11.38-1.327c-3.622-1.238-6.948-3.261-9.835-5.942-2.873-2.77-5.276-6.076-7.27-10.084-2.302-4.5-3.62-8.831-3.877-13-.33-4.105.196-7.944 1.634-11.492 1.422-3.59 3.511-6.727 6.186-9.49 2.739-2.704 5.921-4.945 9.54-6.778 5.373-2.741 12.151-4.456 20.33-5.232l7.064 13.997c-3.122-.396-6.141-.623-8.984-.527-2.873.073-5.863.923-8.934 2.506a19.242 19.242 0 0 0-6.845 5.716c-1.81 2.448-2.836 5.159-3.181 8.136-.337 3.033.301 5.994 1.751 9.057 1.379 2.697 3.255 4.793 5.688 6.347 2.403 1.598 5.025 2.522 7.958 2.668 2.931.132 5.869-.505 8.751-1.935 2.241-1.188 4.346-2.608 6.002-4.266 1.823-1.642 3.188-3.165 4.205-4.727a43.418 43.418 0 0 0 2.977-4.83l6.758 13.351zM1057.904 935.952l-33.578 22.595-33.124-49.071 13.344-9 25.16 37.332 20.225-13.602 7.973 11.746zM1091.858 871.852c3.319 3.78 5.575 7.592 6.689 11.373 1.129 3.818 1.32 7.416.536 10.859-.682 3.431-1.957 6.516-3.761 9.381-1.846 2.829-3.957 5.32-6.397 7.469-3.319 3.012-7.13 5.24-11.542 6.801-4.354 1.568-8.882 1.802-13.776.6-4.882-1.165-9.469-4.198-13.822-9.088l-21.693-24.453 12.021-10.627 18.569 20.938c2.595 2.967 5.174 5.057 7.57 6.252 2.447 1.201 4.785 1.699 6.837 1.377 2.199-.293 4.163-1.305 6.01-2.916 1.76-1.555 2.888-3.387 3.518-5.475.587-2.133.396-4.391-.469-6.985-.981-2.563-2.741-5.306-5.291-8.178l-18.673-21.048 12.033-10.67 21.641 24.39zM1140.658 829.727c3.957 3.297 6.053 7.139 6.404 11.447.294 4.368-1.325 8.705-4.983 13.059l-19.728 23.599-45.407-37.962 16.474-19.75c2.155-2.529 4.295-4.552 6.45-6.002 2.096-1.444 4.154-2.287 6.111-2.689 1.848-.359 3.752-.294 5.468.257 1.766.433 3.414 1.333 4.938 2.608 1.664 1.422 2.932 2.99 3.906 4.793a13.989 13.989 0 0 1 1.605 5.042c.204 1.626.16 3.093-.235 4.266 3.518-1.789 6.837-2.64 9.967-2.522 3.079.072 6.1 1.421 9.03 3.854zm-31.41-1.898c-2.205-1.795-4.244-2.367-6.054-1.692-1.817.733-3.854 2.454-6.154 5.188l-2.156 2.637 10.846 9.066 2.287-2.645c2.302-2.83 3.715-5.174 4.016-7.007.286-1.883-.638-3.7-2.785-5.547zm20.579 13.829c-3.906-3.224-7.967-2.367-12.225 2.727l-4.206 5.026 11.638 9.732 4.205-5.006c4.252-5.086 4.434-9.284.588-12.479z"/></g><path fill="#A6A6A6" d="m1525.438 460.952-16.256-24.721s-82.721-29.287-151.588 11.313l-4.418-12.67s-14.107 1.152-20.129 1.656l16.561-53.344-17.633-26.59-67.895 5.549c-5.617 21.236-36.182 95.09-97.16 102.467l-3.318 9.41c-12.783-15.412-27.449-20.531-47.443-20.627l16.584-52.346-17.668-26.627-138.443 11.412 5.578 68.424-7.92 24.965c-83.781-25.732-159.891-9.074-207.951 27.605l-9.229-7.906 32.965-27.506-70.064-100.154-95.857 80.008 26.958 39.033-41.616 3.336 3.554 31.656c-18.61-24.594-48.633-29.482-77.842-26.266.144 0-72.82 5.953-110.423 9.035 47.126-43.732 100.53-93.32 100.53-93.32l-19.724-29.729s-143.449 11.787-171.342 14.068c.276-.174-27.711 2.336-27.711 2.336.441 3.303 3.844 29.064 5.154 39.119.745 5.715 1.415 10.865 1.765 13.563-1.986 1.885-9.121 8.615-18.797 17.734-13.974 13.178-86.711 82.689-103.476 98.51.756 3.266 12.362 68.943 12.362 68.943l8.625 49.199c12.053 72.936 54.271 107.701 125.284 102.482l315.995-25.055-28.508 29.174c18.678 29.205 63.305 74.494 121.611 74.494h.527c73.82 0 130.025-42.639 163.857-123.57l221.547-18.023 10.734-33.182c4.826 12.24 24.852 37.646 57.328 37.646 32.463 0 51.645-14.191 57.154-18.641l11.902-16.615 3.877 7.518c75.824 24.418 140.973.434 172.289-21.715 38.244-27.115 65.15-77.064 47.535-121.697l32.135-100.351zM360.676 695.108c-6.054-8.168-10.917-19.34-13.882-32.951-.105-.609-10.088-42.705-15.418-67.326l63.643-59.066 3.568 43.26-37.911 116.083z"/><path fill="#A6A6A6" d="M176.542 686.513c-13.034 26.473-26.985 54.945-28.549 58.193.47 2.164 3.215 14.135 6.579 28.955l.8 3.521.734 3.25.001-.006 6.008 26.496c1.506 6.701 5.809 25.547 5.809 25.547l-33.466 4.055s-9.586-11.182-15.999-18.639c4.501 21.023-8.747 38.947-14.176 44.377-16.179 16.18-46.574 21.676-69.44-1.191-33.482-33.482-16.846-85.445 5.619-91.596l10.338-31.28L0 676.833l68.878 2.486 106.576-318.217 127.608-81.828-10.591 171.102-64.151 130.639-.006.02-51.772 105.478z"/><path d="m205.697 607.708 78.296-159.439 9.448-152.24-110.563 70.928L75.12 688.365l-55.992-1.98 41.509 50.076c-3.317 10.275-9.729 29.635-12.925 39.422-5.306 1.691-10.078 4.902-13.958 9.607-1.112 1.355-2.108 2.844-3.063 4.529-11.138 19.174-6.114 46.117 9.111 63.658 27.53 31.707 81 6.266 68.928-40.664 1.009-2.113 4.194-9.607 5.833-13.018l23.59 27.557 19.308-2.322-18.504-81.465 49.093-99.992"/><linearGradient id="f" x1="25.2632" x2="270.3837" y1="851.9399" y2="369.6055" gradientUnits="userSpaceOnUse"><stop offset="0" style="stop-color:#f5a200"/><stop offset="0.4" style="stop-color:#ef8000"/><stop offset="1" style="stop-color:#e1002a"/></linearGradient><path fill="url(#f)" d="m100.311 764.931-22.556 47.055c3.357 10.215 3.044 21.559-1.635 29.582-6.858 11.898-20.541 11.936-30.576.127-10.028-11.818-12.551-30.977-5.674-42.859 3.727-6.457 9.513-9.447 15.636-8.822l18.399-56.201-26.865-31.64 36.409 2.617L191.65 377.876l68.934-44.146-8.209 115.719-139.004 289.767 14.302 57.867-27.362-32.152zm-34.02 65.022c3.166-5.422 1.973-14.213-2.633-19.588-4.536-5.318-10.811-5.33-13.933.043-3.131 5.471-2.02 14.201 2.571 19.594 4.535 5.392 10.864 5.345 13.995-.049z"/><path fill="#EFEFF0" d="m94.952 718.367-25.481-1.848-5.009-5.902 25.544 1.863 108.11-326.951 52.901-33.842-.648 9.547-47.249 30.195zM61.986 797.656l18.461-56.141 5.007 5.895-18.431 56.129z"/><path d="m206.904 598.625 15.463 88.059c9.245 48.791 32.184 100.188 114.55 94.207l109.572-9.049 7.423-20.867 15.598 18.867 89.097-6.822 7.023-19.971 13.498 18.633 93.366-7.498 26.482-82.609c2.531 45.479 37.508 70.668 85.251 56.906-2.613 10.246-14.924 27.988-32.479 27.988-24.662 0-31.927-26.617-35.947-39.598l-77.457 79.154c39.02 54.396 87.199 63.383 108.422 63.383 21.394 0 117.001 1.018 164.287-141.902l9.365 17.797 85.34-6.885 7.377-20.805 14.461 18.82 97.574-8.025 18.625-57.779c1.203 22.396 19.316 61.709 57.16 61.709 26.643 0 42.219-10.479 49.73-15.9l20.133-27.898 7.934 16.818c11.143 5.721 54.311 10.855 77.248 8.695 25.994-2.471 104.482-14.479 129.432-91.709 2.604-7.971 3.877-15.729 3.877-23.24 0-9.283-2.611-19.32-6.617-27.35l31.799-99.32-11.533-17.525c-69.213-20.221-126.686-1.775-150.369 18.641l-6.217-17.977s-14.318 1.182-27.268 2.225c8.732-27.625 19.672-63.09 19.672-63.09l-11.646-17.533-55.408 4.455c-25.137 74.213-75.117 98.471-98.168 101.963l-7.799 23.713c-7.506-29.752-36.377-36.813-63.479-32.83 9.035-28.609 19.521-61.936 19.521-61.936l-11.646-17.563-122.311 10.096s4.412 54.715 4.855 60.301c-.443 1.354-5.014 15.523-11.684 36.676l-15.418-5.119c-18.67-6.217-36.578-9.787-73.066-9.832h-.092l-.166.045c-6.58.045-13.143.588-18.91 1.068l-.361.033c-56.115 5.697-97.461 25.791-127.83 63.131l9.984-31.016-13.55-11.594 35.064-29.264-58.449-83.449-80.264 67.047 31.688 45.773-48.701 4.02 6.83 60.299-8.289 17.488c-.799-59.375-37.943-76.584-82.954-71.646l-132.398 10.85s4.473 54.676 4.954 60.271c-1.4 4.184-26.952 81.658-43.619 133.557-14.748-9.285-24.075-29.361-28.335-49.439 0 0-11.654-49.482-16.668-72.939 12.489-11.607 191.932-178.217 191.932-178.217l-11.706-17.598-182.439 15.031s4.818 37.129 6.174 47.338c-8.101 7.588-69.967 65.926-102.331 96.465l-19.812 19.811"/><linearGradient id="g" x1="-2186.6929" x2="-2186.6929" y1="-987.249" y2="-1417.6283" gradientTransform="translate(2006.764 1323.43) scale(.5974)" gradientUnits="userSpaceOnUse"><stop offset="0" style="stop-color:#f5a200"/><stop offset="0.4" style="stop-color:#ef8000"/><stop offset="1" style="stop-color:#e1002a"/></linearGradient><path fill="url(#g)" d="m686.701 492.821-27.748-39.209 55.173-45.994 27.788 39.175z"/><linearGradient id="h" x1="-1617.7446" x2="-1617.7446" y1="-1036.3447" y2="-1530.2599" gradientTransform="translate(2006.764 1323.43) scale(.5974)" gradientUnits="userSpaceOnUse"><stop offset="0" style="stop-color:#f5a200"/><stop offset="0.4" style="stop-color:#ef8000"/><stop offset="1" style="stop-color:#e1002a"/></linearGradient><path fill="url(#h)" d="m1008.192 454.999-77.443 242.123 62.281-5.152 39.945-123.957c8.197-25.176 18.52-41.313 34.492-42.615 16.016-1.334 18.822 13.453 10.525 38.898l-39.99 124.018 62.229-5.219 43.664-135.318c16.727-51.658-3.207-72.57-38.801-69.611-18.346 1.527-36.135 9.887-51.877 27.201l33.072-104.375-81.922 6.754 3.825 47.253z"/><linearGradient id="i" x1="-2795.9053" x2="-2795.9053" y1="-958.4072" y2="-1582.1848" gradientTransform="translate(2006.764 1323.43) scale(.5974)" gradientUnits="userSpaceOnUse"><stop offset="0" style="stop-color:#f5a200"/><stop offset="0.4" style="stop-color:#ef8000"/><stop offset="1" style="stop-color:#e1002a"/></linearGradient><path fill="url(#i)" d="m289.853 565.778 164.084-152.311-118.313 9.672 4.969 38.648-121.55 114.627 16.199 91.068c4.412 28.902 18.776 82.85 71.939 78.449l56.244-4.605c-29.202-17.178-45.81-45.41-53.85-81.951l-19.722-93.597z"/><linearGradient id="j" x1="-2551.3638" x2="-2551.3638" y1="-981.5176" y2="-1403.1041" gradientTransform="translate(2006.764 1323.43) scale(.5974)" gradientUnits="userSpaceOnUse"><stop offset="0" style="stop-color:#f5a200"/><stop offset="0.4" style="stop-color:#ef8000"/><stop offset="1" style="stop-color:#e1002a"/></linearGradient><path fill="url(#j)" d="m424.502 579.801-51.84 160.689 62.282-5.098 40.011-123.973c3.117-9.818 6.769-22.178 14.914-31.105 5.616-6.467 13.393-11.006 19.476-11.504 7.573-.65 13.34 3.191 14.739 10.885 2.274 8.01-1 18.221-4.154 28.008l-39.944 123.971 62.287-5.109 39.351-122.229c7.565-23.506 15.146-43.633 8.024-61.635-7.189-17.992-23.135-22.717-42.616-21.115-18.37 1.451-36.143 9.871-51.854 27.139l7.385-22.885-81.914 6.699 3.853 47.262z"/><linearGradient id="k" x1="-1044.397" x2="-1044.397" y1="-1091.2251" y2="-1527.3333" gradientTransform="translate(2006.764 1323.43) scale(.5974)" gradientUnits="userSpaceOnUse"><stop offset="0" style="stop-color:#f5a200"/><stop offset="0.4" style="stop-color:#ef8000"/><stop offset="1" style="stop-color:#e1002a"/></linearGradient><path fill="url(#k)" d="M1293.413 612.227c14.463 12.67 33.131 21.025 55.822 19.172 10.027-.828 26.482-5.215 31.836-21.605 9.576-29.789-75.846-24.48-56.477-84.48 7.73-23.984 23.639-43.008 43.957-55.934 20.432-13.303 40.502-17.164 59.232-18.67 18.773-1.535 36.391.045 53.059 3.824l-14.967 46.193c-10.043-9.998-24.18-14.811-40.395-13.508-7.191.604-21.932 3.945-25.861 15.916-4.418 13.828 6.385 16.381 13.965 18.762 11.383 3.824 24.498 7.512 33.08 15.891 11.186 10.666 17.855 27.063 10.539 49.68-19.184 59.533-77.059 77.291-115.242 80.414-20.123 1.695-39.057-1.521-57.123-5.223l8.575-50.432z"/><linearGradient id="l" x1="-2002.9824" x2="-2002.9824" y1="-941.1079" y2="-1436.3525" gradientTransform="translate(2006.764 1323.43) scale(.5974)" gradientUnits="userSpaceOnUse"><stop offset="0" style="stop-color:#f5a200"/><stop offset="0.4" style="stop-color:#ef8000"/><stop offset="1" style="stop-color:#e1002a"/></linearGradient><path fill="url(#l)" d="M782.933 709.211c-42.503 16.344-69.529-9.584-69.529-51.615 0-26.248 16.525-95.914 74.199-136.424 25.73-18.037 59.621-29.307 103.889-30.068 33.379.061 49.895 3.043 67.902 9.094 0 0-19.723 13.152-27.795 38.922l-51.762 162.896c-41.24 127.441-154.931 148.59-218.867 91.021l50.342-51.102c2.664 8.859 7.316 15.584 13.701 20.197 30.263 21.893 71.968 2.281 95.712-70.658l46.877-147.441c-1.256-.305-2.01-1.059-3.26-1.346-21.529-7.311-43.324 2.816-62.002 28.787-8.227 11.746-14.648 26.441-19.949 50.584-3.975 17.668-2.063 63.348 41.602 36.818l-41.06 50.335z"/><linearGradient id="m" x1="-1282.4409" x2="-1282.4409" y1="-1053.7427" y2="-1486.9375" gradientTransform="translate(2006.764 1323.43) scale(.5974)" gradientUnits="userSpaceOnUse"><stop offset="0" style="stop-color:#f5a200"/><stop offset="0.4" style="stop-color:#ef8000"/><stop offset="1" style="stop-color:#e1002a"/></linearGradient><path fill="url(#m)" d="m1305.985 511.575 16.344-49.996-44.816 3.691 25.598-82.076-21.223 1.656c-37.701 88.141-96.73 100.293-96.73 100.293l-7.988 24.527 25.664-2.102-41.352 130.199c-10.689 32.049 12.543 67.16 65.338 36.438l38.746-53.707c-27.598 11.172-35.789-7.262-31.715-20.143l31.859-98.004 23.893-1.957c4.419-.292 12.205.648 16.382 11.181z"/><linearGradient id="n" x1="-2263.5884" x2="-2263.5884" y1="-987.2212" y2="-1417.5979" gradientTransform="translate(2006.764 1323.43) scale(.5974)" gradientUnits="userSpaceOnUse"><stop offset="0" style="stop-color:#f5a200"/><stop offset="0.4" style="stop-color:#ef8000"/><stop offset="1" style="stop-color:#e1002a"/></linearGradient><path fill="url(#n)" d="m719.396 508.827-81.877 6.73 3.869 47.254-51.792 160.719 62.234-5.149z"/><g fill="#EFEFF0"><path d="M743.328 611.36c19.416-51.762 47.427-82.975 92.46-101.48l-1.527-2c-49.219 17.584-79.182 49.713-99.613 104.219-18.971 50.561-5.781 86.326 28.05 92.213l2.055-2.365c-28.863-10.007-39.093-43.368-21.425-90.587zM878.091 545.768l-46.035 144.795c-14.252 43.727-34.863 68.215-55.701 76.119l1.092 1.508c23.299-4.461 47.344-29.236 63.244-78.305l45.176-141.896-7.776-2.221zM684.058 791.389l29.609-30.053-3.215-4.895-35.082 35.67c20.521 18.467 47.625 25.852 75.175 24.301l1.07-1.416c-24.239-1.089-49.053-6.88-67.557-23.607z"/></g><g fill="#EFEFF0"><path d="m1181.649 636.127 41.412-130.209-8.342.643-41.359 130.258c-7.828 23.461 6.219 51.141 47.73 29.182l1.504-2.832c-41.607 14.109-47.907-5.963-40.945-27.042zM1285.103 394.202c-33.244 79.031-88.932 92.822-88.932 92.822l-4.547 13.777 8.357-.633 3.613-10.207s55.242-14.455 86.604-96.361l-5.095.602z"/></g><path fill="#EFEFF0" d="m679.595 452.485 34.877-29.082-2.816-4.012-40.5 33.772 18.865 26.711 5.518-4.971zM1295.739 646.094l-1.867 8.967c53.615 11.105 89.443-1.807 111.77-17.119l-1.045-1.078c-21.282 14.457-66.051 23.844-108.858 9.23zM1461.917 477.616c-8.537-3.902-31.166-8.645-52.004 2.453l.805 1.736c23.148-8.715 39.252-1.074 48.691 3.277l2.508-7.466zM1355.114 494.192c-7.371 6.385-22.752 25.055-21.99 45.891 1.445 38.959 76.486 36.15 54.053 73.896l2.363.498c26.199-39.057-45.816-40.502-48.383-76.689-1.408-19.854 12.051-37.994 15.215-41.805l-1.258-1.791zM445.642 577.424l-4.148-38.004-7.8.662 4.021 37.711c-.851 2.76-33.681 104.453-48.383 149.816l8.228-.699 48.082-149.486zM662.529 560.409l-4.186-38.023-7.822.652 4.059 37.762c-.936 2.787-33.727 104.447-48.422 149.795l8.221-.662 48.15-149.524zM1029.323 452.561l-4.268-38.018-7.732.709 3.969 37.717c-.859 2.768-59.836 185.9-74.545 231.234l8.297-.693 74.279-230.949zM532.833 564.266l-2.161 2.195c2.161 1.342 10.035 10.869.505 40.518-7.694 23.789-28.216 87.824-36.045 111.867l8.28-.67 35.85-111.838c7.498-23.146 1.204-37.347-6.429-42.072zM1090.905 520.813l-2.215 2.225c2.215 1.387 10.037 10.891.551 40.602-7.77 23.768-28.246 87.74-36.076 111.875l8.328-.752 35.832-111.854c7.485-23.112 1.205-37.369-6.42-42.096zM256.465 665.727l-14.906-86.686L362.53 464.258l-4.524-33.852-8.033.668 3.975 31.65-121.415 114.941 16.704 92.625c7.032 34.533 17.789 57.818 39.75 65.615l6.15-.465c-20.944-10.24-33.094-37.016-38.672-69.713z"/></svg>