<svg xmlns="http://www.w3.org/2000/svg" width="416.75424mm" height="344.51901mm" viewBox="0 0 416.75424 344.51901"><defs><clipPath id="a" clipPathUnits="userSpaceOnUse"><path d="M0 0h425.197v595.276H0Z"/></clipPath><clipPath id="b" clipPathUnits="userSpaceOnUse"><path d="M0 0h425.197v595.276H0Z"/></clipPath><clipPath id="c" clipPathUnits="userSpaceOnUse"><path d="M0 0h425.197v595.276H0Z"/></clipPath></defs><g style="stroke-width:.516691"><g clip-path="url(#a)" style="stroke-width:.17392" transform="matrix(2.0284 0 0 -2.0284 -205.607 939.856)"><g style="stroke-width:.17392"><path d="M0 0c50.954 16.665 67.209 51.445 70.485 77.912 3.627-.866 10.086-3.66 13.209-3.72 4.875-.085 9.54 3.263 9.54 10.548 0 1.554-.015 11.186-.015 12.69-.013 1.684-.045 6.653-4.897 9.964l13.793 18.68H68.701v22.315c-13.678 11.892-39.328 21.459-68.713 21.459-29.368 0-55.018-9.567-68.699-21.459v-22.315h-34.634l10.792-12.606v-40.92s16.685 5.396 21.911 6.711C-68.806 54.199-50.734 15.916 0 0" style="fill:#fff;fill-opacity:1;fill-rule:nonzero;stroke:none;stroke-width:.17392" transform="translate(204.71 293.501)"/></g></g><path d="M185.48 103.983h1.785v7.992h-1.786z" style="fill:#002d72;fill-opacity:1;fill-rule:nonzero;stroke:none;stroke-width:.182277" transform="translate(-76.134 -134.002) scale(1.93539)"/><g clip-path="url(#b)" style="fill:#002d72;fill-opacity:1;stroke-width:.17392" transform="matrix(2.0284 0 0 -2.0284 -205.607 939.856)"><g style="fill:#002d72;fill-opacity:1;stroke-width:.17392"><path d="M0 0v-1.726h3.36c.285 0 .429.147.429.424v.766c0 .354-.174.536-.546.536Zm3.577 2.597c0 .284-.137.421-.416.421H0V1.317h3.071c.342 0 .506.172.506.519zm-5.174-5.748V4.46H3.54c1.123 0 1.679-.536 1.679-1.614V1.771c0-.484-.195-.848-.589-1.058.519-.184.771-.496.771-.958v-1.23c.007-1.122-.529-1.676-1.612-1.676Z" style="fill:#002d72;fill-opacity:1;fill-rule:nonzero;stroke:none;stroke-width:.17392" transform="translate(234.082 425.737)"/></g></g><g style="fill:#002d72;fill-opacity:1;stroke-width:.17392"><path d="M0 0h-3.555v2.959h-1.671v-7.612h1.671v3.151H0v-3.151h1.671v7.612H0Z" style="fill:#002d72;fill-opacity:1;fill-rule:nonzero;stroke:none;stroke-width:.17392" transform="matrix(2.0284 0 0 -2.0284 126.824 73.246)"/></g><g clip-path="url(#c)" style="fill:#002d72;fill-opacity:1;stroke-width:.17392" transform="matrix(2.0284 0 0 -2.0284 -205.607 939.856)"><g style="fill:#002d72;fill-opacity:1;stroke-width:.17392"><path d="M0 0h3.113v-2.205h-3.54v1.778c0 .08-.022.242.055.334C-.289.012-.17-.015 0 0m-1.731 1.06c-.345-.362-.362-.89-.377-1.185v-6.012h1.681v2.442h3.54v-2.442h1.672v7.626H-.419c-.499 0-.971-.065-1.312-.429" style="fill:#002d72;fill-opacity:1;fill-rule:nonzero;stroke:none;stroke-width:.17392" transform="translate(201.908 428.708)"/></g><g style="fill:#002d72;fill-opacity:1;stroke-width:.17392"><path d="M0 0h-5.222v-7.626h1.67v6.137h3.135c.153-.015.29 0 .35-.093.092-.092.067-.254.072-.334v-5.71h1.666v6.012c-.002.294-.012.823-.374 1.185C.948-.065.486 0 0 0" style="fill:#002d72;fill-opacity:1;fill-rule:nonzero;stroke:none;stroke-width:.17392" transform="translate(188.367 430.197)"/></g><g style="fill:#002d72;fill-opacity:1;stroke-width:.17392"><path d="M0 0c0-.097 0-.247-.062-.347-.09-.099-.2-.072-.37-.084H-3.56v6.119h-1.666v-7.626h5.211c.504.015.97.092 1.3.439.361.359.382.895.394 1.192v5.995H0Z" style="fill:#002d72;fill-opacity:1;fill-rule:nonzero;stroke:none;stroke-width:.17392" transform="translate(179.997 424.51)"/></g><g style="fill:#002d72;fill-opacity:1;stroke-width:.17392"><path d="M0 0c0-.097.012-.247-.058-.347-.087-.099-.199-.072-.359-.084h-3.128v4.63h3.128c.16-.015.272 0 .359-.093.07-.092.058-.254.058-.334Zm1.669 4.074c0 .294-.023.823-.372 1.185-.357.364-.811.429-1.304.429h-5.229v-7.626h5.229c.493.015.947.092 1.304.439.349.359.372.895.372 1.192z" style="fill:#002d72;fill-opacity:1;fill-rule:nonzero;stroke:none;stroke-width:.17392" transform="translate(196.754 424.51)"/></g></g><g style="fill:#002d72;fill-opacity:1;stroke-width:.17392"><path d="m0 0-2.013 3.33h-1.991l3.116-4.797v-2.829H.903v2.829L4.011 3.33H2.038Z" style="fill:#002d72;fill-opacity:1;fill-rule:nonzero;stroke:none;stroke-width:.17392" transform="matrix(2.0284 0 0 -2.0284 139.551 74)"/></g><path d="M151.49 111.975h1.864v-7.992h-1.864z" style="fill:#002d72;fill-opacity:1;fill-rule:nonzero;stroke:none;stroke-width:.182277" transform="translate(-76.134 -134.002) scale(1.93539)"/><g style="fill:#002d72;fill-opacity:1;stroke-width:.17392"><path d="M0 0v-7.626h1.676v4.822l1.637-4.822h1.469l1.619 4.822v-4.822h1.677V0H5.853L4.046-5.363 2.22 0Z" style="fill:#002d72;fill-opacity:1;fill-rule:nonzero;stroke:none;stroke-width:.17392" transform="matrix(2.0284 0 0 -2.0284 229.527 67.245)"/></g><g style="fill:#002d72;fill-opacity:1;stroke-width:.17392"><path d="M0 0c0-.067 0-.155-.045-.212-.082-.117-.197-.1-.362-.117h-2.714c-.15.017-.272 0-.364.117a.4.4 0 0 0-.06.212v3.665c0 .067.02.159.06.207.092.102.214.102.364.102h2.714c.165 0 .28 0 .362-.102C0 3.824 0 3.732 0 3.665Zm1.305 5.206c-.342.365-.806.43-1.305.43h-3.545c-.484 0-.935-.065-1.287-.43-.349-.361-.367-.89-.374-1.174V-.359c.007-.322.025-.833.374-1.193.352-.346.803-.424 1.287-.439H0c.499.015.963.093 1.305.439.359.36.361.871.361 1.193v4.391c0 .284-.002.813-.361 1.174" style="fill:#002d72;fill-opacity:1;fill-rule:nonzero;stroke:none;stroke-width:.17392" transform="matrix(2.0284 0 0 -2.0284 259.356 78.676)"/></g><g style="fill:#002d72;fill-opacity:1;stroke-width:.17392"><path d="M0 0h-3.163c-.295 0-.452.145-.452.439v.749c0 .289.157.426.437.426H1.2v1.477h-4.792c-1.103 0-1.682-.551-1.682-1.686V.132c0-1.042.549-1.561 1.622-1.561h3.168c.287 0 .424-.143.424-.419v-.764c0-.292-.137-.441-.436-.441h-4.458v-1.482H-.07c1.118 0 1.677.569 1.677 1.691v1.277C1.607-.511 1.078 0 0 0" style="fill:#002d72;fill-opacity:1;fill-rule:nonzero;stroke:none;stroke-width:.17392" transform="matrix(2.0284 0 0 -2.0284 299.742 73.515)"/></g><g style="fill:#002d72;fill-opacity:1;stroke-width:.17392"><path d="M0 0c-2.22-.145-4.598-.299-6.778-.459v12.74h-9.989s2.41-1.314 2.353-4.67c0-9.649-.008-29.232-.008-29.232 2.552.573 5.079 1.1 7.644 1.601v13.429c2.18.237 4.59.459 6.778.679v-13.013c2.575.437 5.047.826 7.631 1.188v30.018H0Z" style="fill:#002d72;fill-opacity:1;fill-rule:nonzero;stroke:none;stroke-width:.17392" transform="matrix(2.0284 0 0 -2.0284 115.495 124.739)"/></g><g style="fill:#002d72;fill-opacity:1;stroke-width:.17392"><path d="M0 0h-18.66s2.34-1.135 2.302-4.041v-21.05c0-2.822 2.108-4.234 5.85-3.845 3.503.337 6.851.631 10.363.858 3.752.235 5.968 1.809 5.992 4.344v19.723C5.857-1.487 3.702 0 0 0m-1.796-22.45c-.005-.643-.552-1.042-1.502-1.107-1.27-.075-2.672-.165-3.962-.26-.928-.07-1.476.272-1.454.916v17.036c0 .661.494 1.045 1.415 1.065 1.269.01 2.853.025 4.108.053.923.01 1.395-.362 1.395-.998z" style="fill:#002d72;fill-opacity:1;fill-rule:nonzero;stroke:none;stroke-width:.17392" transform="matrix(2.0284 0 0 -2.0284 173.065 99.828)"/></g><g style="fill:#002d72;fill-opacity:1;stroke-width:.17392"><path d="M0 0h-18.363s2.454-1.058 2.47-3.817c0-7.868-.016-24.118-.016-24.118 5.392-.295 11.002-.741 16.388-1.352 3.72-.42 5.553.868 5.501 3.632v6.598c-.038 2.749-1.42 4.284-5.381 4.705 3.961-.037 5.433 1.247 5.381 4.007v5.992C5.928-1.597 3.712.012 0 0m-1.656-23.151c.005-.653-.524-.988-1.465-.928-1.671.14-3.467.275-5.144.402v7.531a571.43 571.43 0 0 0 5.132-.276c.923-.045 1.452-.454 1.477-1.106zm0 12.237c.005-.649-.524-1.018-1.452-.97-1.667.067-3.498.119-5.157.174v6.935c1.659-.025 3.473-.057 5.132-.095.923-.005 1.452-.391 1.477-1.05z" style="fill:#002d72;fill-opacity:1;fill-rule:nonzero;stroke:none;stroke-width:.17392" transform="matrix(2.0284 0 0 -2.0284 272.386 99.828)"/></g><g style="fill:#002d72;fill-opacity:1;stroke-width:.17392"><path d="M0 0c.015-.748-.524-1.09-1.417-.948-1.242.2-2.485.531-3.727.706-.923.137-1.462.788-1.467 1.509v24.98h-10.156s2.457-1.151 2.517-4.162V.619c0-3.111 2.256-5.032 5.997-5.658C-4.84-5.608-1.524-6.401 1.868-7.09c3.7-.773 5.826.559 5.778 3.747v29.59H0Z" style="fill:#002d72;fill-opacity:1;fill-rule:nonzero;stroke:none;stroke-width:.17392" transform="matrix(2.0284 0 0 -2.0284 320.074 153.066)"/></g><g style="fill:#002d72;fill-opacity:1;stroke-width:.17392"><path d="M0 0h-21.344s4.378-5.109 4.378-5.286v-35.34c2.594.838 5.199 1.634 7.791 2.398v12.418c2.953.504 6.092 1.033 9.045 1.604 3.595.649 5.803 2.849 5.84 5.955 0 4.413.01 8.841.01 13.257C5.765-1.893 3.622-.012 0 0m-2.071-16.784c-.074-.756-.591-1.273-1.451-1.38-1.951-.272-3.697-.533-5.653-.816.027 4.154-.03 8.29 0 12.441 1.97.105 3.722.183 5.68.27.863.045 1.377-.384 1.424-1.135-.047-3.118.04-6.254 0-9.38" style="fill:#002d72;fill-opacity:1;fill-rule:nonzero;stroke:none;stroke-width:.17392" transform="matrix(2.0284 0 0 -2.0284 67.367 99.828)"/></g><g style="fill:#002d72;fill-opacity:1;stroke-width:.17392"><path d="M0 0s2.447-1.35 2.517-4.87c0-2.419-.037-3.619-.037-6.139 0-2.367 1.03-3.657 2.971-4.81 1.774-1.045 8.539-4.508 10.063-5.433.801-.514.913-1.105.913-1.874v-8.714c0-.973-.513-1.399-1.407-1.194-1.112.334-2.295.77-3.342 1.08-1.013.359-1.392.988-1.403 1.926v4.904c-2.499.444-4.974.871-7.473 1.262 0 0-.043-4.27 0-6.411.044-3.512 2.04-5.803 5.859-7.082 3.161-1.058 6.409-2.196 9.565-3.174 3.617-1.112 5.71.609 5.71 4.785 0 3.081-.029 9.523-.029 12.513 0 2.218-.442 4.284-2.877 5.738-2.946 1.754-8.257 4.486-9.956 5.471-.626.369-.933.739-.933 1.639-.03 1.502 0 1.624 0 3.306-.01.905.509 1.437 1.477 1.387 3.617-.15 7.803-.302 11.395-.482A231.254 231.254 0 0 1 27.621 0z" style="fill:#002d72;fill-opacity:1;fill-rule:nonzero;stroke:none;stroke-width:.17392" transform="matrix(2.0284 0 0 -2.0284 339.156 99.828)"/></g><g style="fill:#002d72;fill-opacity:1;stroke-width:.17392"><path d="M0 0c-.022 0 2.417-1.058 2.402-3.767v-23.864c6.409.185 12.514.157 18.928-.097v5.168c-3.705.128-7.574.19-11.289.19v5.518c3.241 0 6.781-.024 10.016-.104v5.882c-3.235.057-6.79.073-10.016.073v5.877c3.662 0 7.624-.005 11.289-.047V0H2.432Z" style="fill:#002d72;fill-opacity:1;fill-rule:nonzero;stroke:none;stroke-width:.17392" transform="matrix(2.0284 0 0 -2.0284 187.694 99.828)"/></g><g style="fill:#da291c;fill-opacity:1;stroke-width:.17392"><path d="M0 0c4.578 5.83 29.173 21.881 64.857 23.59-3.179.329-39.272 7.149-73.132-18.182v-18.073H0Z" style="fill:#da291c;fill-opacity:1;fill-rule:nonzero;stroke:none;stroke-width:.17392" transform="matrix(2.0284 0 0 -2.0284 98.083 60.844)"/></g><g style="fill:#da291c;fill-opacity:1;stroke-width:.17392"><path d="M0 0c6.391 1.602 46.753 16.288 44.999 54.606C30.365 57.078 13.149 58.064 0 58.064c-13.14 0-30.353-.986-44.984-3.458C-46.736 16.288-6.386 1.602 0 0" style="fill:#da291c;fill-opacity:1;fill-rule:nonzero;stroke:none;stroke-width:.17392" transform="matrix(2.0284 0 0 -2.0284 209.6 283.989)"/></g><g style="fill:#da291c;fill-opacity:1;stroke-width:.17392"><path d="M0 0c20.082 6.289 60.581 27.835 65.381 74.676-4.438 1.107-9.166 2.04-13.774 2.936C53.458 38.281 10.575 19.069 0 17.36c-10.548 1.709-53.431 20.921-51.6 60.252-4.603-.896-9.323-1.829-13.781-2.936C-60.561 27.835-20.065 6.289 0 0" style="fill:#da291c;fill-opacity:1;fill-rule:nonzero;stroke:none;stroke-width:.17392" transform="matrix(2.0284 0 0 -2.0284 209.6 332.951)"/></g><g style="fill:#da291c;fill-opacity:1;stroke-width:.17392"><path d="M0 0c8.941 1.577 41.057 5.209 70.727-15.385V-28.05h8.289v18.074C46.209 11.293 10.814 3.647 0 0" style="fill:#da291c;fill-opacity:1;fill-rule:nonzero;stroke:none;stroke-width:.17392" transform="matrix(2.0284 0 0 -2.0284 177.705 29.638)"/></g><g style="stroke-width:.17392"><path d="M0 0c-.509 17.316-14.384 30.934-31.942 30.934-17.578 0-31.433-13.601-31.947-30.899.217-.237.412-.454.624-.676a28.155 28.155 0 0 0 1.008 5.166l-.015-.045c5.273 4.935 12.568 8.213 19.897 9.842-.359-3.286-2.874-6.97-5.518-10.877-2.879-4.208-4.381-8.971-4.188-13.374.241-.142.481-.319.733-.474.646 4.224 3.041 8.327 5.835 12.406 3.036 4.466 6.516 8.834 6.598 12.943 1.787.294 3.56.451 5.292.514l1.312-34.859c.125-.04.269-.057.369-.087.12.015.222.047.354.087l1.312 34.859a42.017 42.017 0 0 0 5.304-.514c.072-4.109 3.56-8.477 6.586-12.943 2.799-4.079 5.187-8.202 5.845-12.428.247.169.492.324.731.486.185 4.398-1.317 9.176-4.196 13.384-2.652 3.907-5.149 7.591-5.513 10.877 7.334-1.629 14.624-4.907 19.882-9.842v.045c.499-1.681.816-3.42 1.013-5.189.205.225.427.444.624.664m-61.25 6.993c2.116 5.55 5.85 10.375 10.605 13.908 1.243.089 4.299.154 6.325-1.2.81-.557 1.382-1.313 1.738-2.266-7.022-1.813-13.583-5.396-18.668-10.442m21.949 11.143c-.519 1.507-1.49 2.732-2.869 3.66-1.382.913-2.979 1.39-4.488 1.634a31.347 31.347 0 0 0 12.546 3.62l.356-8.26a42.247 42.247 0 0 1-5.545-.654m17.587 3.66c-1.397-.928-2.36-2.153-2.869-3.66a42.634 42.634 0 0 1-5.56.654l.349 8.26a31.397 31.397 0 0 0 12.566-3.62c-1.51-.244-3.109-.721-4.486-1.634m.407-4.361a4.508 4.508 0 0 0 1.746 2.266c2.028 1.354 5.057 1.289 6.302 1.2 4.772-3.533 8.494-8.348 10.615-13.898-5.102 5.041-11.646 8.619-18.663 10.432" style="fill:#fff;fill-opacity:1;fill-rule:nonzero;stroke:none;stroke-width:.17392" transform="matrix(2.0284 0 0 -2.0284 274.39 244.463)"/></g></g></svg>