<svg xmlns="http://www.w3.org/2000/svg" xmlns:xlink="http://www.w3.org/1999/xlink" xml:space="preserve" id="레이어_1" x="0px" y="0px" style="enable-background:new 0 0 495 742.5" version="1.1" viewBox="0 0 495 742.5"><style>.st1{fill:#221e1f}.st2{fill:#cf1d24}</style><defs><path id="SVGID_1_" d="M0 0h495v742.5H0z"/></defs><clipPath id="SVGID_00000059279009814502119410000011558845611135670955_"><use xlink:href="#SVGID_1_" style="overflow:visible"/></clipPath><g style="clip-path:url(#SVGID_00000059279009814502119410000011558845611135670955_)"><path d="M100.4.4v21.1c0 1.2-.2 2.5-.7 3.6-.5 1.1-1.2 2.1-2.1 2.9-2.3 1.7-5.1 2.6-8 2.4h-1.9l-1.2-.2-1.5-.3-1.8-.4v-6c2.1.4 4.2.5 6.3.6 1.5 0 2.5-.4 2.8-1 .4-1 .7-2.2.6-3.3V.4h7.5zM120.2.4h7.3v21.2c0 1.2-.2 2.4-.7 3.5-.5 1.1-1.2 2-2.1 2.9-2.4 1.9-5.4 2.8-8.4 2.6-3 .2-6.1-.7-8.4-2.6-.9-.8-1.6-1.8-2.1-2.9-.5-1.1-.7-2.3-.7-3.5V.4h7.3v21.3c0 .4 0 .8.3 1.2.2.4.5.7.8.9.9.4 1.8.7 2.8.7s1.9-.2 2.8-.7c.4-.2.7-.5.8-.9.2-.4.3-.8.3-1.2V.4zM154.6.4V30h-6.3l-7.5-12.2-1.5-3.9h-.3l.2 4.8v11.2h-6.8V.4h6.3l7.7 12.8 1.3 3.3h.4l-.2-4.8V.4h6.7zM170 30.3c-2.9.2-5.7-.7-8.1-2.4-.9-.8-1.6-1.8-2.1-3s-.7-2.4-.7-3.6V9c0-1.2.2-2.5.7-3.6.5-1.2 1.2-2.2 2.1-3C164.2.7 167.1-.2 170 0c2.9 0 5.8.4 8.6.9v6c-2.9-.5-5.7-.8-8.6-.9-.6 0-1.2 0-1.7.2s-1.1.5-1.5.8c-.7.8-1 1.9-.9 3v10.2c-.1.6 0 1.2.2 1.7s.5 1 .9 1.4c.4.4.9.7 1.5.9.5.2 1.1.2 1.7.1 1.3 0 2.6-.1 3.9-.3v-9h6.2v14c-3.4.9-6.8 1.3-10.3 1.3zM190 29.9V.4h7.2V30l-7.2-.1zm15.8-15L212.9.3H205l-7 15.1 7.3 14.5h8.4l-7.9-15zM244.9 29.9h-7.1l-3.6-12-3.5 12h-7.1L215 .3h7.7l3.6 13.5.9 7.1h.3l1.1-7.1 2.2-8.1-1.6-5.4h7.7l3.6 13.5.9 7.1h.3l1.1-7.1L246.5.3h7.2l-8.8 29.6zM268.3.4l8.6 29.6h-7.6l-1.5-5.5h-6.7l-1.5 5.5h-7.2L261.1.4h7.2zm-5.6 18.4h3.6l-.6-2.3-.9-7.1h-.3l-1.1 7.1-.7 2.3zM302.1.4V30h-6.3l-7.4-12.2-1.6-3.9h-.4l.2 4.8v11.2h-6.8V.4h6.3l7.7 12.8 1.3 3.3h.4l-.2-4.8V.4h6.8zM327.4.4v21.1c0 1.2-.1 2.5-.6 3.6s-1.2 2.1-2 3c-2.3 1.7-5.1 2.6-8 2.4h-1.9l-1.2-.2-1.5-.3-1.7-.4v-6c2.1.4 4.2.5 6.3.6 1.5 0 2.5-.4 2.8-1 .4-1 .7-2.2.6-3.3V.4h7.2zM345.6.4l8.6 29.6h-7.6l-1.5-5.5h-6.6L337 30h-7.2L338.4.4h7.2zM340 18.8h3.6l-.6-2.3-1-7.1h-.3l-1.1 7.1-.6 2.3zM379.4.4V30h-6.3l-7.5-12.2-1.5-3.9h-.4l.2 4.8v11.2h-6.8V.4h6.3l7.7 12.8 1.3 3.3h.4l-.2-4.8V.4h6.8zM394.8 30.3c-2.9.2-5.7-.7-8-2.4-.9-.8-1.6-1.8-2.1-3s-.7-2.4-.7-3.6V9c0-1.2.2-2.5.7-3.6.5-1.2 1.2-2.2 2.1-3C389.1.7 392-.2 394.9 0c2.9 0 5.8.4 8.6.9v6c-2.9-.5-5.7-.8-8.6-.9-.6-.1-1.1-.1-1.7.1-.5.2-1 .4-1.5.8-.4.4-.7.9-.9 1.4s-.2 1.1-.1 1.7v10.2c-.1.6 0 1.2.1 1.7.2.5.5 1 .9 1.4.4.4.9.7 1.4.9.5.2 1.1.2 1.7.2 1.3 0 2.6-.1 3.9-.3V15h6.2v14c-3.2.9-6.7 1.3-10.1 1.3zM33.8 107.5l8.4 25.2H25.6L18 107.5h-2.1v25.3H0V53.3h30.2l10.7 10.3v36.9l-7.1 7zM15.9 67.3v27.4h7.8c1.2 0 1.6-.4 1.6-1.6V68.9c0-1-.4-1.6-1.6-1.6h-7.8zM445.3 107.5l8.4 25.3h-16.5l-7.7-25.3h-2.1v25.2h-15.9V53.3h30.2l10.8 10.3v36.9l-7.2 7zm-17.9-40.2v27.4h7.8c1.2 0 1.6-.4 1.6-1.6V68.9c0-1-.4-1.6-1.6-1.6h-7.8zM47.7 53.3h30.8l2.8 14.8H64V87h13.2v13.7H64v17.4h16.7l-2.8 14.8H47.6l.1-79.6zM115.1 132.9H86.9V53.3h31.2l9.4 9.7v57.6l-12.4 12.3zm-12.4-65.6V119h7.4c1.3 0 1.6-.4 1.6-1.6V68.8c0-1-.4-1.5-1.4-1.5h-7.6zM189.1 100v20.6l-12.4 12.3h-28.9V53.3h31l9.4 9.7v21.8l-5.5 8.2 6.4 7zm-25.5-32.7v20.8h7.4c.3 0 .5 0 .8-.1.3-.1.5-.3.7-.4.2-.2.3-.4.4-.7.1-.3.1-.5.1-.8V68.8c0-1-.3-1.5-1.4-1.5h-8zm9.7 35.2c0-1.8-1-2.3-2.4-2.3h-7.2V119h8c1.3 0 1.6-.4 1.6-1.6v-14.9zM225.5 132.9h-18.4l-11.4-11.2v-58l10.7-10.3H226l10.7 10.3v58l-11.2 11.2zm-12.4-65.6c-1.1 0-1.4.5-1.4 1.5v48.5c0 1.2.2 1.6 1.6 1.6h6c1.3 0 1.6-.4 1.6-1.6V68.8c0-1-.4-1.5-1.4-1.5h-6.4zM273.3 132.9h-18.4l-11.4-11.2v-58l10.8-10.3h19.6l10.8 10.3v58l-11.4 11.2zm-12.4-65.6c-1.1 0-1.4.5-1.4 1.5v48.5c0 1.2.2 1.6 1.6 1.6h6.1c1.3 0 1.5-.4 1.5-1.6V68.8c0-1-.3-1.5-1.4-1.5h-6.4zM314.9 132.9h-19.6l-2.8-14.8h17.1c1.4 0 1.9-.4 1.9-1.6V102c0-2.2-.8-2.3-3-2.3h-8.2l-8.9-9v-27l10.8-10.3h22l2.8 14.8h-18.1c-1.3 0-2 .6-2 1.8v14.6c0 1.6.8 2.1 2.4 2.1h10l7.9 8.1V121l-12.3 11.9zM482.7 132.9H463l-2.8-14.7h17.2c1.4 0 1.9-.4 1.9-1.6V102c0-2.2-.8-2.3-3-2.3H468l-8.9-9v-27l10.8-10.3h22l2.8 14.8h-18c-1.3 0-2 .6-2 1.8v14.5c0 1.6.8 2.1 2.4 2.1h10l7.9 8.1v26.2l-12.3 12zM364 53.3l4 14.8h-10.6v64.8h-16.2V68.1h-10.6l4.1-14.8H364zM372.4 53.3h30.8l2.8 14.8h-17.3V87h13.1v13.7h-13.1v17.4h16.7l-2.8 14.8h-30.3l.1-79.6zM250.4 294.1v143.8l34.9 15.1-34.9 289.6L453.7 611V459.4L415 442.8l38.6-41.5v-79.9l37.5-62.5H300.4c-4.2 10-11.1 18.5-20 24.8-8.8 6.2-19.2 9.8-30 10.4zm77.2 27.3h48.8v104.5l-48.8-21.7v-82.8zm0 149.9 48.8 21.4-2.1 77.7-48.6 31.3 1.9-130.4z" class="st1"/><path d="M194.4 258.9H3.7l37.5 62.5V611l77.2 50V496.3l48.8 21.1v175.1l77.2 50V474.3L195.6 453l40.2-159.9c-9.2-1.9-17.7-6-24.9-12-7.2-5.9-12.8-13.6-16.5-22.2zm-55.5 169.2-20.4-8.9v-97.9h43.3l-22.9 106.8zM495 165.5H0V228h190.7c2-13.6 8.9-26 19.3-34.9s23.7-13.9 37.4-13.9 27 4.9 37.4 13.9c10.4 9 17.3 21.3 19.3 34.9h190.7l.2-62.5z" class="st2"/><path d="M299 228.2c-3.2-7.5-7.9-14.3-13.9-19.8-5.9-5.6-13-9.9-20.6-12.6 3.3-1.8 6.9-2.9 10.6-3.3 6.3 3.9 11.6 9.1 15.8 15.3 4.1 6.1 6.9 13.1 8.1 20.4zm-40.9-20.6c1.9 3 3.9 6 6.1 8.8 11 14.7 27.7 36.7 9.9 65.3-7.3 4.4-15.6 6.9-24.1 7.3v-90.7c2.1.1 4.1.4 6.2.7-.4 2.9.3 6 1.9 8.6zm-27.4 8.8c2.2-2.8 4.3-5.7 6.1-8.8 1.6-2.6 2.3-5.7 1.9-8.7 2-.4 4.1-.6 6.2-.7v90.7c-8.5-.4-16.8-2.9-24.1-7.3-17.8-28.5-1.2-50.6 9.9-65.2zm-3.9-27.7c5.7-2.5 11.8-3.8 18-4.1v8.4c-2.9.1-5.7.5-8.6 1.1-2.5-2.7-5.8-4.6-9.4-5.4zM250 193v-8.4c6.2.3 12.3 1.7 18 4.1-3.6.9-6.9 2.8-9.5 5.4-2.9-.6-5.7-1-8.7-1.2h.2zm-30.3-.6c3.7.4 7.4 1.5 10.7 3.3-7.7 2.7-14.7 7-20.7 12.6-5.9 5.6-10.6 12.3-13.9 19.8 1.2-7.3 4-14.3 8.1-20.4 4.2-6.1 9.5-11.3 15.8-15.3zM196 245.7c3.6-22.5 18.5-40 37.6-45.7.1 1.7-.4 3.5-1.3 4.9-1.7 2.9-3.6 5.6-5.6 8.2-10 13.2-25.9 34.4-15.2 61.2-8.1-7.6-13.5-17.6-15.5-28.6zm87.6 28.8c10.7-26.8-5.2-48-15.2-61.2-2-2.6-4-5.3-5.7-8.2-.9-1.5-1.4-3.2-1.3-4.9 19.1 5.8 34 23.3 37.6 45.7-2 10.9-7.4 20.9-15.4 28.6z" class="st2"/></g></svg>