<svg xmlns="http://www.w3.org/2000/svg" width="278.52402mm" height="170.75583mm" viewBox="0 0 278.52402 170.75583"><defs><clipPath id="a" clipPathUnits="userSpaceOnUse"><path d="M189.653 300.18h62.897v38.56h-62.897z"/></clipPath></defs><g clip-path="url(#a)" style="stroke-width:.0796639" transform="matrix(4.42833 0 0 -4.42833 -839.85 1500.05)"><g style="stroke-width:.0796639"><path d="M0 0c-3.045 1.516-5.349 4.26-6.33 7.784a13.118 13.118 0 0 0-.461 2.714c-.011.207-.014.35-.014.562 0 .291.021.616.041.902.114 1.58.522 3.08 1.163 4.445a12.524 12.524 0 0 0 3.045 4.096 12.401 12.401 0 0 0 3.57 2.184c1.29.521 2.694.847 4.176.912.079.003.159.017.238.019.094.002.188.006.283.006.094 0 .188-.004.282-.006.091-.002.182-.017.273-.021a12.604 12.604 0 0 0 3.57-.699 12.62 12.62 0 0 0 3.055-1.55c.088-.061.175-.113.261-.176.156-.116.297-.225.448-.349.071-.059.142-.129.212-.19a12.49 12.49 0 0 0 2.768-3.41s-1.677 1.534-4.521.72c0 0 5.098-1.951 5.919-4.794 0 0-1.891 2.555-4.712 2.294 0 0 4.565-4.169 4.511-7.66l-.383-2.389-1.423 1.139.576-1.71z" style="fill:#fff;fill-opacity:1;fill-rule:nonzero;stroke:none;stroke-width:.0796639" transform="translate(215.752 315.116)"/></g><g style="stroke-width:.0796639"><path d="M0 0c-.71 5.298-4.282 7.192-5.873 7.676 2.655-1.504 4.155-4.032 4.351-5.785-.621 1.388-1.674 2.558-3.428 2.9 1.922-1.2 2.555-2.642 2.831-4.179-1.64 2.791-5.142 3.837-8.138 3.269 0 0 1.518.927 2.801.888-.091.736-2.141.627-4.049 1.175-1.625.466-1.946 1.305-2.018 1.823.257-.396 1.056-.723 1.929-.625.779.089 1.593.566 1.632 1.691 0 0 .964.449 1.179.878-.245-.21-3.148-.911-4.96-1.039-.648-.007-.797.609-1.688.416.002.421.289.904.754 1.216 2.527 1.697 6.626.065 9.508-1.897 0 0-2.58 2.625-5.703 3.214-3.414.645-5.58-1.143-5.286-2.822-1.381-.346-2.807-1.651-2.371-3.079.456-1.488 1.62-2.04 1.62-2.04-.809 1.302 1.756 2.427 5.15 1.286-1.175.242-4.923.258-4.509-1.311.582.419 2.016.117 2.427-1.2.701-2.248-.78-6.115-3.813-7.832a12.52 12.52 0 0 1 5.988-1.518c.87 0 1.722.088 2.542.257l.858.228c-.235.644-.674 1.142-2.175 1.605C-6.926-4.587-5.86-8.02-5.86-8.02c1.48.67 2.19 1.993 2.097 3.527l1.79-1.691c.507 1.108.592 3.471-.26 5.028l1.46-1.661C-.691-1.805-.73-.424-1.207.74z" style="fill:#41030b;fill-opacity:1;fill-rule:nonzero;stroke:none;stroke-width:.0796639" transform="translate(233.146 320.509)"/></g><g style="stroke-width:.0796639"><path d="M0 0c.64.084 1.292.253 1.766.401C1.625.063 1.176-.268.69-.306Z" style="fill:#fff;fill-opacity:1;fill-rule:nonzero;stroke:none;stroke-width:.0796639" transform="translate(220.341 328.636)"/></g><g style="stroke-width:.0796639"><path d="M0 0c-1.283.039-2.802-.888-2.802-.888 2.997.568 6.5-.478 8.138-3.269-.275 1.537-.909 2.979-2.83 4.179C4.26-.32 5.313-1.49 5.934-2.878c-.196 1.753-1.695 4.279-4.347 5.782a.008.008 0 0 1-.004.002c.588-.178 1.445-.55 2.329-1.213A11.725 11.725 0 0 1 2.24 3.671l-.146.097-.087.058c-.362.237-.742.467-1.133.686-2.862 1.216-4.759 1.419-6.077 1.275-1.124-.122-2.076-.588-2.248-1.449.465-.084.669-.44 1.164-.435 1.811.128 4.715.829 4.959 1.039-.214-.429-1.178-.878-1.178-.878-.039-1.125-.853-1.602-1.633-1.691-.873-.098-1.671.229-1.928.625.072-.518.392-1.357 2.017-1.823C-2.141.627-.091.735 0 0" style="fill:#bb1137;fill-opacity:1;fill-rule:nonzero;stroke:none;stroke-width:.0796639" transform="translate(225.69 325.278)"/></g><g style="stroke-width:.0796639"><path d="M0 0c3.198.128 4.655-.954 4.598-2.736C6.861-.19 3.078 1.184 0 0" style="fill:#bb1137;fill-opacity:1;fill-rule:nonzero;stroke:none;stroke-width:.0796639" transform="translate(223.221 316.533)"/></g><g style="stroke-width:.0796639"><path d="M0 0c4.501-.262 5.871-2.771 5.871-2.771s-3.19.792-6.099-2.295c4.211 1.904 7.1.53 8.417-.94C7.786-1.377 4.466-.102 4.466-.102s1.841.008 4.072-1.843C6.88 1.405 1.907 1.504 0 0" style="fill:#bb1137;fill-opacity:1;fill-rule:nonzero;stroke:none;stroke-width:.0796639" transform="translate(222.577 322.073)"/></g><g style="stroke-width:.0796639"><path d="M0 0c-.004.581.513.71.882.777.832.749 3.345.699 4.268.509C1.756 2.427-.809 1.302 0 0" style="fill:#bb1137;fill-opacity:1;fill-rule:nonzero;stroke:none;stroke-width:.0796639" transform="translate(216.237 324.189)"/></g><g style="stroke-width:.0796639"><path d="M0 0c1.817-.221 2.967-.846 3.661-1.704C2.955 1.759.346 2.938-2.231 3.228c1.466.185 3.136.053 4.494-.748A12.573 12.573 0 0 1-.8 6.134c-1.381-1.221-2.39-3.057-2.996-5.008C-1.867-.17-.62-1.772-.112-2.603c1.043-.858 2.609-2.095 3.49-4.303.094.342.174.69.238 1.043C3.948-3.285 2.705-.915 0 0" style="fill:#fcd205;fill-opacity:1;fill-rule:nonzero;stroke:none;stroke-width:.0796639" transform="translate(230.151 329.805)"/></g><g style="stroke-width:.0796639"><path d="M0 0c.805.958 2.195 1.508 3.814 1.508.096 0 .194-.003.293-.006v5.94a12.458 12.458 0 0 1-7.552-2.75C-2.251 3.408-1.097 1.555-.386-.59c.1.205.23.403.386.59" style="fill:#fcd205;fill-opacity:1;fill-rule:nonzero;stroke:none;stroke-width:.0796639" transform="translate(217.074 331.292)"/></g><g style="stroke-width:.0796639"><path d="M0 0c.706 2.124 1.845 3.905 3.061 5.03A12.46 12.46 0 0 1-4.1 7.476V1.497c.209-.022.42-.053.631-.099A11.453 11.453 0 0 0 0 0" style="fill:#fcd205;fill-opacity:1;fill-rule:nonzero;stroke:none;stroke-width:.0796639" transform="translate(225.843 331.258)"/></g><g style="stroke-width:.0796639"><path d="M0 0c.408.722 1.184 1.349 2.052 1.682C1.417 4.063.177 6.203-1.146 7.623a12.483 12.483 0 0 1-4.252-9.396l.002-.048h5.13C-.444-1.221-.33-.586 0 0" style="fill:#fcd205;fill-opacity:1;fill-rule:nonzero;stroke:none;stroke-width:.0796639" transform="translate(214.342 327.996)"/></g><g style="stroke-width:.0796639"><path d="M0 0c-.413 0-.751-.233-.877-.448a4.547 4.547 0 0 0-2.355 2.257h-5.339a12.51 12.51 0 0 1 5.45-9.732c1.653.952 5.149 3.419 4.384 6.922C1.109-.297.502 0 0 0" style="fill:#fcd205;fill-opacity:1;fill-rule:nonzero;stroke:none;stroke-width:.0796639" transform="translate(217.53 323.805)"/></g><g style="stroke-width:.0796639"><path d="M0 0c.344.144.815.239 1.513.097 0 0-.164.181-.213.46C1.3.557.397.393 0 0" style="fill:#fcd205;fill-opacity:1;fill-rule:nonzero;stroke:none;stroke-width:.0796639" transform="translate(217.43 327.7)"/></g><g style="stroke-width:.0796639"><path d="M0 0c-.465-.312-.751-.796-.754-1.216.211.046.38.045.524.019C-.057-.336.895.13 2.019.252 3.338.396 5.236.193 8.101-1.025 5.401.488 2.138 1.436 0 0" style="fill:#fcd205;fill-opacity:1;fill-rule:nonzero;stroke:none;stroke-width:.0796639" transform="translate(218.469 330.813)"/></g><g style="stroke-width:.0796639"><path d="m0 0-1.116 2.644h-29.569l-3.482-.407-2.009.409-4.719-.002-2.088-1.737-.026 1.737h-6.287l-1.666-1.618-.692 1.618h-9.542l1.147-2.209-1.132-2.013 1.425-1.682-3.141-1.51 1.116-2.644h6.372l.005.001 4.536.45 1.339 1.596 3.069-1.57.017-.01 2.893-.507 3.31.669.425.978 5.964-1.607h11.124l3.111.677.38.848 8.06-1.876.363.351h6.16l3.009 3.473-1.078 2.633z" style="fill:#41030b;fill-opacity:1;fill-rule:nonzero;stroke:none;stroke-width:.0796639" transform="translate(252.551 307.945)"/></g><g style="stroke-width:.0796639"><path d="m0 0-3.548.001-.427.505.608 1.082H.362l-.4-1.263L2.6 1.592l-.774 1.833h-8.283l.865-1.666.012.005-1.099-1.952 1.388-1.639h3.549l.22-.524-1.195-1.38-3.396.026.4 1.263-2.638-1.268.773-1.832h5.98l2.627 3.031z" style="fill:#fcd205;fill-opacity:1;fill-rule:nonzero;stroke:none;stroke-width:.0796639" transform="translate(198.71 306.619)"/></g><g style="stroke-width:.0796639"><path d="m0 0-3.548.001-.428.505.609 1.082H.362L-.039.325 2.6 1.592l-.774 1.833h-8.283l.865-1.666.012.005-1.099-1.952 1.388-1.639h3.549l.22-.524-1.195-1.38-3.396.026.4 1.263-2.638-1.268.773-1.832h5.98l2.627 3.031z" style="fill:#fcd205;fill-opacity:1;fill-rule:nonzero;stroke:none;stroke-width:.0796639" transform="translate(249.247 306.619)"/></g><g style="stroke-width:.0796639"><path d="m0 0 1.624 1.863-9.124-.002.739-1.644-3.318-7.324h7.429l1.658 1.863h-5.706L-4.398 0Z" style="fill:#fcd205;fill-opacity:1;fill-rule:nonzero;stroke:none;stroke-width:.0796639" transform="translate(230.048 308.183)"/></g><g style="stroke-width:.0796639"><path d="m0 0 .861 1.863h-2.949L-4.176 0Z" style="fill:#fcd205;fill-opacity:1;fill-rule:nonzero;stroke:none;stroke-width:.0796639" transform="translate(228.822 304.737)"/></g><g style="stroke-width:.0796639"><path d="m0 0-3.132-.459-2.354-2.603-2.346-1.863h1.794l1.655-3.554 2.494-.636-2.067 4.714z" style="fill:#fcd205;fill-opacity:1;fill-rule:nonzero;stroke:none;stroke-width:.0796639" transform="translate(221.626 310.046)"/></g><g style="stroke-width:.0796639"><path d="m0 0 .82-1.579-3.365-7.388 2.763.561L3.991.002z" style="fill:#fcd205;fill-opacity:1;fill-rule:nonzero;stroke:none;stroke-width:.0796639" transform="translate(211.71 310.044)"/></g><g style="stroke-width:.0796639"><path d="m0 0-9.883-.002.814-1.579-3.365-7.388 2.778.605 2.941 6.597h3.425l-1.074-1.792h-1.307L-7.76-5.422h2.521l1.276-3.054 2.913-.687-1.944 4.572 1.791 1.99z" style="fill:#fcd205;fill-opacity:1;fill-rule:nonzero;stroke:none;stroke-width:.0796639" transform="translate(242.207 310.046)"/></g><g style="stroke-width:.0796639"><path d="m0 0 .699-1.346-6.624-7.622 3.312.421 5.177 5.982v-2.461H1.515L-.573-6.89h3.137v-1.682l2.418-.396V0Z" style="fill:#fcd205;fill-opacity:1;fill-rule:nonzero;stroke:none;stroke-width:.0796639" transform="translate(204.017 310.044)"/></g><g style="stroke-width:.0796639"><path d="M0 0h-2.654v4.465h-1.283v-5.548H0Z" style="fill:#656263;fill-opacity:1;fill-rule:nonzero;stroke:none;stroke-width:.0796639" transform="translate(203.953 314.689)"/></g><g style="stroke-width:.0796639"><path d="M0 0c.862 0 1.703.22 2.162.54v2.693H-.065V2.195H.981v-.969a3.001 3.001 0 0 0-.926-.147c-1.152 0-1.538.587-1.538 1.777 0 1.138.365 1.804 1.52 1.804.641 0 1.006-.201 1.309-.585l.796.731c-.483.696-1.336.907-2.133.907-1.794 0-2.737-.979-2.737-2.846C-2.728 1.007-1.878 0 0 0" style="fill:#656263;fill-opacity:1;fill-rule:nonzero;stroke:none;stroke-width:.0796639" transform="translate(206.837 313.524)"/></g></g></svg>