<svg xmlns="http://www.w3.org/2000/svg" width="1284.936767578125px" height="419.3720397949219px" x="0px" y="0px" style="enable-background:new 0 0 1400 980" viewBox="0 0 1284.936767578125 419.3720397949219"><defs><clipPath id="a" clipPathUnits="userSpaceOnUse"><path d="M0 841.89h595.28V0H0Z"/></clipPath></defs><path fill="none" d="M0 0h1284.937v419.372H0z" style="fill:#002bff;fill-opacity:0;pointer-events:none"/><g clip-path="url(#a)" transform="matrix(2.75153 0 0 -2.75153 -166.018 1546.256)"><path d="M0 0v-1.427c0-.609.104-1.094.313-1.46.211-.355.602-.535 1.181-.535.485 0 .86.143 1.136.424.272.285.407.637.407 1.066 0 .712-.256 1.334-.774 1.867C1.755.477.96 1.126-.099 1.883a24.55 24.55 0 0 1-.385.289c-.255.21-.45.374-.581.475-.515.405-.932.755-1.254 1.05a5.967 5.967 0 0 0-.882.987 4.695 4.695 0 0 0-.626 1.28 5.815 5.815 0 0 0-.228 1.68c0 1.856.488 3.216 1.459 4.096.973.869 2.377 1.306 4.214 1.306 1.876 0 3.273-.417 4.184-1.271.903-.859 1.358-2.047 1.358-3.568V6.462H3.013V7.5c0 .629-.094 1.141-.277 1.539-.185.393-.561.591-1.118.591-.466 0-.84-.13-1.114-.394-.273-.254-.413-.609-.413-1.054 0-.483.286-.994.846-1.538.562-.538 1.411-1.221 2.534-2.06l.315-.24c.176-.144.434-.364.769-.647.502-.391.899-.731 1.198-1.016.294-.293.58-.647.841-1.063.265-.418.48-.917.641-1.495.16-.577.243-1.262.243-2.055 0-.509-.106-1.052-.318-1.608-.205-.571-.547-1.104-1.012-1.61-.464-.498-1.091-.911-1.88-1.226-.79-.319-1.729-.475-2.821-.475-1.05 0-1.939.144-2.678.434-.739.295-1.338.679-1.789 1.16a4.669 4.669 0 0 0-.976 1.541 4.864 4.864 0 0 0-.3 1.643V0z" style="fill:#231916;fill-opacity:1;fill-rule:nonzero;stroke:none" transform="translate(159.114 420.69)"/><path d="M0 0h9.87v-3.72H4.442v-3.835h4.745v-3.712H4.442v-4.299h5.643v-3.709H0Z" style="fill:#231916;fill-opacity:1;fill-rule:nonzero;stroke:none" transform="translate(178.046 433.432)"/><path d="M0 0c0-.192.007-.374.023-.554.015-.175.059-.361.147-.553a.993.993 0 0 1 .388-.467c.172-.124.413-.18.721-.18.304 0 .542.056.721.18.177.117.307.278.388.467.08.192.125.378.143.553.016.18.022.362.022.554v9.531c0 .249-.006.454-.022.634a1.662 1.662 0 0 1-.143.524.99.99 0 0 1-.388.437c-.179.11-.417.172-.721.172-.308 0-.549-.062-.721-.172a.938.938 0 0 1-.388-.437 1.422 1.422 0 0 1-.147-.524A7.212 7.212 0 0 1 0 9.531Zm-4.438 9.139c0 1.823.522 3.211 1.562 4.157 1.05.945 2.43 1.418 4.155 1.418 1.717 0 3.101-.473 4.148-1.418 1.047-.946 1.571-2.334 1.571-4.157V.39c0-1.713-.519-3.084-1.544-4.075-1.035-1.002-2.425-1.498-4.175-1.498-1.754 0-3.144.496-4.174 1.498-1.031.991-1.543 2.362-1.543 4.075z" style="fill:#231916;fill-opacity:1;fill-rule:nonzero;stroke:none" transform="translate(204.197 419.022)"/><path d="M0 0h4.436v-14.068c0-.675.067-1.169.205-1.479.138-.319.498-.474 1.074-.474.583 0 .936.155 1.073.474.135.31.203.804.203 1.479V0h4.446v-14.02c0-1.712-.521-3.084-1.554-4.074-1.029-1.002-2.416-1.498-4.168-1.498-1.752 0-3.142.496-4.174 1.498C.518-17.104 0-15.732 0-14.02Z" style="fill:#231916;fill-opacity:1;fill-rule:nonzero;stroke:none" transform="translate(222.82 433.432)"/><path d="M0 0h4.444v-15.566h4.819v-3.709H0Z" style="fill:#231916;fill-opacity:1;fill-rule:nonzero;stroke:none" transform="translate(245.875 433.432)"/><path d="M0 0v-1.427c0-.609.108-1.094.32-1.46.205-.355.598-.535 1.181-.535.479 0 .857.143 1.134.424.267.285.404.637.404 1.066 0 .712-.255 1.334-.768 1.867-.513.542-1.3 1.191-2.362 1.948l-.384.289c-.264.21-.456.374-.583.475-.511.405-.934.755-1.251 1.05a5.444 5.444 0 0 0-.884.987 4.296 4.296 0 0 0-.623 1.28c-.16.498-.231 1.051-.231 1.68 0 1.856.485 3.216 1.456 4.096.97.869 2.38 1.306 4.21 1.306 1.885 0 3.279-.417 4.188-1.271.904-.859 1.364-2.047 1.364-3.568V6.462H3.02V7.5c0 .629-.092 1.141-.281 1.539-.182.393-.554.591-1.12.591-.466 0-.834-.13-1.108-.394-.273-.254-.41-.609-.41-1.054 0-.483.28-.994.843-1.538.557-.538 1.411-1.221 2.528-2.06l.319-.24c.183-.144.43-.364.775-.647.496-.391.893-.731 1.192-1.016.293-.293.58-.647.843-1.063.264-.418.479-.917.638-1.495.159-.577.241-1.262.241-2.055 0-.509-.104-1.052-.309-1.608-.212-.571-.551-1.104-1.016-1.61-.465-.498-1.093-.911-1.885-1.226-.785-.319-1.729-.475-2.82-.475-1.046 0-1.941.144-2.678.434-.739.295-1.334.679-1.787 1.16-.443.483-.778.997-.97 1.541a4.703 4.703 0 0 0-.303 1.643V0z" style="fill:#231916;fill-opacity:1;fill-rule:nonzero;stroke:none" transform="translate(282.66 420.69)"/><path d="M0 0h2.219L1.183 9.429h-.046Zm-1.783 12.423h5.89L7.721-6.853H3.062l-.41 3.431H-.459l-.455-3.431h-4.439z" style="fill:#231916;fill-opacity:1;fill-rule:nonzero;stroke:none" transform="translate(306.135 421.009)"/><path d="M0 0h6.998l1.25-9.559H8.3L9.551 0h6.998v-19.275h-4.295V-4.3h-.053l-2.48-14.975H6.828L4.341-4.3h-.049v-14.975H0Z" style="fill:#231916;fill-opacity:1;fill-rule:nonzero;stroke:none" transform="translate(324.781 433.432)"/><path d="M0 0v-1.427c0-.609.107-1.094.316-1.46.205-.355.598-.535 1.181-.535.483 0 .86.143 1.131.424.272.285.413.637.413 1.066 0 .712-.257 1.334-.778 1.867C1.752.477.967 1.126-.096 1.883c-.077.062-.211.161-.383.289-.264.21-.457.374-.586.475-.511.405-.928.755-1.25 1.05a5.5 5.5 0 0 0-.88.987c-.27.368-.479.795-.628 1.28-.154.498-.229 1.051-.229 1.68 0 1.856.486 3.216 1.464 4.096.963.869 2.369 1.306 4.203 1.306 1.885 0 3.28-.417 4.188-1.271.912-.859 1.361-2.047 1.361-3.568V6.462H3.016V7.5c0 .629-.096 1.141-.278 1.539-.185.393-.556.591-1.123.591-.466 0-.834-.13-1.103-.394-.278-.254-.414-.609-.414-1.054 0-.483.277-.994.842-1.538.564-.538 1.412-1.221 2.531-2.06l.316-.24c.178-.144.434-.364.772-.647.498-.391.894-.731 1.195-1.016.297-.293.576-.647.846-1.063.26-.418.478-.917.635-1.495.16-.577.238-1.262.238-2.055 0-.509-.098-1.052-.309-1.608a4.907 4.907 0 0 0-1.013-1.61c-.462-.498-1.094-.911-1.882-1.226-.785-.319-1.732-.475-2.821-.475-1.048 0-1.94.144-2.682.434-.737.295-1.332.679-1.782 1.16-.449.483-.779.997-.973 1.541a4.682 4.682 0 0 0-.304 1.643V0Z" style="fill:#231916;fill-opacity:1;fill-rule:nonzero;stroke:none" transform="translate(357.201 420.69)"/><path d="M0 0h4.439v-14.068c0-.675.067-1.169.207-1.479.137-.319.497-.474 1.076-.474.573 0 .93.155 1.067.474.141.31.209.804.209 1.479V0h4.439v-14.02c0-1.712-.515-3.084-1.548-4.074-1.026-1.002-2.412-1.498-4.167-1.498s-3.146.496-4.175 1.498C.518-17.104 0-15.732 0-14.02Z" style="fill:#231916;fill-opacity:1;fill-rule:nonzero;stroke:none" transform="translate(376.133 433.432)"/><path d="M0 0h4.853l3.568-11.367h.049V0h4.295v-19.275H7.938L4.345-7.362h-.043v-11.913H0Z" style="fill:#231916;fill-opacity:1;fill-rule:nonzero;stroke:none" transform="translate(399.194 433.432)"/><path d="M0 0c0 1.823.523 3.211 1.575 4.157 1.045.946 2.427 1.418 4.152 1.418.794 0 1.541-.074 2.214-.236a5.143 5.143 0 0 0 1.811-.799 3.81 3.81 0 0 0 1.236-1.466c.301-.619.45-1.358.45-2.22v-2.148H7.219V.642c0 .49-.117.87-.342 1.124-.219.263-.577.393-1.065.393-.267 0-.498-.068-.681-.18a1.265 1.265 0 0 1-.42-.448 2.143 2.143 0 0 1-.208-.573 2.736 2.736 0 0 1-.056-.565v-9.532c0-.192.003-.374.017-.553.019-.176.068-.362.149-.554.078-.189.205-.35.385-.467.182-.124.416-.18.729-.18.948 0 1.419.48 1.419 1.442v2.484H5.577v3.576h5.861v-10.614H7.557v1.563h-.051c-.404-.642-.877-1.12-1.428-1.416-.544-.308-1.204-.463-2.002-.463-.765 0-1.42.15-1.947.45a3.33 3.33 0 0 0-1.26 1.213 5.85 5.85 0 0 0-.662 1.765C.077-10.239 0-9.52 0-8.749Z" style="fill:#231916;fill-opacity:1;fill-rule:nonzero;stroke:none" transform="translate(423.578 428.161)"/><path d="m0 0-2.902-1.822L-5.549.353c-3.24 2.696-8.226 5.28-13.189 8.261-4.92 3.022-10.09 6.482-13.227 12.236l-.053.089-.025.062c-2.253 4.634-4.152 10.473-4.197 10.583l-1.41 4.249h-9.776c.936-3.126 1.645-5.452 1.857-6.043l2.409-6.923V12.433h-30.586c-3.035-2.315-6.135-3.345-8.254-4.346-1.531-.684-2.508-1.316-2.805-1.664l-3.933-4.119-3.752 4.295c-1.426 1.634-3.177 2.693-5.526 3.965-.989.551-2.113 1.154-3.265 1.869h-23.815c-.106-.101-.204-.195-.314-.292-2.395-2.165-5.559-3.038-8.36-3.005-1.839 0-3.614.305-5.376.766l-.16.044-.159.055c-1.69.534-3.172 1.395-4.468 2.432h-48.261c-3.78-3.916-10.029-8.807-20.155-13.371l-6.514-2.949c1.1 5.103-2.601 9.854-2.601 9.854-.304.511-1.691 1.818-3.432 3.295-.347.309-.718.634-1.091.977h-28.637c-.782-.897-1.644-1.657-2.507-2.32-1.875-1.43-3.869-2.472-5.712-3.285a45.263 45.263 0 0 0-6.728-2.33l-.015-.004c-.122-.039-.31-.111-.558-.203 0 0-8.143-3.668-7.916-10.164l-5.633 4.385c-17.963 18.763-13.956 37.243-11.555 42.245.008.012.81 2.184 2.676 5.35-27.598-5.936-78.419 29.612-78.419 29.612v10.44c52.065-11.902 90.665-9.01 90.665-9.01h.507c1.889 4.754 4.505 11.342 4.516 11.35l1.308 3.287h25.301l-.01-.015s18.071 3.067 27.905 11.979l-5.757-13.527a245.806 245.806 0 0 1-2.858-7.053c.542.052 1.1.073 1.678.073.935.024 1.86-.073 2.758-.275l61.369-.26a20.208 20.208 0 0 0 6.557 1.123l.046.007h.084c4.236.065 8.187-1.925 10.44-4.908.471-.602.882-1.224 1.237-1.869.144.196.296.374.453.567 1.736 2.054 4.37 3.653 7.235 4.168 1.039.203 2.059.309 3.051.302 1.795.017 3.475-.337 4.992-.893-.004.688-.006 1.363-.006 2.004 0 1.423.01 2.698.045 3.728l.141 4.175 4.109.771c1.491.281 2.207.424 3.676 1.033 1.455.612 3.651 1.778 7.226 4.045l8.287 5.273-.29-9.823c-.058-1.863-.084-6.721-.087-12.753a15.897 15.897 0 0 0 5.405 2.527c1.772.613 3.537.808 5.65.828 3.661-.014 8.284-.807 12.768-3.214l-.834 2.999h23.27l.22-.908c1.655.537 3.401.786 5.192.801 1.465 0 2.963-.185 4.471-.53l.241-.063.241-.078c2.571-.905 4.695-2.306 6.473-3.992a12.9 12.9 0 0 0 1.244 2.048c1.941 2.635 5.129 4.384 8.561 4.868a38.727 38.727 0 0 0 26.103-5.32 24.938 24.938 0 0 0 2.969-2.114c1.248-.016 2.537-.024 3.861-.018 0 0 58.855-.343 89.911 8.872V73.737S51.618 47.918 10.032 44.365c0 0 4.874-9.86 6.467-13.999C18.098 26.229 22.709 15.446 0 0" style="fill:#231916;fill-opacity:1;fill-rule:nonzero;stroke:none" transform="translate(435.486 457.815)"/><path d="M0 0c-3.79 3.08-7.899 5.246-15.057 8.912-4.389 2.633-11.189 4.863-12.162 10.017-.548 2.862 2.125 3.393 4.852 2.901 5.239-1.879 5.669-6.102 6.926-8.902 4.08-1.613 9.928-3.313 11.84-.197.74.98.951 2.625.13 4.677 0 0-.121.29-.355.739 6.701-.316 7.252-4.189 8.717-5.9 19.805 1.779 39.835 5.383 58.461 15.614-17.572-3.451-49.979-5.656-70.643-5.176-.865.822-2.402 2.095-3.688 2.835-7.859 4.845-16.191 5.586-22.568 4.614-6.535-1.003-7.853-6.852-6.057-13.188C-36.139 4.832-19.251.608-10.13-6.588c2.491-1.504 5.047-7.237 2.122-8.399-1.664-1.176-4.086-.184-6.078 1.678-3.059 3.082-3.234 6.22-4.91 9.363l-13.137.12s1.914-5.793 3.93-9.916c4.517-8.473 17.314-12.485 25.133-18.919 6.959 3.569 13.572 8.291 12.943 13.592C9.578-16.431 5.455-3.826 0 0m-151.458-14.263 2.059 32.01c.589 5.722-2.11 11.211-8.359 11.211-4.257-.104-7.702-1.354-11.39-5.029 0 0 .47 2.063.824 3.906h-28.491l-6-24.526c-1.781-6.489-3.983-18.77-8.451-20.832-2.198 2.062-2.448 3.673-1.591 7.108l9.527 38.504h-17.02s3.246-2.328 2.599-7.82c-.342-2.871-8.142-24.639-10.141-34.076-1.387-6.477 7.096-10.164 9.911-14.362 1.176-1.75 2.431-3.173 2.652-5.061 19.276 8.743 22.72 17.996 22.72 17.996s3.554 22.443 7.581 37.439c1.158 2.595 2.422 4.549 4.643 5.347-2.134-13.618-8.27-46.949-8.27-46.949h14.121c1.86 12.181 2.98 18.831 4.986 32.678.364 1.692 1.387 3.149 3.777 2.87 1.931-.241 3.11-1.83 2.843-3.672-1.688-10.359-3.141-21.17-4.437-31.876h19.588c-3.852 1.293-3.681 5.134-3.681 5.134m99.163 41.685c-5.511 1.296-10.555-.724-11.492-4.683-.43 1.671-.879 3.376-1.31 5.194h-12.309c3.224-11.583 8.125-36.183 11.326-47.33h14.758c-.981 2.798-7.535 25.251-9.815 33.598-.287 4.761 3.95 4.728 5.516 2.149 2.238-6.272 3.025-7.014 4.836-12.35h12.94c-2.442 7.898-6.072 20.582-14.45 23.422m-42.594-6.045c1.105.597 3.641.311 4.119-2.253.493-3.217.727-5.665.822-8.697h-6.406c-.387 3.589-.772 9.508 1.465 10.95m6.295-22.278c.162-2.457.934-8.259.339-10.861-.499-2.13-.987-2.752-2.808-2.86-4.61.73-4.747 18.646-4.747 18.646 7.003.024 12.492-.064 19.734 0-.607 6.562-1.603 14.628-5.192 18.152-6.652 6.508-16.04 6.565-19.062 5.359-5.91-1.491-7.945-6.066-8.477-11.511-.787-8.118.219-17.828 3.026-27.952 2.65-9.446 10.746-8.645 16.38-15.084 5.525 5.79 21.202 3.177 14.223 26.111-5.593-.18-9.762.064-13.416 0m-184.787-23.013s-8.097 1.592-4.61 10.476l11.252 26.44h9.314zm44.809 52.283c-4.048 0-6.438-2.149-7.65-3.212-1.749-1.424-1.999-1.424-4.655-4.528 2.483 5.842 5.463 14.371 8.696 21.972-6.498-3.451-9.267-3.929-14.751-5.238l-4.761-11.729c-4.161 0-5.273 0-9.953-.114 1.938 4.748 4.52 11.389 4.52 11.389h-14.172l-5.5-13.808-.333-.821c-3.959-.013-25.414-.055-34.903.482-14.835.84-36.859 4.165-36.859 4.165 10.274-4.559 20.941-9.535 37.081-13.042 18.502-5.117 26.404 2.298 26.404 2.298s3.745 3.821 5.426 2.635c.429-.297.966-.485.833-1.505l-.566-1.393c-4.561-9.681-11.545-26.803-11.545-26.803s-5.59-13.624 9.932-25.721c1.613 4.39 9.463 6.877 9.463 6.877s11.615 2.715 13.839 8.532c0 0 9.877 22.866 13.648 33.399 1.716 3.456 4.654 3.352 4.654 3.352s2.669.12 1.464-3.917c-3.114-7.693-7.964-23.329-12.091-33.232h14.242c4.128 11.32 9.934 28.916 13.494 38.342 1.514 4.015.894 11.62-5.957 11.62m102.459-18.298-.366-15.086c-.337-5.861-4.193-4.953-4.193-4.953-3.035.583-2.605 4.927-2.605 4.927l.403 15.236c.108 6.696 3.241 6.179 3.241 6.179 3.771 0 3.52-6.303 3.52-6.303m14.22-24.281c-.513 2.214-.68 49.534-.468 57.112-7.399-4.696-9.688-5.233-12.743-5.809-.125-3.667.071-12.25-.016-16.175-1.862 2.742-3.588 3.925-4.5 4.458-2.368 1.495-4.699 2.247-7.75 1.644-7.337-1.38-7.751-11.11-8.252-20.257-.648-11.709-2.588-25.669 6.973-28.868 5.903-1.554 10.234-.328 11.965 6.871.343-2.037.957-3.141 2.254-4.163h16.04s-2.413.553-3.503 5.187" style="fill:#fac10b;fill-opacity:1;fill-rule:nonzero;stroke:none" transform="translate(436.322 505.287)"/><path d="M0 0v6.236h-1.984v1.612H0v3.489h1.522V0Zm-1.869 2.01c-.842.531-1.941 1.575-2.498 2.809-.453-1.234-1.622-2.424-2.393-2.922l-1.124 1.121c1.159.707 2.689 2.224 2.689 5.038v2.678h1.612V8.056c0-2.814 1.609-4.202 2.62-4.832z" style="fill:#231916;fill-opacity:1;fill-rule:nonzero;stroke:none" transform="translate(251.563 182.014)"/><path d="M0 0c0 .436-.933.787-2.306.787-1.382 0-2.305-.337-2.305-.762s.875-.734 2.305-.734C-.9-.709 0-.415 0 0m1.701.054c0-1.292-1.509-2-4.007-2-2.483 0-4.002.723-4.002 1.984 0 1.159 1.519 1.985 4.002 1.985 2.498 0 4.007-.801 4.007-1.969m.985-3.855h-4.139v-.733h2.949v-2.964H-4.37v-.545h6.102v-1.26h-7.838v2.975h5.868v.557h-5.868v1.237h2.986v.733h-4.176v1.338h9.982z" style="fill:#231916;fill-opacity:1;fill-rule:nonzero;stroke:none" transform="translate(261.297 191.446)"/><path d="M0 0v-2.408h-1.522v6.376H0V1.483h1.314V0Zm-1.51-4.431h-4.15V-5.76h4.15zm-5.672 1.483H0v-4.291h-7.182zm3.951.772c-.852.412-1.83 1.149-2.441 2.151-.489-1.002-1.383-1.844-2.327-2.407l-1.088 1.171C-7.76-.616-6.479.915-6.479 2.321v1.378h1.621V2.321c0-1.406 1.35-2.806 2.543-3.234z" style="fill:#231916;fill-opacity:1;fill-rule:nonzero;stroke:none" transform="translate(273.252 189.383)"/><path d="M0 0v3.157h-1.953v1.511H0v1.941h1.522V0Zm-2.178-1.47c-1.257 0-2.259-.372-2.259-.989 0-.592 1.002-1.07 2.259-1.07 1.306 0 2.279.426 2.279 1.019 0 .632-.973 1.04-2.279 1.04m-.011-3.401c-2.416 0-3.938.971-3.938 2.372 0 1.393 1.522 2.387 3.938 2.387 2.418 0 3.946-.98 3.946-2.387 0-1.391-1.507-2.372-3.946-2.372m.205 5.312c-.851.413-1.829 1.146-2.441 2.151C-4.91 1.587-5.808.751-6.752.182L-7.84 1.354c1.328.644 2.611 2.178 2.611 3.584v1.445h1.623V4.938c0-1.406 1.349-2.811 2.54-3.235z" style="fill:#231916;fill-opacity:1;fill-rule:nonzero;stroke:none" transform="translate(282.236 186.741)"/><path d="M0 0v4.598h-1.35v1.499H0v2.095h1.414V0Zm-5.981-2.888V.737h1.531v-2.14h6.106v-1.485zm4.564 4.399c-.378.264-1.011.912-1.388 1.749-.294-.788-.954-1.485-1.451-1.818-.366.233-.997.901-1.464 1.818-.261-.671-.894-1.391-1.464-1.818l-.964 1.211c.85.593 1.681 1.701 1.681 3.739v1.546h1.484V6.392c0-2.038.637-2.643.727-2.771.091.128.716.632.716 2.771v1.546h1.486V6.392c0-1.857.688-3.004 1.45-3.544z" style="fill:#231916;fill-opacity:1;fill-rule:nonzero;stroke:none" transform="translate(292.606 185.158)"/><path d="M0 0h-1.509v5.93h-2.565v1.479h2.565v3.928H0Zm-2.621 2.81c-.057 0-2.201-.363-3.905-.363h-1.722v7.709h4.82V8.687H-6.73V3.955h1c.943.014 3.052.301 3.109.312z" style="fill:#231916;fill-opacity:1;fill-rule:nonzero;stroke:none" transform="translate(303.95 182.014)"/><path d="M0 0c-1.066.344-2.813 1.568-3.585 2.882C-4.277 1.608-5.958.409-7.182.011l-.985 1.233c1.938.695 3.742 2.193 3.742 4.216v1.096h1.68V5.46c0-2.023 1.689-3.416 3.686-4.216zm-8.575-1.512h9.982V-2.98h-9.982z" style="fill:#231916;fill-opacity:1;fill-rule:nonzero;stroke:none" transform="translate(313.624 186.27)"/><path d="M0 0c0 .632-.955.938-2.329.938-1.37 0-2.312-.306-2.312-.938 0-.736.93-1.008 2.312-1.008C-.979-1.008 0-.736 0 0m1.745-.026c0-1.365-1.476-2.346-4.074-2.346-2.585 0-4.062.981-4.062 2.346 0 1.366 1.465 2.32 4.062 2.32 2.586 0 4.074-.954 4.074-2.32m.919 2.834h-9.982v1.483h4.14v1.211h-2.939v3.542h1.533V6.906h6.158V5.502h-3.118V4.291h4.208z" style="fill:#231916;fill-opacity:1;fill-rule:nonzero;stroke:none" transform="translate(322.576 184.231)"/><path d="M0 0v-4.665h-1.565V0h-3.962v1.48H1.27c.15.723.41 2.181.453 3.187h-6.204v1.479h7.908c0-1.968-.523-4.212-.603-4.666h1.635V0Z" style="fill:#231916;fill-opacity:1;fill-rule:nonzero;stroke:none" transform="translate(330.992 186.679)"/><path d="M0 0h-1.36v-3.401h-1.509v8.192h1.509V1.51H0Zm-1.069-6.289H-8.51v3.853h1.53v-2.369h5.911zm-2.495 5.272c-.704-.142-2.62-.376-4.092-.398H-9.59v5.592h5.201V2.684h-3.69V.104h1.181c.794 0 2.7.218 3.334.347z" style="fill:#231916;fill-opacity:1;fill-rule:nonzero;stroke:none" transform="translate(345.75 188.56)"/><path d="m0 0-1.044-.654-.951.781c-1.168.972-2.961 1.901-4.746 2.974-1.771 1.086-3.631 2.331-4.758 4.4l-.02.033-.007.024c-.813 1.667-1.496 3.767-1.512 3.806l-.509 1.529h-3.516c.337-1.124.591-1.96.667-2.173l.87-2.491V4.475h-11.007c-1.092-.832-2.207-1.205-2.971-1.565-.55-.246-.899-.473-1.007-.597L-31.929.831l-1.347 1.544c-.514.588-1.145.969-1.991 1.429-.353.195-.757.412-1.172.671h-8.569l-.113-.106c-.862-.778-2.001-1.092-3.007-1.082-.662 0-1.302.109-1.934.276l-.059.016-.058.022c-.609.19-1.14.501-1.607.874h-17.365c-1.357-1.41-3.608-3.17-7.251-4.811l-2.344-1.06c.395 1.834-.936 3.543-.936 3.543-.109.185-.608.656-1.235 1.186-.125.112-.258.228-.393.352h-10.303a6.147 6.147 0 0 0-.901-.835c-.674-.515-1.393-.89-2.053-1.183a16.123 16.123 0 0 0-2.424-.836l-.005-.001-.2-.074s-2.93-1.319-2.848-3.656l-2.025 1.577c-6.466 6.75-5.024 13.399-4.16 15.198.003.004.291.787.963 1.925-9.929-2.136-28.214 10.655-28.214 10.655v3.757c18.734-4.284 32.622-3.243 32.622-3.243h.18c.682 1.712 1.622 4.08 1.625 4.084l.47 1.183h9.104l-.002-.006s6.5 1.104 10.04 4.309l-2.071-4.865a85.381 85.381 0 0 1-1.03-2.538c.195.019.397.027.604.024.336.011.669-.024.992-.098l22.079-.091a7.37 7.37 0 0 0 2.361.404h.048c1.522.023 2.943-.691 3.755-1.766.169-.216.317-.439.444-.671a4.53 4.53 0 0 0 2.766 1.703c.375.074.742.111 1.099.11a5.135 5.135 0 0 0 1.795-.322l-.002.72c0 .513.004.972.016 1.342l.05 1.501 1.481.279c.535.101.793.153 1.321.371.525.221 1.316.639 2.601 1.456l2.982 1.896-.103-3.534c-.022-.669-.032-2.417-.035-4.587a5.748 5.748 0 0 0 1.947.907c.638.223 1.273.292 2.031.299a9.895 9.895 0 0 0 4.595-1.156l-.3 1.08h8.373l.077-.328a6.24 6.24 0 0 0 1.869.289c.527 0 1.068-.068 1.608-.192l.087-.021.088-.028a6.53 6.53 0 0 0 2.33-1.437c.122.253.27.499.445.737.7.948 1.847 1.576 3.08 1.751a13.93 13.93 0 0 0 9.393-1.914 8.942 8.942 0 0 0 1.068-.76c.449-.006.912-.008 1.389-.007 0 0 21.176-.124 32.35 3.191V26.53S18.573 17.241 3.609 15.965c0 0 1.755-3.55 2.328-5.037C6.513 9.438 8.169 5.558 0 0" style="fill:#231916;fill-opacity:1;fill-rule:nonzero;stroke:none" transform="translate(345.327 202.233)"/><path d="M0 0c-1.364 1.108-2.841 1.888-5.417 3.206-1.579.948-4.027 1.75-4.377 3.605-.193 1.029.767 1.22 1.746 1.044 1.887-.676 2.039-2.197 2.494-3.205 1.467-.579 3.572-1.19 4.258-.069.267.353.342.944.049 1.682 0 0-.043.105-.131.267 2.412-.115 2.611-1.508 3.139-2.125 7.123.641 14.33 1.939 21.032 5.619C16.474 8.782 4.813 7.99-2.622 8.162c-.312.296-.865.753-1.326 1.02a12.063 12.063 0 0 1-8.122 1.659c-2.351-.361-2.825-2.463-2.181-4.744C-13.003 1.739-6.927.219-3.645-2.371c.898-.541 1.817-2.604.764-3.023-.598-.421-1.47-.065-2.186.606-1.102 1.107-1.165 2.236-1.768 3.367l-4.727.044s.69-2.084 1.416-3.568c1.624-3.047 6.229-4.49 9.041-6.807 2.504 1.284 4.883 2.984 4.657 4.892C3.446-5.912 1.962-1.377 0 0m-54.494-5.133.741 11.519c.212 2.057-.757 4.034-3.005 4.034-1.533-.039-2.774-.489-4.099-1.81 0 0 .168.741.294 1.405h-10.25l-2.159-8.826c-.64-2.333-1.43-6.751-3.039-7.495-.792.744-.881 1.323-.573 2.559 0 0 2.673 10.799 3.427 13.852h-6.123s1.167-.836.934-2.813c-.123-1.033-2.928-8.865-3.649-12.26-.499-2.329 2.555-3.657 3.568-5.167.421-.629.873-1.141.952-1.821 6.937 3.144 8.176 6.476 8.176 6.476s1.279 8.074 2.726 13.47c.418.934.872 1.636 1.672 1.922-.768-4.898-2.974-16.892-2.974-16.892h5.08c.669 4.383 1.072 6.776 1.792 11.758.132.61.501 1.133 1.359 1.034.695-.088 1.12-.661 1.024-1.323-.607-3.726-1.13-7.615-1.597-11.469h7.047c-1.386.465-1.324 1.847-1.324 1.847m35.679 14.998c-1.983.467-3.797-.259-4.135-1.683-.154.6-.317 1.214-.471 1.868h-4.43c1.163-4.168 2.922-13.019 4.078-17.03h5.309c-.353 1.008-2.713 9.086-3.533 12.088-.103 1.714 1.421 1.703 1.984.774.805-2.257 1.089-2.524 1.741-4.443h4.655c-.876 2.841-2.184 7.405-5.198 8.426m-15.326-2.173c.398.213 1.312.112 1.482-.812.18-1.157.263-2.038.296-3.128h-2.302c-.143 1.291-.28 3.421.524 3.94m2.267-8.017c.057-.884.334-2.97.12-3.906-.181-.768-.352-.991-1.009-1.03-1.66.262-1.709 6.708-1.709 6.708 2.52.008 4.494-.022 7.1 0-.217 2.363-.575 5.263-1.867 6.53-2.394 2.342-5.772 2.364-6.856 1.929-2.129-.535-2.86-2.182-3.051-4.14-.283-2.921.079-6.415 1.088-10.058.952-3.397 3.865-3.111 5.891-5.427 1.99 2.083 7.631 1.144 5.118 9.394-2.013-.064-3.511.023-4.825 0m-66.487-8.279s-2.912.574-1.66 3.77l4.051 9.513h3.35zm16.122 18.811c-1.457 0-2.314-.773-2.75-1.155-.632-.513-.722-.513-1.678-1.629.894 2.1 1.966 5.17 3.129 7.904-2.338-1.24-3.334-1.413-5.306-1.884l-1.715-4.221c-1.495 0-1.896 0-3.579-.04a321.618 321.618 0 0 1 1.626 4.097h-5.1l-1.979-4.968-.118-.294c-1.426-.006-9.145-.02-12.559.173-5.337.301-13.262 1.497-13.262 1.497 3.697-1.639 7.535-3.429 13.343-4.691 6.657-1.841 9.5.826 9.5.826s1.346 1.374 1.95.949c.155-.108.35-.175.3-.542l-.204-.5c-1.64-3.485-4.153-9.643-4.153-9.643s-2.01-4.904 3.573-9.256c.58 1.58 3.405 2.474 3.405 2.474s4.179.977 4.981 3.07c0 0 3.552 8.227 4.909 12.018.617 1.242 1.675 1.204 1.675 1.204s.959.044.528-1.408c-1.122-2.768-2.866-8.394-4.352-11.956h5.124c1.485 4.072 3.575 10.403 4.855 13.794.547 1.446.322 4.181-2.143 4.181m36.865-6.583-.133-5.429c-.122-2.108-1.509-1.782-1.509-1.782-1.092.211-.936 1.774-.936 1.774l.145 5.482c.039 2.407 1.166 2.222 1.166 2.222 1.357 0 1.267-2.267 1.267-2.267m5.117-8.736c-.186.796-.247 17.822-.171 20.549-2.659-1.691-3.485-1.884-4.584-2.09-.044-1.321.027-4.409-.005-5.822-.67.987-1.291 1.413-1.62 1.606-.851.536-1.69.807-2.786.591-2.642-.497-2.79-3.998-2.972-7.289-.232-4.212-.93-9.237 2.51-10.385 2.125-.562 3.684-.12 4.306 2.472.122-.735.345-1.132.81-1.5h5.771s-.866.199-1.259 1.868" style="fill:#fac10b;fill-opacity:1;fill-rule:nonzero;stroke:none" transform="translate(345.628 219.315)"/><path d="M0 0c-11.139-2.775-37.826-3.06-37.826-3.06l-9.975 2.912c-.031.091-.061.193-.095.291-.181.565-.383 1.318-.377 1.339l-.195 1.455h-7.495c-.237 1.429-.411 2.479-.488 2.921l-.457 2.627-2.394-1.533c-2.337-1.46-2.542-1.398-3.515-1.592l-1.597-.269.383-4.889h-15.7c.657 2.287 1.213 4.154 1.452 4.828l1.381 3.922-3.982-1.96c-3.071-1.491-3.488-1.511-4.503-1.691L-86.5 5.12l-1.998-6.328a3.884 3.884 0 0 1-.309.463C-89.455.131-90.699.777-92.068.83a9.409 9.409 0 0 1-.618.023h-.068l3.214 8.165-4.201-2.091c-1.797-.885-2.791-1.015-4.527-1.384h-8.237l-4.397-8.524c-18.258-.357-38.157 2.52-38.157 2.52v-3.046c21.057-9.331 29.655-10.012 32.971-9.525l-1.51-2.927v-3.049h8.91c-.027-.099-.748-2.808.628-4.666l.016-.02a2.97 2.97 0 0 1 .278-.329c.07-.078.143-.144.219-.212.041-.036.076-.076.119-.113.248-.205.504-.371.746-.477.924-.458 1.671-.512 1.809-.535l.089-.006h15.016l.372.16c.923.395 1.529 1.044 1.893 1.554.372.518.595.923.799 1.166-.012.023.602.496 1.138.787.394.222 1.218.611 1.66.819v-.01c-.014-1.08.514-2.056 1.196-2.674 2.073-1.79 4.726-1.728 4.88-1.799l.057-.003h12.855l.314.109c1.097.337 1.911 1.23 2.162 1.896.044.103.079.198.114.286.404-1.079 1.403-1.768 2.148-2.088l.395-.187h9.161l.003-.016h21.205l.446.26c.529.295.874.716 1.094 1.129.169.292.345.713.443 1.324.13.793.704 1.369 1.158 1.721l4.441 2.893v3.047a.412.412 0 0 1-.123 0h-3.986c-1.581.222-2.705 1.327-3.125 1.806C-10.74-11.636 0-3.046 0-3.046Z" style="fill:#231916;fill-opacity:1;fill-rule:nonzero;stroke:none" transform="translate(489.98 114.348)"/><path d="M0 0c-.391.711-3.875 22.146-4.294 24.58-2.354-1.508-3.155-1.682-4.235-1.865l.989-12.524h-7.022l-.275-3.668h7.582l.332-4.188h-11.874c-2.79.069-2.434 1.634-2.434 1.634l1.099 9.36 10.026-.036-.088 2.492c.021 1.444 1.665 1.741 1.665 1.741h-16.394l.004-.028h-.004l-3.138-15.783c-.703-3.111 4.302-3.398 4.302-3.398H-11.3c1.323.461 1.149 1.404 1.588 2.204.381.707 2.351 1.586 2.791 1.774l.201-2.519c.114-.705.64-1.117 1.333-1.441h7.47S.831-1.49 0 0m-36.03 4.621h5.498s-.739.176-.629 1.667c.055.709 4.244 15.796 5.101 18.228-3.071-1.506-3.923-1.68-5.046-1.864l-2.777-8.783H-36.2c.071.233.147.467.221.688.414 1.247.173 3.464-2.25 3.605-1.148.064-2.159-.062-3.473-.79l2.79 7.083c-2.151-1.067-3.511-1.216-5.339-1.622l-2.182-5.535h-2.604l2.423 5.57h-4.78l-4.394-8.522c-1.441-.004-10.691-.023-14.56.174-5.952.299-14.981 1.496-14.981 1.496 4.486-1.643 9.166-3.43 15.885-4.692 7.798-1.841 10.244.825 10.244.825s1.133 1.374 1.907.949c.23-.127.509-.195.468-.764l-3.951-7.658h6.216c.323.69 2.102 4.762 3.893 8.876h2.756l-2.791-7.073-1.916-4.764c-1.312-3.111 1.879-3.398 1.879-3.398h14.513c1.065.461 1.362 1.404 2.007 2.204.645.798 2.792 1.814 2.792 1.814h-14.196c-1.901.069-.925 2.275-.925 2.275l3.508 9.325c.443.417.894.417.894.417s1.63.048 1.129-1.376c-.812-2.388-1.83-5.29-2.869-8.366h4.849a659.138 659.138 0 0 0 2.166 7.151h2.321l-1.801-5.698c-.189-.704-.003-1.113.321-1.442M4.749-1.683h19.258c.797.461.543 1.404.721 2.204.177.802 1.729 1.814 1.729 1.814H3.623Zm.768 15.921 7.464-2.141c1.094-.448 1.428-1.128 1.639-1.701l3.324-6.657h6.799c-.931.413-1.752 1.651-1.752 1.651l-4.304 6.699c-.055.099-.119.182-.178.274-.026.05-.063.123-.113.207 2.843-.123 3.078-1.617 3.703-2.275 8.404.685 16.909 2.076 24.817 6.021-7.296-1.298-22.222-2.179-31.086-2.046L4.682 17.522s-.728 2.148-.806 2.744H-.546c.82-4.317 3.908-16.527 3.908-16.527h5.555z" style="fill:#fac10b;fill-opacity:1;fill-rule:nonzero;stroke:none" transform="translate(436.026 95.366)"/><path d="M0 0v5.614h-1.787v1.449H0v3.144h1.369V0Zm-1.684 1.808c-.756.478-1.744 1.414-2.247 2.527-.407-1.113-1.46-2.179-2.153-2.63l-1.014 1.011c1.045.635 2.422 2.002 2.422 4.533V9.66h1.449V7.249c0-2.531 1.45-3.783 2.362-4.351z" style="fill:#231916;fill-opacity:1;fill-rule:nonzero;stroke:none" transform="translate(379.367 71.025)"/><path d="M0 0c0 .393-.841.705-2.075.705-1.244 0-2.074-.301-2.074-.684 0-.383.785-.658 2.074-.658C-.808-.637 0-.375 0 0m1.53.045c0-1.16-1.357-1.8-3.605-1.8-2.237 0-3.605.651-3.605 1.788 0 1.045 1.368 1.787 3.605 1.787C.173 1.82 1.53 1.098 1.53.045m.885-3.469h-3.726v-.661h2.658V-6.75h-5.282v-.49h5.497v-1.136h-7.057v2.68h5.281v.499h-5.281v1.112h2.685v.661h-3.757v1.206h8.982z" style="fill:#231916;fill-opacity:1;fill-rule:nonzero;stroke:none" transform="translate(388.13 79.516)"/><path d="M0 0v-2.169h-1.367v5.744H0v-2.24h1.188V0Zm-1.355-3.987h-3.738v-1.198h3.738zm-5.108 1.334H0v-3.864h-6.463zm3.557.695c-.766.37-1.645 1.031-2.198 1.937-.439-.906-1.245-1.663-2.091-2.169l-.984 1.055C-6.982-.557-5.83.822-5.83 2.09v1.24h1.459V2.09c0-1.268 1.215-2.527 2.29-2.914z" style="fill:#231916;fill-opacity:1;fill-rule:nonzero;stroke:none" transform="translate(398.889 77.657)"/><path d="M0 0v2.842h-1.758v1.356H0v1.754h1.369V0Zm-1.962-1.323c-1.132 0-2.032-.336-2.032-.893 0-.531.9-.965 2.032-.965 1.177 0 2.052.385 2.052.919 0 .569-.875.939-2.052.939m-.009-3.062c-2.174 0-3.545.871-3.545 2.133 0 1.256 1.371 2.15 3.545 2.15 2.176 0 3.551-.884 3.551-2.15 0-1.25-1.357-2.133-3.551-2.133m.182 4.781c-.764.371-1.643 1.03-2.196 1.935C-4.422 1.426-5.229.675-6.078.163l-.98 1.055c1.197.581 2.35 1.961 2.35 3.223v1.301h1.458V4.441c0-1.262 1.217-2.527 2.287-2.908z" style="fill:#231916;fill-opacity:1;fill-rule:nonzero;stroke:none" transform="translate(406.978 75.28)"/><path d="M0 0v4.14h-1.215v1.347H0v1.892h1.276V0Zm-5.382-2.598v3.26h1.377v-1.923h5.496v-1.337zm4.107 3.957c-.338.24-.909.823-1.249 1.575-.266-.707-.857-1.335-1.304-1.634-.33.207-.901.811-1.318 1.634-.236-.603-.807-1.25-1.32-1.634l-.866 1.089c.766.534 1.512 1.532 1.512 3.365v1.391h1.334V5.754c0-1.833.576-2.379.658-2.493.078.114.643.566.643 2.493v1.391h1.338V5.754c0-1.669.618-2.704 1.304-3.191z" style="fill:#231916;fill-opacity:1;fill-rule:nonzero;stroke:none" transform="translate(416.31 73.853)"/><path d="M0 0h-1.361v5.333H-3.67v1.334h2.309v3.54H0Zm-2.359 2.526c-.053 0-1.983-.325-3.514-.325h-1.554v6.938h4.34V7.817h-2.97V3.559h.901c.845.013 2.744.27 2.797.28z" style="fill:#231916;fill-opacity:1;fill-rule:nonzero;stroke:none" transform="translate(426.523 71.025)"/><path d="M0 0c-.963.31-2.534 1.413-3.228 2.595C-3.852 1.449-5.365.369-6.467.01l-.887 1.109c1.747.629 3.369 1.977 3.369 3.798V5.9h1.514v-.983c0-1.821 1.518-3.077 3.317-3.798zm-7.721-1.361h8.986v-1.321h-8.986z" style="fill:#231916;fill-opacity:1;fill-rule:nonzero;stroke:none" transform="translate(435.232 74.855)"/><path d="M0 0c0 .568-.862.847-2.099.847C-3.334.847-4.18.568-4.18 0c0-.66.838-.904 2.081-.904C-.883-.904 0-.66 0 0m1.569-.023c0-1.229-1.329-2.111-3.668-2.111-2.328 0-3.655.882-3.655 2.111 0 1.231 1.318 2.089 3.655 2.089 2.329 0 3.668-.858 3.668-2.089m.827 2.552h-8.987v1.335h3.729v1.09h-2.646v3.19h1.377V6.219h5.547V4.954h-2.809v-1.09h3.789z" style="fill:#231916;fill-opacity:1;fill-rule:nonzero;stroke:none" transform="translate(443.291 73.019)"/><path d="M0 0v-4.198h-1.407V0h-3.567v1.331h6.117c.135.653.371 1.964.408 2.868h-5.585v1.332h7.118c0-1.774-.469-3.791-.541-4.2h1.471V0Z" style="fill:#231916;fill-opacity:1;fill-rule:nonzero;stroke:none" transform="translate(450.863 75.224)"/><path d="M0 0h-1.224v-3.062h-1.358v7.379h1.358V1.359H0Zm-.959-5.659h-6.698v3.468h1.375v-2.131h5.323zM-3.205-.914c-.633-.129-2.36-.336-3.687-.359h-1.735v5.034h4.675V2.417h-3.32V.097h1.062c.717 0 2.434.196 3.005.31z" style="fill:#231916;fill-opacity:1;fill-rule:nonzero;stroke:none" transform="translate(464.147 76.915)"/><path d="M0 0v-.462a.96.96 0 0 1 .101-.475c.07-.116.195-.176.385-.176.156 0 .28.046.368.135a.49.49 0 0 1 .133.351.846.846 0 0 1-.253.606A5.304 5.304 0 0 1-.033.61a1.36 1.36 0 0 1-.123.091c-.083.07-.147.123-.19.157a8.176 8.176 0 0 0-.406.34c-.104.091-.198.2-.286.322a1.371 1.371 0 0 0-.202.415c-.05.162-.074.34-.074.544 0 .601.157 1.042.473 1.327.315.288.771.429 1.366.429.61 0 1.062-.14 1.359-.414.294-.275.44-.666.44-1.161v-.563H.979v.338c0 .204-.03.369-.091.499-.058.124-.182.188-.363.188a.498.498 0 0 1-.36-.126.449.449 0 0 1-.134-.344c0-.156.091-.321.274-.494.184-.179.458-.401.822-.67l.102-.08.25-.21c.163-.128.293-.236.389-.329a1.95 1.95 0 0 0 .273-.347 1.72 1.72 0 0 0 .208-.485c.052-.186.077-.407.077-.664a1.45 1.45 0 0 0-.102-.525 1.588 1.588 0 0 0-.938-.921 2.513 2.513 0 0 0-.916-.152c-.34 0-.629.049-.869.141a1.583 1.583 0 0 0-.58.375 1.538 1.538 0 0 0-.317.502 1.573 1.573 0 0 0-.098.535V0z" style="fill:#231916;fill-opacity:1;fill-rule:nonzero;stroke:none" transform="translate(132.684 73.11)"/><path d="M0 0h3.203v-1.206H1.44v-1.245h1.543v-1.204H1.44V-5.05h1.833v-1.207H0z" style="fill:#231916;fill-opacity:1;fill-rule:nonzero;stroke:none" transform="translate(138.83 77.242)"/><path d="M0 0c0-.063.002-.123.009-.182a.56.56 0 0 1 .045-.179.339.339 0 0 1 .126-.152.403.403 0 0 1 .235-.06c.098 0 .176.02.236.06a.337.337 0 0 1 .125.152c.025.061.04.122.046.179C.828-.123.83-.063.83 0v3.089c0 .08-.002.147-.008.207a.58.58 0 0 1-.046.171.315.315 0 0 1-.125.139.426.426 0 0 1-.236.056.411.411 0 0 1-.235-.056.318.318 0 0 1-.126-.139.5.5 0 0 1-.045-.171A1.812 1.812 0 0 1 0 3.089Zm-1.441 2.967c0 .588.171 1.037.508 1.346.34.306.79.462 1.348.462.557 0 1.007-.156 1.346-.462.339-.309.508-.758.508-1.346V.123c0-.559-.167-.998-.5-1.323-.334-.323-.786-.485-1.354-.485-.57 0-1.02.162-1.356.485-.333.325-.5.764-.5 1.323z" style="fill:#231916;fill-opacity:1;fill-rule:nonzero;stroke:none" transform="translate(147.317 72.57)"/><path d="M0 0h1.441v-4.564c0-.22.022-.382.066-.482.044-.102.161-.154.348-.154.189 0 .305.052.349.154.045.1.066.262.066.482V0h1.442v-4.55c0-.558-.169-.998-.502-1.323-.335-.323-.785-.484-1.355-.484-.568 0-1.02.161-1.355.484-.332.325-.5.765-.5 1.323Z" style="fill:#231916;fill-opacity:1;fill-rule:nonzero;stroke:none" transform="translate(153.361 77.242)"/><path d="M0 0h1.439v-5.05h1.565v-1.207H0Z" style="fill:#231916;fill-opacity:1;fill-rule:nonzero;stroke:none" transform="translate(160.847 77.242)"/><path d="M0 0v-.462c0-.199.035-.357.103-.475.068-.116.196-.176.384-.176.156 0 .279.046.367.135a.491.491 0 0 1 .134.351.85.85 0 0 1-.252.606A5.457 5.457 0 0 1-.03.61a1.192 1.192 0 0 1-.125.091C-.239.771-.3.824-.343.858a8.176 8.176 0 0 0-.406.34c-.107.091-.201.2-.287.322a1.395 1.395 0 0 0-.202.415c-.052.162-.076.34-.076.544 0 .601.157 1.042.475 1.327.315.288.77.429 1.364.429.612 0 1.063-.14 1.36-.414.294-.275.442-.666.442-1.161v-.563H.979v.338c0 .204-.028.369-.09.499-.058.124-.18.188-.364.188a.496.496 0 0 1-.358-.126.442.442 0 0 1-.134-.344c0-.156.091-.321.274-.494a7.99 7.99 0 0 1 .821-.67l.103-.08c.058-.049.14-.119.252-.21.162-.128.288-.236.385-.329.096-.097.189-.21.276-.347.085-.133.154-.294.206-.485.051-.186.079-.407.079-.664 0-.168-.034-.344-.102-.525a1.607 1.607 0 0 0-.94-.921 2.517 2.517 0 0 0-.916-.152c-.34 0-.629.049-.869.141-.24.096-.434.219-.58.375a1.568 1.568 0 0 0-.316.502 1.503 1.503 0 0 0-.097.535V0Z" style="fill:#231916;fill-opacity:1;fill-rule:nonzero;stroke:none" transform="translate(172.785 73.11)"/><path d="M0 0h.72L.385 3.063H.368Zm-.581 4.034h1.914l1.173-6.257H.995L.861-1.109H-.148l-.147-1.114h-1.442z" style="fill:#231916;fill-opacity:1;fill-rule:nonzero;stroke:none" transform="translate(180.404 73.208)"/><path d="M0 0h2.27l.407-3.099h.014L3.099 0h2.269v-6.257H3.977v4.863h-.019l-.804-4.863h-.939l-.807 4.863h-.016v-4.863H0Z" style="fill:#231916;fill-opacity:1;fill-rule:nonzero;stroke:none" transform="translate(186.458 77.242)"/><path d="M0 0v-.462c0-.199.033-.357.103-.475.067-.116.194-.176.382-.176a.5.5 0 0 1 .368.135.495.495 0 0 1 .133.351.848.848 0 0 1-.251.606A5.418 5.418 0 0 1-.032.61a1.313 1.313 0 0 1-.125.091l-.188.157a8.574 8.574 0 0 0-.405.34c-.107.091-.203.2-.288.322a1.324 1.324 0 0 0-.201.415 1.76 1.76 0 0 0-.077.544c0 .601.158 1.042.475 1.327.315.288.77.429 1.364.429.612 0 1.064-.14 1.361-.414.294-.275.442-.666.442-1.161v-.563H.978v.338c0 .204-.028.369-.09.499-.058.124-.181.188-.365.188a.49.49 0 0 1-.357-.126c-.09-.081-.133-.198-.133-.344 0-.156.088-.321.273-.494.183-.179.457-.401.82-.67l.104-.08c.057-.049.14-.119.251-.21.162-.128.289-.236.386-.329.096-.097.188-.21.276-.347a1.69 1.69 0 0 0 .205-.485c.052-.186.08-.407.08-.664 0-.168-.034-.344-.102-.525a1.591 1.591 0 0 0-.94-.921 2.52 2.52 0 0 0-.918-.152c-.338 0-.627.049-.866.141a1.57 1.57 0 0 0-.581.375 1.486 1.486 0 0 0-.414 1.037V0Z" style="fill:#231916;fill-opacity:1;fill-rule:nonzero;stroke:none" transform="translate(196.98 73.11)"/><path d="M0 0h1.44v-4.564c0-.22.023-.382.068-.482.044-.102.16-.154.348-.154.187 0 .305.052.347.154.045.1.069.262.069.482V0h1.44v-4.55c0-.558-.169-.998-.503-1.323-.334-.323-.784-.484-1.353-.484-.568 0-1.02.161-1.354.484C.167-5.548 0-5.108 0-4.55Z" style="fill:#231916;fill-opacity:1;fill-rule:nonzero;stroke:none" transform="translate(203.125 77.242)"/><path d="M0 0h1.572L2.73-3.688h.018V0h1.394v-6.257H2.576L1.408-2.39h-.013v-3.867H0Z" style="fill:#231916;fill-opacity:1;fill-rule:nonzero;stroke:none" transform="translate(210.611 77.242)"/><path d="M0 0c0 .588.17 1.037.508 1.347.34.305.788.462 1.347.462.26 0 .499-.027.721-.079.217-.052.414-.138.587-.258.171-.122.306-.282.403-.477.095-.2.144-.441.144-.722v-.697H2.339v.626c0 .163-.036.286-.109.367-.073.084-.188.126-.344.126a.387.387 0 0 1-.36-.203.816.816 0 0 1-.087-.37v-3.089c0-.062.003-.123.007-.181a.702.702 0 0 1 .049-.18.326.326 0 0 1 .124-.151.407.407 0 0 1 .236-.061c.306 0 .462.158.462.47v.808h-.509v1.157H3.71v-3.446H2.451v.512h-.017a1.279 1.279 0 0 0-.464-.464 1.328 1.328 0 0 0-.649-.148c-.248 0-.462.048-.633.145a1.073 1.073 0 0 0-.408.397 1.82 1.82 0 0 0-.213.569A3.404 3.404 0 0 0 0-2.844Z" style="fill:#231916;fill-opacity:1;fill-rule:nonzero;stroke:none" transform="translate(218.526 75.536)"/><path d="M0 0c-11.165-2.783-37.911-3.066-37.911-3.066l-9.997 2.917c-.03.091-.061.192-.092.292-.185.564-.387 1.32-.378 1.341l-.199 1.46h-7.51a666.56 666.56 0 0 1-.489 2.925l-.46 2.633-2.397-1.535c-2.343-1.463-2.548-1.403-3.522-1.597l-1.602-.268.386-4.901h-15.736c.659 2.294 1.214 4.164 1.455 4.841l1.383 3.929-3.991-1.965c-3.076-1.494-3.495-1.513-4.512-1.694l-1.117-.181-2.004-6.342a4.285 4.285 0 0 1-.309.463C-89.654.13-90.898.779-92.272.83a7.691 7.691 0 0 1-.62.024h-.067l3.22 8.184-4.211-2.097c-1.799-.886-2.795-1.017-4.535-1.386h-8.255l-4.406-8.545c-18.299-.357-38.242 2.528-38.242 2.528v-3.052c21.101-9.354 29.72-10.033 33.043-9.549l-1.512-2.933v-3.055h8.928c-.026-.1-.747-2.814.631-4.677a3.054 3.054 0 0 1 .292-.348c.072-.08.147-.143.219-.214.043-.035.078-.076.122-.112.249-.205.507-.371.748-.478.925-.46 1.673-.514 1.813-.536l.089-.006h15.049l.372.159c.926.397 1.531 1.047 1.898 1.558.372.519.593.926.8 1.17-.013.021.604.496 1.142.786.393.225 1.218.614 1.663.823v-.01c-.014-1.083.514-2.063 1.195-2.68 2.08-1.795 4.739-1.733 4.895-1.803l.053-.003h12.887l.316.109c1.098.338 1.913 1.232 2.166 1.898.041.106.079.201.112.29.405-1.083 1.407-1.774 2.154-2.095l.396-.186h9.18l.003-.016h21.255l.445.259c.529.297.875.719 1.095 1.132.17.293.347.717.445 1.327.128.794.707 1.373 1.16 1.725l4.451 2.9v3.053a.5.5 0 0 1-.124 0h-3.992c-1.587.222-2.712 1.331-3.135 1.811C-10.764-11.662 0-3.053 0-3.053Z" style="fill:#231916;fill-opacity:1;fill-rule:nonzero;stroke:none" transform="translate(248.723 110.466)"/><path d="M0 0c-.391.711-3.88 22.195-4.305 24.635-2.355-1.512-3.158-1.688-4.241-1.87l.989-12.552h-7.036l-.275-3.675h7.6l.33-4.198h-11.898c-2.797.067-2.443 1.638-2.443 1.638l1.103 9.378 10.049-.034-.087 2.497c.018 1.447 1.668 1.745 1.668 1.745h-16.431l.003-.028h-.003l-3.146-15.818c-.703-3.116 4.314-3.405 4.314-3.405h12.486C-9.998-1.225-10.17-.28-9.732.521c.38.708 2.354 1.59 2.797 1.778l.201-2.525c.113-.706.641-1.119 1.336-1.443h7.487S.835-1.493 0 0m-36.108 4.631h5.509s-.74.176-.628 1.67c.053.711 4.252 15.832 5.112 18.269-3.079-1.51-3.934-1.684-5.059-1.868l-2.782-8.804h-2.324c.074.234.15.468.223.69.412 1.251.173 3.474-2.256 3.612-1.149.066-2.162-.061-3.48-.79l2.795 7.099c-2.154-1.07-3.518-1.22-5.35-1.625l-2.189-5.549h-2.608a9757.88 9757.88 0 0 1 2.428 5.583h-4.787l-4.406-8.543c-1.444-.003-10.715-.021-14.592.178-5.965.299-15.014 1.498-15.014 1.498 4.496-1.646 9.187-3.438 15.918-4.701 7.817-1.846 10.269.825 10.269.825s1.133 1.379 1.911.952c.229-.128.509-.196.467-.767l-3.96-7.677h6.233c.321.695 2.105 4.774 3.901 8.898h2.759l-2.794-7.088-1.92-4.775c-1.316-3.116 1.883-3.405 1.883-3.405h14.545c1.066.462 1.365 1.407 2.012 2.208.646.8 2.798 1.819 2.798 1.819h-14.227c-1.908.067-.931 2.281-.931 2.281l3.52 9.343c.444.419.894.419.894.419s1.633.048 1.132-1.379c-.815-2.393-1.835-5.3-2.875-8.383h4.858c.733 2.46 1.467 4.908 2.172 7.164h2.326l-1.805-5.711c-.192-.704-.005-1.115.322-1.443M4.761-1.687h19.301c.796.462.543 1.407.72 2.208.178.804 1.736 1.819 1.736 1.819H3.633Zm.77 15.958 7.48-2.148c1.096-.449 1.431-1.131 1.643-1.706l3.33-6.67H24.8c-.933.413-1.756 1.654-1.756 1.654l-4.315 6.714c-.053.099-.117.184-.178.275-.025.05-.062.124-.112.208 2.85-.123 3.085-1.619 3.707-2.281 8.425.687 16.949 2.081 24.876 6.034-7.313-1.301-22.272-2.184-31.154-2.05l-11.176 3.26s-.728 2.152-.808 2.748H-.545c.82-4.325 3.917-16.562 3.917-16.562h5.567z" style="fill:#fac10b;fill-opacity:1;fill-rule:nonzero;stroke:none" transform="translate(194.648 91.442)"/></g></svg>