<svg xmlns="http://www.w3.org/2000/svg" width="394.92758mm" height="273.18912mm" viewBox="0 0 394.92758 273.18912"><defs><radialGradient id="b" cx="0" cy="0" r="1" fx="0" fy="0" gradientTransform="matrix(17.8143 0 0 18.21238 83.637 84.264)" gradientUnits="userSpaceOnUse" spreadMethod="pad"><stop offset="0" style="stop-opacity:1;stop-color:#d92226"/><stop offset="0.74184755" style="stop-opacity:1;stop-color:#d92226"/><stop offset="1" style="stop-opacity:1;stop-color:#e88221"/></radialGradient><radialGradient id="c" cx="0" cy="0" r="1" fx="0" fy="0" gradientTransform="matrix(17.80325 0 0 18.20107 83.632 84.332)" gradientUnits="userSpaceOnUse" spreadMethod="pad"><stop offset="0" style="stop-opacity:1;stop-color:#d92226"/><stop offset="0.74184755" style="stop-opacity:1;stop-color:#d92226"/><stop offset="1" style="stop-opacity:1;stop-color:#e88221"/></radialGradient><radialGradient id="d" cx="0" cy="0" r="1" fx="0" fy="0" gradientTransform="matrix(17.77015 0 0 18.16723 83.609 84.315)" gradientUnits="userSpaceOnUse" spreadMethod="pad"><stop offset="0" style="stop-opacity:1;stop-color:#d92226"/><stop offset="0.74184755" style="stop-opacity:1;stop-color:#d92226"/><stop offset="1" style="stop-opacity:1;stop-color:#e88221"/></radialGradient><radialGradient id="e" cx="0" cy="0" r="1" fx="0" fy="0" gradientTransform="matrix(17.73356 0 0 18.12984 83.62 84.332)" gradientUnits="userSpaceOnUse" spreadMethod="pad"><stop offset="0" style="stop-opacity:1;stop-color:#d92226"/><stop offset="0.74184755" style="stop-opacity:1;stop-color:#d92226"/><stop offset="1" style="stop-opacity:1;stop-color:#e88221"/></radialGradient><radialGradient id="f" cx="0" cy="0" r="1" fx="0" fy="0" gradientTransform="matrix(17.76546 0 0 18.16244 83.642 84.366)" gradientUnits="userSpaceOnUse" spreadMethod="pad"><stop offset="0" style="stop-opacity:1;stop-color:#d92226"/><stop offset="0.74184755" style="stop-opacity:1;stop-color:#d92226"/><stop offset="1" style="stop-opacity:1;stop-color:#e88221"/></radialGradient><radialGradient id="g" cx="0" cy="0" r="1" fx="0" fy="0" gradientTransform="matrix(17.80167 0 0 18.19946 83.615 84.29)" gradientUnits="userSpaceOnUse" spreadMethod="pad"><stop offset="0" style="stop-opacity:1;stop-color:#d92226"/><stop offset="0.74184755" style="stop-opacity:1;stop-color:#d92226"/><stop offset="1" style="stop-opacity:1;stop-color:#e88221"/></radialGradient><radialGradient id="h" cx="0" cy="0" r="1" fx="0" fy="0" gradientTransform="matrix(17.79003 0 0 18.18756 83.604 84.339)" gradientUnits="userSpaceOnUse" spreadMethod="pad"><stop offset="0" style="stop-opacity:1;stop-color:#d92226"/><stop offset="0.74184755" style="stop-opacity:1;stop-color:#d92226"/><stop offset="1" style="stop-opacity:1;stop-color:#e88221"/></radialGradient><radialGradient id="i" cx="0" cy="0" r="1" fx="0" fy="0" gradientTransform="matrix(17.74773 0 0 18.14431 83.62 84.335)" gradientUnits="userSpaceOnUse" spreadMethod="pad"><stop offset="0" style="stop-opacity:1;stop-color:#d92226"/><stop offset="0.74184755" style="stop-opacity:1;stop-color:#d92226"/><stop offset="1" style="stop-opacity:1;stop-color:#e88221"/></radialGradient><radialGradient id="j" cx="0" cy="0" r="1" fx="0" fy="0" gradientTransform="matrix(17.74423 0 0 18.14074 83.625 84.339)" gradientUnits="userSpaceOnUse" spreadMethod="pad"><stop offset="0" style="stop-opacity:1;stop-color:#d92226"/><stop offset="0.74184755" style="stop-opacity:1;stop-color:#d92226"/><stop offset="1" style="stop-opacity:1;stop-color:#e88221"/></radialGradient><radialGradient id="k" cx="0" cy="0" r="1" fx="0" fy="0" gradientTransform="matrix(17.7555 0 0 18.15227 83.612 84.347)" gradientUnits="userSpaceOnUse" spreadMethod="pad"><stop offset="0" style="stop-opacity:1;stop-color:#d92226"/><stop offset="0.74184755" style="stop-opacity:1;stop-color:#d92226"/><stop offset="1" style="stop-opacity:1;stop-color:#e88221"/></radialGradient><radialGradient id="l" cx="0" cy="0" r="1" fx="0" fy="0" gradientTransform="translate(83.627 84.44) scale(17.96778)" gradientUnits="userSpaceOnUse" spreadMethod="pad"><stop offset="0" style="stop-opacity:1;stop-color:#d92226"/><stop offset="0.74184755" style="stop-opacity:1;stop-color:#d92226"/><stop offset="1" style="stop-opacity:1;stop-color:#e88221"/></radialGradient><clipPath id="a" clipPathUnits="userSpaceOnUse"><path d="M56.474 76.695h57.13v39.524h-57.13z"/></clipPath><clipPath id="m" clipPathUnits="userSpaceOnUse"><path d="M56.474 76.695h57.13v39.524h-57.13z"/></clipPath></defs><g style="stroke-width:.051032"><g clip-path="url(#a)" style="stroke-width:.051032" transform="matrix(6.91287 0 0 -6.91287 -390.402 803.407)"><g style="stroke-width:.051032"><path d="m0 0-1.063 1.305L.481 3.206h-.842c-.378 0-.637-.116-.866-.385l-.813-1v2.747h-.816a.348.348 0 0 1-.347-.348V-.904h.815c.193 0 .348.155.348.347V.806l.66-.81.562-.691a.52.52 0 0 1 .415-.209H.735z" style="fill:#221b19;fill-opacity:1;fill-rule:nonzero;stroke:none;stroke-width:.051032" transform="translate(84.931 111.653)"/></g><g style="stroke-width:.051032"><path d="M0 0c-.628 0-1.062.433-1.062 1.062v4.063c0 .191.156.347.348.347h.816V1.28c0-.173.141-.313.312-.313h.831v-.62A.348.348 0 0 0 .896 0Z" style="fill:#221b19;fill-opacity:1;fill-rule:nonzero;stroke:none;stroke-width:.051032" transform="translate(87.023 110.748)"/></g><g style="stroke-width:.051032"><path d="m0 0-.071-.076c-.004 0-.221-.224-.85-.224h-2.965c-.468 0-.689-.191-.857-.397l-.093-.115a.05.05 0 0 1-.007-.008l-.589-.724c.214.162.508.258.807.258h3.704c.451 0 .881.134.917.47.005.027.004.044.004.044Zm-5.433-1.545.001.001-.003-.001z" style="fill:#d92226;fill-opacity:1;fill-rule:nonzero;stroke:none;stroke-width:.051032" transform="translate(88.435 115.16)"/></g><g style="stroke-width:.051032"><path d="M0 0a14.339 14.339 0 0 1-1.496 2.967l.112.055a3.953 3.953 0 0 1 3.361-1.874c.029 0 .058.003.088.003A17.209 17.209 0 0 0 0 0m-32.532-2.625c-.076.792 1.464 2.385 6.737 4.412h.388a14.237 14.237 0 0 1-1.555-6.407c-2.435.216-4.278.686-5.159 1.394-.254.204-.392.406-.411.601m44.408 8.896 3.655 2.792H8.705l-.702-1.829-.683 1.829H4.255v-.731a3.932 3.932 0 0 1-4.114.271 3.952 3.952 0 0 1-3.361 1.875 3.956 3.956 0 0 1-3.426-1.983c-.564.36-1.297.568-2.128.568l-9.106.016V9.07a3.37 3.37 0 0 1-1.713-.465v.465h-6.703c-.73.911-1.808 1.448-2.96 1.448a3.754 3.754 0 0 1-2.49-.957c-1.734 2.017-5.461 2.57-7.361 1.747-1.107-.478-1.905-1.474-1.905-2.747 0-.028-.24-2.026 2.214-3.333.967-.515 1.983-.83 2.784-1.103.583-.199 1.592-.477 1.51-.657l.001-.003c-.339-.454-2.811.068-2.811.068l-4.285-6.824s3.037.52 5.975 1.585c-.317-.595-.476-1.22-.413-1.871.081-.847.526-1.602 1.321-2.241 1.535-1.234 4.435-2.009 8.152-2.284a14.35 14.35 0 0 1 4.754-7.699c2.906-2.431 6.554-3.565 10.274-3.196 3.686.367 7.001 2.172 9.335 5.082 2.461 3.07 3.427 6.9 2.996 10.58.169.076.338.153.502.231C3.705-1.951 6.454-.245 7.246 1.798h6.597l-1.967 1.423z" style="fill:#221b19;fill-opacity:1;fill-rule:nonzero;stroke:none;stroke-width:.051032" transform="translate(98.074 99.444)"/></g><g style="stroke-width:.051032"><path d="M0 0c.175.008.351.017.529.028A14.225 14.225 0 0 0 .013 6.48h-.329A14.544 14.544 0 0 1 0 0" style="fill:#fff;fill-opacity:1;fill-rule:nonzero;stroke:none;stroke-width:.051032" transform="translate(77.095 94.75)"/></g><g style="stroke-width:.051032"><path d="M0 0a33.744 33.744 0 0 0-2.006-4.305c.363.116.72.234 1.068.355A21.324 21.324 0 0 1 .368-.586 12.97 12.97 0 0 0 1.484-3.02l.256.108.172.077A13.613 13.613 0 0 1 .367.179 3.68 3.68 0 0 0-.066.095L0 0" style="fill:#fff;fill-opacity:1;fill-rule:nonzero;stroke:none;stroke-width:.051032" transform="translate(95.462 101.956)"/></g><g style="stroke-width:.051032"><path d="M0 0h-.841a13.444 13.444 0 0 1-1.671-6.466c.302-.019.612-.036.929-.048A12.694 12.694 0 0 0 0 0" style="fill:#fff;fill-opacity:1;fill-rule:nonzero;stroke:none;stroke-width:.051032" transform="translate(74.388 101.23)"/></g><g style="stroke-width:.051032"><path d="M0 0c.11.017.219.036.328.054.067.22.138.44.215.663L-.113.414C-.16.264-.206.113-.25-.038L0 0" style="fill:#fff;fill-opacity:1;fill-rule:nonzero;stroke:none;stroke-width:.051032" transform="translate(84.106 95.483)"/></g><g style="stroke-width:.051032"><path d="M0 0a12.275 12.275 0 0 0-3.035-2.716c-3.044-.081-5.935.721-8.408 2.5.697.342 1.36.715 1.988 1.113C-5.253-2.097.44 2.516 2.186 4.099A12.548 12.548 0 0 0 0 0m-12.828-4.128c.223.33.549 1.53-.633 3.086.161.059.326.123.496.192.369.134.8.295 1.062.415 4.028-2.997 7.779-2.533 8.779-2.335a12.198 12.198 0 0 0-9.704-1.358m-.47.142a12.473 12.473 0 0 0-4.425 2.535c.612-.226 1.575-.338 3.038.028.256.048.523.111.798.192.688-.805.944-1.818.589-2.755m15.51 8.173C-1.42 1.262-6.01-.923-9.058 1.155c.826.55 1.591 1.143 2.298 1.764a24.358 24.358 0 0 1 3.697 3.836c-.44-.12-.887-.237-1.339-.35-1.921-2.1-3.702-3.618-5.309-4.709-.882.885-1.273 2.055-1.302 3.401-.178-.027-.356-.052-.533-.077.04-1.37.445-2.628 1.441-3.585A18.464 18.464 0 0 0-12.11.299a14.824 14.824 0 0 0-2.436 2.54A18.904 18.904 0 0 0-15.71 4.56l-.613-.045c.35-.6.754-1.196 1.216-1.784A17.6 17.6 0 0 1-12.565.088a14.125 14.125 0 0 0-1.417-.545c-2.842 2.912-4.722 2.073-7.276 4.849l-.149.004c.621-.796 1.549-1.786 2.689-2.383 1.163-.607 2.965-1.23 4.252-2.614-1.951-.54-3.299-.383-3.882-.259a12.798 12.798 0 0 0-3.142 5.259c-.362.01-.718.024-1.067.043a13.578 13.578 0 0 1 4.447-7.065C-12.46-7.349-4.17-6.552.408-.844 2.689 2 3.616 5.526 3.274 8.934a71.72 71.72 0 0 0-.533-.225 12.788 12.788 0 0 0-.529-4.522" style="fill:#fff;fill-opacity:1;fill-rule:nonzero;stroke:none;stroke-width:.051032" transform="translate(94.864 86.85)"/></g><g style="stroke-width:.051032"><path d="M0 0a1.24 1.24 0 0 0 0 2.48A1.241 1.241 0 0 0 0 0m-5.197 1.421c-.424 0-.798.214-1.021.539.775.209 1.523.369 2.241.486a1.24 1.24 0 0 0-1.22-1.025m0 2.48c.393 0 .742-.184.97-.469a26.43 26.43 0 0 1-2.125-.325 1.24 1.24 0 0 0 1.155.794m-5.669-5.428a32.256 32.256 0 0 0-1.445-.571v1.15h1.613c.241 0 .482-.289-.168-.579m-1.445 3.724h1.083c.003 0 .38-.042.38-.274a.106.106 0 0 0-.013-.043 38.58 38.58 0 0 1-1.224-.447 1.16 1.16 0 0 0-.226-.026zm-18.922-.816c-.657 0-1.192.571-1.192 1.273s.535 1.274 1.192 1.274c.657 0 1.191-.572 1.191-1.274 0-.702-.534-1.273-1.191-1.273m-3.202.726a5.202 5.202 0 0 1-1.724.999c-1.277.451-2.179.731-2.544 1.121-.225.242-.009 1.002 1.286.408.611-.28.621-1.038.621-1.038s2.242-.002 2.452-.001a3.407 3.407 0 0 1-.137-.942c0-.186.018-.369.046-.547m43.728.575 2.157 1.912H7.146L6.019 1.659 4.922 4.594H2.885V2.93A3.347 3.347 0 0 1 0 4.588a3.328 3.328 0 0 1-2.075-.726 3.352 3.352 0 0 1-3.122 2.147 3.352 3.352 0 0 1-3.206-2.39c-.457.598-1.306.975-2.348.975h-6.71l2.498-2.178v-.737l-1.169-.647-2.415 1.043.628-1.586h-1.637c-.54 0-.981.493-.981 1.1 0 .607.441 1.1.981 1.1h1.464v1.912h-1.765c-.966 0-1.8-.48-2.319-1.224v1.224h-3.582V2.817l-.925 1.784h-1.859v-.047c-.585.901-1.573 1.494-2.691 1.494-.972 0-1.88-.454-2.495-1.226-1.576 2.308-5.422 2.799-7.115 2.067a2.555 2.555 0 0 1-1.539-2.216c-.027-.641.182-1.852 1.895-2.773.921-.497 1.913-.798 2.694-1.064.986-.337 1.782-.598 1.891-1.045.33-1.342-3.083-.788-3.083-.788l-3.108-4.999s5.81.897 7.981 2.85c.669.601 1.033 1.456 1.033 2.374 0 .227-.024.459-.069.691a3.134 3.134 0 0 1 1.915-.659c1.118 0 2.106.593 2.691 1.494v-2.223h1.917v1.403l.72-1.403h3.729v1.265c.524-.763 1.364-1.265 2.319-1.265h1.458l-.784-.956 2.514.265.645-2.017 1.031 2.069.03-.006v-1.535l-1.977-3.355 1.147.504c.233.103 5.717 2.516 6.563 2.928.478.232 1.934.94 1.934 2.554C-7.296.04-8.014.623-8.758.913c.111.099.211.212.302.336l.197.072A3.348 3.348 0 0 1-5.197-.687c.784 0 1.504.272 2.076.726A3.35 3.35 0 0 1 0-2.108c1.229 0 2.303.667 2.885 1.658v-1.008h7.2l-.792.778Z" style="fill:#fff;fill-opacity:1;fill-rule:nonzero;stroke:none;stroke-width:.051032" transform="translate(100.05 103.306)"/></g><g style="stroke-width:.051032"><path d="M0 0c.524.233 1.038.451 1.545.654h-.026V2.06h1.487c.215 0 .711-.148.776-.581a34.83 34.83 0 0 0 2.003.604c-.043.938-1.011 1.565-2.302 1.565h-5.631l1.823-1.59v-.697l1.081.598z" style="fill:#d92226;fill-opacity:1;fill-rule:nonzero;stroke:none;stroke-width:.051032" transform="translate(85.816 103.848)"/></g><g style="stroke-width:.051032"><path d="M0 0c.23 0 .734-.038.734-.522 0-.485-.357-.656-.734-.829-.553-.254-2.018-.784-2.018-.784v1.991a43.949 43.949 0 0 1-1.23-.689l.712-1.111-1.325.286v-1.558l-1.397-2.37S.441-3.078 1.291-2.665c.621.301 1.706.917 1.706 2.19C2.997.94 1.416 1.227.949 1.281A34.394 34.394 0 0 1-1.745 0Z" style="fill:#d92226;fill-opacity:1;fill-rule:nonzero;stroke:none;stroke-width:.051032" transform="translate(89.353 102.763)"/></g><g style="stroke-width:.051032"><path d="M0 0c-.884 0-1.602.754-1.602 1.683 0 .93.718 1.684 1.602 1.684.884 0 1.601-.754 1.601-1.684C1.601.754.884 0 0 0m0 4.667c-.983 0-1.848-.524-2.357-1.322l-.05-.085c-.023-.038-.043-.078-.065-.118l.01-.018-.045-.078-.015-.002a3.073 3.073 0 0 1-.317-1.361C-2.839.035-1.568-1.301 0-1.301c1.567 0 2.838 1.336 2.838 2.984S1.567 4.667 0 4.667" style="fill:#d92226;fill-opacity:1;fill-rule:nonzero;stroke:none;stroke-width:.051032" transform="translate(68.818 104.277)"/></g><g style="stroke-width:.051032"><path d="M0 0c-1.436-.652-2.127-2.899.387-4.252 2.222-1.197 4.476-1.274 4.785-2.357.575-2.011-3.27-1.352-3.27-1.352l-2.309-3.83s4.602.549 6.701 2.436C7.876-7.932 7.437-4.87 4.385-3.793c-1.227.433-2.348.841-2.688 1.177-.491.485-.336 1.066.191 1.26.831.306 2.139-.191 2.376-1.133 0-.023 2.452-.024 2.661-.009l.05.099C5.776.149 1.775.806 0 0" style="fill:#d92226;fill-opacity:1;fill-rule:nonzero;stroke:none;stroke-width:.051032" transform="translate(59.37 109.819)"/></g><g style="stroke-width:.051032"><path d="m0 0-1.584 3.054h-1.201v-5.249h1.097V.496l1.38-2.691H.983v5.249H0Z" style="fill:#d92226;fill-opacity:1;fill-rule:nonzero;stroke:none;stroke-width:.051032" transform="translate(74.703 104.443)"/></g><path d="M76.095 102.247h1.369v5.25h-1.369z" style="fill:#d92226;fill-opacity:1;fill-rule:nonzero;stroke:none;stroke-width:.051032"/><g style="stroke-width:.051032"><path d="M0 0h-1.799C-2.568 0-3.19.677-3.19 1.511c0 .834.622 1.51 1.391 1.51h1.053v1.092H-2.1c-1.362 0-2.467-1.124-2.467-2.602 0-1.479 1.105-2.648 2.467-2.648h1.794l.51.622z" style="fill:#d92226;fill-opacity:1;fill-rule:nonzero;stroke:none;stroke-width:.051032" transform="translate(82.294 103.385)"/></g><g style="stroke-width:.051032"><path d="M0 0h1.358v.068C.988.41.535.785 0 1.161Z" style="fill:#d92226;fill-opacity:1;fill-rule:nonzero;stroke:none;stroke-width:.051032" transform="translate(107.58 102.252)"/></g><g style="stroke-width:.051032"><path d="m0 0 1.495 1.326h-2.96l-1.014-2.64A12.85 12.85 0 0 0 0-3.168Z" style="fill:#d92226;fill-opacity:1;fill-rule:nonzero;stroke:none;stroke-width:.051032" transform="translate(108.939 106.17)"/></g><g style="stroke-width:.051032"><path d="M0 0h-1.352v-1.312a14.636 14.636 0 0 0 2.148-.819z" style="fill:#d92226;fill-opacity:1;fill-rule:nonzero;stroke:none;stroke-width:.051032" transform="translate(104.692 107.496)"/></g><g style="stroke-width:.051032"><path d="m0 0-.238.637c-.733.367-1.561.7-2.486.963v-3.172h1.133V.782l1.014-2.354h1.35l.552 1.294C.972-.039.586.199.165.427Z" style="fill:#d92226;fill-opacity:1;fill-rule:nonzero;stroke:none;stroke-width:.051032" transform="translate(106.064 103.824)"/></g><g style="stroke-width:.051032"><path d="M0 0c.609 0 1.14-.332 1.424-.825.469.043.926.07 1.373.083a2.939 2.939 0 0 1-5.739-.857c.455.116.901.221 1.338.313A1.644 1.644 0 0 0 0 0" style="fill:#d92226;fill-opacity:1;fill-rule:nonzero;stroke:none;stroke-width:.051032" transform="translate(94.854 107.611)"/></g><g style="stroke-width:.051032"><path d="M0 0a1.644 1.644 0 1 0-2.41 1.455 18.37 18.37 0 0 1-2.795-.183A1.645 1.645 0 0 0-6.841-.224c-.613 0-1.147.337-1.43.834-.41-.118-.828-.248-1.254-.395a2.943 2.943 0 0 1 4.971-.644 2.942 2.942 0 1 1 5.669 1.447 15.3 15.3 0 0 1-1.814.326C-.277 1.047 0 .556 0 0" style="fill:#d92226;fill-opacity:1;fill-rule:nonzero;stroke:none;stroke-width:.051032" transform="translate(101.695 104.546)"/></g><g style="stroke-width:.051032"><path d="M0 0a2.934 2.934 0 0 1-2.237 1.033A2.931 2.931 0 0 1-4.03.423 18.356 18.356 0 0 0 0 0" style="fill:#d92226;fill-opacity:1;fill-rule:nonzero;stroke:none;stroke-width:.051032" transform="translate(102.288 106.456)"/></g><g style="stroke-width:.051032"><path d="M0 0c-.058-.037-.115-.076-.175-.112-2.186-2.453-9.266-5.108-17.808-6.462-10.489-1.663-19.209-.737-19.479 2.069-.107 1.116 1.399 2.694 6.152 4.728v.91c-.807-.258-1.702-.594-2.41-.942a26.337 26.337 0 0 1-1.306-.672 2.947 2.947 0 0 0-.84-1.052c-.695-.536-1.572-1.01-2.515-1.423-.715-.794-1.072-1.583-.999-2.336.34-3.538 9.997-4.919 21.569-3.084C-7.677-6.77.564-3.231 2.23 0Z" style="fill:#bec0c1;fill-opacity:1;fill-rule:nonzero;stroke:none;stroke-width:.051032" transform="translate(102.21 101.241)"/></g><g style="stroke-width:.051032"><path d="M0 0c-12.146-1.531-14.248-.112-14.319.225-.179.843 4.344-.323 14.188 1.14 8.423 1.254 15.965 4.702 15.513 3.591C15.245 4.62 9.828 1.238 0 0" style="fill:#bec0c1;fill-opacity:1;fill-rule:nonzero;stroke:none;stroke-width:.051032" transform="translate(84.186 93.136)"/></g><g style="stroke-width:.051032"><path d="M0 0c-11.831-1.495-14.008-.131-14.08.204-.176.817 4.312-.306 13.947 1.127C8.128 2.562 15.499 5.934 15.09 4.847 14.967 4.52 9.62 1.217 0 0" style="fill:#c1c2c3;fill-opacity:1;fill-rule:nonzero;stroke:none;stroke-width:.051032" transform="translate(84.197 93.155)"/></g><g style="stroke-width:.051032"><path d="M0 0c-11.515-1.458-13.768-.151-13.841.184-.173.792 4.279-.29 13.706 1.114 8.099 1.207 15.298 4.501 14.932 3.44C14.687 4.419 9.412 1.195 0 0" style="fill:#c3c4c5;fill-opacity:1;fill-rule:nonzero;stroke:none;stroke-width:.051032" transform="translate(84.207 93.175)"/></g><g style="stroke-width:.051032"><path d="M0 0c-11.2-1.421-13.529-.171-13.602.163-.17.766 4.247-.273 13.466 1.101 7.936 1.184 14.961 4.4 14.64 3.365C14.408 4.317 9.204 1.173 0 0" style="fill:#c5c5c7;fill-opacity:1;fill-rule:nonzero;stroke:none;stroke-width:.051032" transform="translate(84.217 93.194)"/></g><g style="stroke-width:.051032"><path d="M0 0c-10.884-1.384-13.289-.191-13.363.142-.166.741 4.215-.256 13.225 1.088 7.773 1.161 14.627 4.297 14.35 3.291C14.128 4.214 8.995 1.152 0 0" style="fill:#c7c8c9;fill-opacity:1;fill-rule:nonzero;stroke:none;stroke-width:.051032" transform="translate(84.228 93.214)"/></g><g style="stroke-width:.051032"><path d="M0 0c-10.569-1.348-13.049-.211-13.124.121-.163.716 4.183-.24 12.985 1.075C7.471 2.333 14.152 5.39 13.92 4.412 13.848 4.11 8.788 1.13 0 0" style="fill:#c9c9cb;fill-opacity:1;fill-rule:nonzero;stroke:none;stroke-width:.051032" transform="translate(84.238 93.233)"/></g><g style="stroke-width:.051032"><path d="M0 0c-10.253-1.311-12.809-.231-12.885.1-.159.691 4.151-.222 12.744 1.062 7.448 1.114 13.958 4.089 13.768 3.141C13.568 4.006 8.579 1.108 0 0" style="fill:#cbcccd;fill-opacity:1;fill-rule:nonzero;stroke:none;stroke-width:.051032" transform="translate(84.248 93.253)"/></g><g style="stroke-width:.051032"><path d="M0 0c-9.938-1.275-12.569-.251-12.646.079-.156.666 4.119-.206 12.503 1.049 7.286 1.091 13.811 3.931 13.478 3.066C13.349 3.896 8.371 1.086 0 0" style="fill:#cccece;fill-opacity:1;fill-rule:nonzero;stroke:none;stroke-width:.051032" transform="translate(84.258 93.272)"/></g><g style="stroke-width:.051032"><path d="M0 0c-9.622-1.238-12.329-.27-12.407.058-.152.641 4.086-.189 12.263 1.036 7.122 1.068 13.503 3.822 13.186 2.991C13.078 3.792 8.163 1.065 0 0" style="fill:#cfced0;fill-opacity:1;fill-rule:nonzero;stroke:none;stroke-width:.051032" transform="translate(84.268 93.292)"/></g><g style="stroke-width:.051032"><path d="M0 0c-9.307-1.202-12.09-.29-12.168.037-.147.616 4.054-.172 12.022 1.023C6.814 2.105 13.05 4.772 12.75 3.976 12.807 3.689 7.955 1.043 0 0" style="fill:#d1d3d3;fill-opacity:1;fill-rule:nonzero;stroke:none;stroke-width:.051032" transform="translate(84.279 93.311)"/></g><g style="stroke-width:.051032"><path d="M0 0c-8.991-1.165-11.85-.31-11.929.016-.143.591 4.022-.154 11.781 1.01C6.65 2.048 12.741 4.628 12.457 3.867 12.537 3.586 7.747 1.021 0 0" style="fill:#d4d4d4;fill-opacity:1;fill-rule:nonzero;stroke:none;stroke-width:.051032" transform="translate(84.289 93.33)"/></g><g style="stroke-width:.051032"><path d="M0 0c-8.676-1.128-11.61-.33-11.69-.005-.139.566 3.99-.137 11.541.997 6.635.999 12.58 3.492 12.314 2.767C12.266 3.482 7.539.999 0 0" style="fill:#d6d5d7;fill-opacity:1;fill-rule:nonzero;stroke:none;stroke-width:.051032" transform="translate(84.3 93.35)"/></g><g style="stroke-width:.051032"><path d="M0 0c-8.361-1.092-11.37-.35-11.451-.026-.135.541 3.958-.12 11.3.984 6.472.976 12.273 3.382 12.023 2.692C11.995 3.379 7.331.978 0 0" style="fill:#d7d8d8;fill-opacity:1;fill-rule:nonzero;stroke:none;stroke-width:.051032" transform="translate(84.31 93.37)"/></g><g style="stroke-width:.051032"><path d="M0 0c-8.045-1.055-11.13-.37-11.212-.047-.13.516 3.926-.104 11.059.971 6.31.953 11.966 3.272 11.733 2.617C11.724 3.275 7.123.956 0 0" style="fill:#dbdad9;fill-opacity:1;fill-rule:nonzero;stroke:none;stroke-width:.051032" transform="translate(84.32 93.39)"/></g><g style="stroke-width:.051032"><path d="M0 0c-7.73-1.018-10.89-.39-10.973-.067-.125.49 3.893-.087 10.819.957 6.147.93 11.657 3.162 11.442 2.542C11.453 3.172 6.915.934 0 0" style="fill:#dcdadc;fill-opacity:1;fill-rule:nonzero;stroke:none;stroke-width:.051032" transform="translate(84.33 93.409)"/></g><g style="stroke-width:.051032"><path d="M0 0c-7.414-.982-10.65-.41-10.734-.088-.12.465 3.861-.071 10.578.944 5.985.907 11.35 3.052 11.151 2.467C11.182 3.068 6.707.912 0 0" style="fill:#dededd;fill-opacity:1;fill-rule:nonzero;stroke:none;stroke-width:.051032" transform="translate(84.34 93.428)"/></g><g style="stroke-width:.051032"><path d="M0 0c-7.099-.945-10.41-.43-10.495-.109-.116.441 3.829-.053 10.338.931 5.821.884 11.042 2.942 10.859 2.393C10.912 2.965 6.499.891 0 0" style="fill:#e0dfde;fill-opacity:1;fill-rule:nonzero;stroke:none;stroke-width:.051032" transform="translate(84.35 93.447)"/></g><g style="stroke-width:.051032"><path d="M0 0c-6.781-.922-10.171-.449-10.256-.13-.111.415 3.797-.036 10.097.918C5.5 1.649 10.576 3.62 10.41 3.106 10.641 2.861 6.292.856 0 0" style="fill:#e3e2e1;fill-opacity:1;fill-rule:nonzero;stroke:none;stroke-width:.051032" transform="translate(84.36 93.467)"/></g><g style="stroke-width:.051032"><path d="M0 0c-6.466-.886-9.931-.469-10.017-.151-.106.391 3.764-.02 9.856.906 5.497.837 10.427 2.721 10.278 2.242C10.37 2.758 6.084.834 0 0" style="fill:#e3e4e4;fill-opacity:1;fill-rule:nonzero;stroke:none;stroke-width:.051032" transform="translate(84.371 93.487)"/></g><g style="stroke-width:.051032"><path d="M0 0c-6.15-.849-9.691-.489-9.778-.172-.1.366 3.732-.003 9.616.892 5.333.814 10.119 2.612 9.987 2.168C10.099 2.654 5.876.812 0 0" style="fill:#e6e7e5;fill-opacity:1;fill-rule:nonzero;stroke:none;stroke-width:.051032" transform="translate(84.381 93.506)"/></g><g style="stroke-width:.051032"><path d="M0 0c-5.835-.813-9.45-.509-9.539-.193-.095.341 3.7.015 9.375.88 5.171.79 9.811 2.501 9.696 2.092C9.828 2.551 5.668.79 0 0" style="fill:#e8e7e7;fill-opacity:1;fill-rule:nonzero;stroke:none;stroke-width:.051032" transform="translate(84.391 93.525)"/></g><g style="stroke-width:.051032"><path d="M0 0c-5.519-.776-9.21-.529-9.299-.214-.09.316 3.667.031 9.133.866 5.009.768 9.504 2.392 9.406 2.019C9.557 2.447 5.46.768 0 0" style="fill:#ebeae9;fill-opacity:1;fill-rule:nonzero;stroke:none;stroke-width:.051032" transform="translate(84.402 93.545)"/></g><g style="stroke-width:.051032"><path d="M0 0c-5.204-.739-8.97-.549-9.06-.235-.084.292 3.635.049 8.893.854 4.846.744 9.196 2.281 9.115 1.943C9.287 2.344 5.252.746 0 0" style="fill:#ecebec;fill-opacity:1;fill-rule:nonzero;stroke:none;stroke-width:.051032" transform="translate(84.412 93.564)"/></g><g style="stroke-width:.051032"><path d="M0 0c-4.888-.702-8.73-.569-8.822-.256-.078.267 3.603.065 8.653.841 4.683.721 8.888 2.171 8.824 1.868C9.016 2.24 5.044.724 0 0" style="fill:#eeedef;fill-opacity:1;fill-rule:nonzero;stroke:none;stroke-width:.051032" transform="translate(84.422 93.584)"/></g><g style="stroke-width:.051032"><path d="M0 0c-4.573-.665-8.489-.588-8.582-.277-.073.243 3.571.083 8.412.828 4.52.698 8.58 2.061 8.533 1.793C8.745 2.137 4.836.703 0 0" style="fill:#f0f0f0;fill-opacity:1;fill-rule:nonzero;stroke:none;stroke-width:.051032" transform="translate(84.432 93.603)"/></g><g style="stroke-width:.051032"><path d="M0 0c-4.258-.627-8.248-.608-8.343-.298-.067.218 3.538.099 8.171.815 4.358.675 8.273 1.951 8.242 1.718C8.474 2.033 4.628.682 0 0" style="fill:#f3f2f2;fill-opacity:1;fill-rule:nonzero;stroke:none;stroke-width:.051032" transform="translate(84.443 93.623)"/></g><g style="stroke-width:.051032"><path d="M0 0c-3.942-.59-8.008-.628-8.104-.319-.061.193 3.506.117 7.93.802 4.196.652 7.965 1.842 7.952 1.643C8.203 1.93 4.42.661 0 0" style="fill:#f5f4f3;fill-opacity:1;fill-rule:nonzero;stroke:none;stroke-width:.051032" transform="translate(84.453 93.642)"/></g><g style="stroke-width:.051032"><path d="M0 0c-3.627-.552-7.766-.647-7.865-.339-.054.168 3.474.132 7.69.788 4.032.629 7.657 1.732 7.66 1.569C7.933 1.826 4.212.641 0 0" style="fill:#f8f8f7;fill-opacity:1;fill-rule:nonzero;stroke:none;stroke-width:.051032" transform="translate(84.463 93.662)"/></g><g style="stroke-width:.051032"><path d="M0 0c-3.312-.513-7.525-.667-7.626-.36-.048.143 3.442.15 7.449.775 3.87.606 7.35 1.621 7.37 1.494C7.662 1.723 4.003.62 0 0" style="fill:#f9f9f9;fill-opacity:1;fill-rule:nonzero;stroke:none;stroke-width:.051032" transform="translate(84.473 93.681)"/></g><g style="stroke-width:.051032"><path d="M0 0c-2.997-.469-7.282-.686-7.387-.381-.041.119 3.41.167 7.209.762C3.529.964 6.863 1.893 6.9 1.8 7.391 1.619 3.794.608 0 0" style="fill:#fcfcfc;fill-opacity:1;fill-rule:nonzero;stroke:none;stroke-width:.051032" transform="translate(84.484 93.7)"/></g><g style="stroke-width:.051032"><path d="M0 0c-2.682-.432-7.039-.705-7.148-.402-.034.095 3.377.183 6.968.749 3.545.56 6.734 1.401 6.788 1.344C7.12 1.516 3.586.586 0 0" style="fill:#fdfdfd;fill-opacity:1;fill-rule:nonzero;stroke:none;stroke-width:.051032" transform="translate(84.494 93.72)"/></g><g style="stroke-width:.051032"><path d="M0 0c-2.367-.395-6.792-.722-6.909-.423-.027.071 3.345.201 6.727.736C3.2.85 6.245 1.605 6.315 1.582 6.849 1.413 3.377.564 0 0" style="fill:#fff;fill-opacity:1;fill-rule:nonzero;stroke:none;stroke-width:.051032" transform="translate(84.504 93.74)"/></g></g><g style="stroke-width:.051032"><path d="M74.388 101.23a12.692 12.692 0 0 1-1.583-6.514c1.32-.051 2.765-.04 4.29.035a14.527 14.527 0 0 0-.316 6.479z" style="fill:url(#b);stroke:none;stroke-width:.051032" transform="matrix(6.91287 0 0 -6.91287 -390.402 803.407)"/></g><g style="stroke-width:.051032"><path d="M73.373 91.248a12.81 12.81 0 0 1 3.142-5.259c.583-.124 1.933-.281 3.883.259-1.287 1.384-3.09 2.007-4.253 2.615-1.139.596-2.068 1.586-2.688 2.383l.149-.005c2.554-2.776 4.434-1.937 7.275-4.848.446.143.918.322 1.418.544a17.563 17.563 0 0 0-2.542 2.644 15.573 15.573 0 0 0-1.217 1.783l.614.045a18.69 18.69 0 0 1 1.164-1.72 14.795 14.795 0 0 1 2.436-2.541c.63.305 1.3.679 2.005 1.137-.997.956-1.401 2.214-1.441 3.584-3.573-.505-6.964-.705-9.945-.621" style="fill:url(#c);stroke:none;stroke-width:.051032" transform="matrix(6.91287 0 0 -6.91287 -390.402 803.407)"/></g><g style="stroke-width:.051032"><path d="M78.481 101.23h-1.373a14.212 14.212 0 0 1 .516-6.452c1.224.072 2.496.183 3.794.335l2.225 3.289-.577 2.146-3.508-.396.807 1.071h-.171v.007c-.607 0-1.195.177-1.713.489z" style="fill:url(#d);stroke:none;stroke-width:.051032" transform="matrix(6.91287 0 0 -6.91287 -390.402 803.407)"/></g><g style="stroke-width:.051032"><path d="M84.521 92.048a54.687 54.687 0 0 0-.672-.102h.001c.03-1.346.421-2.516 1.303-3.4 1.606 1.09 3.388 2.609 5.309 4.708a69.446 69.446 0 0 0-5.941-1.206m-.676-.102h.004-.004" style="fill:url(#e);stroke:none;stroke-width:.051032" transform="matrix(6.91287 0 0 -6.91287 -390.402 803.407)"/></g><g style="stroke-width:.051032"><path d="M80.178 85.426c-1.462-.366-2.425-.254-3.037-.028a12.473 12.473 0 0 1 4.424-2.534c.356.937.099 1.949-.587 2.755a8.173 8.173 0 0 0-.8-.193" style="fill:url(#f);stroke:none;stroke-width:.051032" transform="matrix(6.91287 0 0 -6.91287 -390.402 803.407)"/></g><g style="stroke-width:.051032"><path d="M94.523 98.006a37.23 37.23 0 0 1 2.422.929 12.824 12.824 0 0 1-1.116 2.435c-.177-.627-.573-1.846-1.306-3.364" style="fill:url(#g);stroke:none;stroke-width:.051032" transform="matrix(6.91287 0 0 -6.91287 -390.402 803.407)"/></g><g style="stroke-width:.051032"><path d="M91.801 93.605a24.444 24.444 0 0 0-3.696-3.837 22.095 22.095 0 0 0-2.299-1.763c3.048-2.078 7.637.106 11.27 3.031.449 1.471.622 3.005.529 4.523a49.802 49.802 0 0 0-5.804-1.954m-.003-.001.003.001a.01.01 0 0 1-.003-.001" style="fill:url(#h);stroke:none;stroke-width:.051032" transform="matrix(6.91287 0 0 -6.91287 -390.402 803.407)"/></g><g style="stroke-width:.051032"><path d="M85.408 87.746a20.845 20.845 0 0 0-1.988-1.113c2.473-1.778 5.365-2.581 8.409-2.5a12.295 12.295 0 0 1 3.035 2.716 12.59 12.59 0 0 1 2.186 4.1c-1.745-1.584-7.439-6.197-11.642-3.203" style="fill:url(#i);stroke:none;stroke-width:.051032" transform="matrix(6.91287 0 0 -6.91287 -390.402 803.407)"/></g><g style="stroke-width:.051032"><path d="M81.898 85.999c-.17-.068-.335-.133-.495-.192 1.182-1.555.855-2.756.632-3.085a12.2 12.2 0 0 1 9.705 1.357c-1-.197-4.752-.662-8.78 2.335a17.025 17.025 0 0 0-1.062-.415" style="fill:url(#j);stroke:none;stroke-width:.051032" transform="matrix(6.91287 0 0 -6.91287 -390.402 803.407)"/></g><g style="stroke-width:.051032"><path d="M93.361 102.288c0-1.323-.766-2.365-2.276-3.1a1084.81 1084.81 0 0 0-6.436-2.988 18.813 18.813 0 0 1-.215-.662 19.371 19.371 0 0 1-.236-.04c3.331.532 6.5 1.274 9.257 2.154a33.394 33.394 0 0 1 2.006 4.304l-.065.095a3.92 3.92 0 0 0-2.035.255v-.018m-9.255-6.804.092.014-.092-.014" style="fill:url(#k);stroke:none;stroke-width:.051032" transform="matrix(6.91287 0 0 -6.91287 -390.402 803.407)"/></g><g style="stroke-width:.051032"><path d="M82.624 95.266c.409.055.82.116 1.232.179a26 26 0 0 0 .137.453l-1.369-.632" style="fill:url(#l);stroke:none;stroke-width:.051032" transform="matrix(6.91287 0 0 -6.91287 -390.402 803.407)"/></g><g clip-path="url(#m)" style="stroke-width:.051032" transform="matrix(6.91287 0 0 -6.91287 -390.402 803.407)"><g style="stroke-width:.051032"><path d="M0 0a.587.587 0 0 0-.022.213c.007.045.027.075.06.091l.207.103A.975.975 0 0 1 .268.14c.021-.104.05-.192.085-.264a.424.424 0 0 1 .176-.2C.597-.36.671-.358.75-.319c.119.058.174.18.165.366L.903.315a.639.639 0 0 0 .065.336.536.536 0 0 0 .246.224.415.415 0 0 0 .419-.011c.133-.079.247-.216.342-.411.05-.101.089-.174.116-.22a.31.31 0 0 1 .091-.1L1.96.023C1.935.011 1.913.011 1.894.022a.201.201 0 0 0-.061.072 2.643 2.643 0 0 0-.098.185c-.124.253-.247.349-.369.289a.246.246 0 0 1-.12-.113.397.397 0 0 1-.029-.185l.011-.241a.924.924 0 0 0-.053-.398.53.53 0 0 0-.273-.257C.732-.71.576-.714.436-.639c-.14.076-.258.209-.353.4C.05-.171.023-.092 0 0" style="fill:#231f20;fill-opacity:1;fill-rule:nonzero;stroke:none;stroke-width:.051032" transform="translate(69.668 86.552)"/></g><g style="stroke-width:.051032"><path d="M0 0a.524.524 0 0 0 .114.347C.2.465.344.588.549.715l.849.53c.024.016.043.022.06.02.016-.002.031-.014.046-.038l.143-.229L.765.447A1.63 1.63 0 0 1 .446.202.374.374 0 0 1 .335 0a.317.317 0 0 1 .057-.199.314.314 0 0 1 .154-.138c.059-.022.136-.018.23.011.095.028.215.088.36.178L1.74.23c.075.047.133.08.174.099a.213.213 0 0 0 .1.025c.025-.003.046-.018.063-.044l.145-.232a.872.872 0 0 1-.287-.13L1.282-.46C1.078-.587.904-.663.76-.688a.514.514 0 0 0-.361.049.822.822 0 0 0-.265.279A.826.826 0 0 0 0 0" style="fill:#231f20;fill-opacity:1;fill-rule:nonzero;stroke:none;stroke-width:.051032" transform="translate(70.492 85.097)"/></g><g style="stroke-width:.051032"><path d="M0 0c-.002.022.009.049.033.081l1.148 1.393c.005.007.013.014.024.024.036.029.066.029.09-.001l.159-.191L.626.313.377.034l-.06-.065.397.238L1.78.802c.027.018.048.022.065.015a.195.195 0 0 0 .063-.056l.21-.252a.152.152 0 0 0 .038-.07c.003-.019-.008-.042-.03-.07l-.773-.93-.3-.347.394.234 1.04.579c.036.02.067.025.095.014a.221.221 0 0 0 .079-.063l.147-.176a.269.269 0 0 1-.106-.012.897.897 0 0 1-.11-.049l-1.487-.827c-.034-.019-.062-.026-.085-.019a.164.164 0 0 0-.068.052l-.184.221a.155.155 0 0 0-.039.08c-.002.024.008.051.031.081L1.802.465.374-.328C.338-.343.309-.348.287-.342c-.022.004-.045.022-.069.05l-.177.211A.17.17 0 0 0 0 0" style="fill:#231f20;fill-opacity:1;fill-rule:nonzero;stroke:none;stroke-width:.051032" transform="translate(71.505 83.512)"/></g><g style="stroke-width:.051032"><path d="M0 0c.069-.011.151.011.245.065C.339.12.45.217.578.357c.13.141.218.26.265.358.047.098.062.181.044.25a.41.41 0 0 1-.131.198.417.417 0 0 1-.21.115C.475 1.29.394 1.268.3 1.213A1.63 1.63 0 0 1-.034.918 1.558 1.558 0 0 1-.296.563C-.344.465-.358.382-.341.313A.43.43 0 0 1-.208.112.416.416 0 0 1 0 0m-.677.472c.027.202.156.429.387.682.233.253.449.402.648.446.199.044.4-.026.604-.213.203-.187.291-.381.263-.583C1.197.603 1.067.375.834.122.603-.13.388-.279.189-.324c-.198-.045-.399.026-.602.213-.204.186-.292.381-.264.583" style="fill:#231f20;fill-opacity:1;fill-rule:nonzero;stroke:none;stroke-width:.051032" transform="translate(73.97 81.32)"/></g><g style="stroke-width:.051032"><path d="m0 0 .181-.131C.242-.175.26-.23.235-.296l-.41-1.594.185.269.573.794c.054.075.096.128.125.16a.185.185 0 0 0 .079.06c.024.009.048.003.074-.015l.208-.151a1.039 1.039 0 0 1-.212-.232l-.874-1.209c-.066-.091-.144-.103-.236-.038l-.176.128a.137.137 0 0 0-.057.157l.411 1.619a15.176 15.176 0 0 0-.198-.298l-.71-.982c-.03-.042-.066-.048-.108-.018l-.201.146L-.238-.042C-.17.051-.091.066 0 0" style="fill:#231f20;fill-opacity:1;fill-rule:nonzero;stroke:none;stroke-width:.051032" transform="translate(75.819 81.902)"/></g><g style="stroke-width:.051032"><path d="m0 0 .239-.121-.417-.825.836.468a.248.248 0 0 0 .129.045.213.213 0 0 0 .109-.02l.274-.138a.42.42 0 0 1-.11-.024 1.537 1.537 0 0 1-.134-.066l-.805-.443.155-1.225L0-2.21c-.032.017-.053.032-.061.046a.331.331 0 0 0-.025.084l-.121 1.075-.408-.808c-.023-.046-.059-.057-.107-.033l-.233.118.853 1.69C-.078.01-.044.022 0 0" style="fill:#231f20;fill-opacity:1;fill-rule:nonzero;stroke:none;stroke-width:.051032" transform="translate(77.873 80.555)"/></g><g style="stroke-width:.051032"><path d="m0 0 .079.203c.02.05.053.066.099.048l.961-.375c.076-.03.138-.051.187-.065a.304.304 0 0 1 .127-.01l-.087-.225a.076.076 0 0 0-.053-.049.221.221 0 0 0-.104.009 2.165 2.165 0 0 0-.188.066l-.196.076-.58-1.488c-.019-.048-.053-.062-.103-.043l-.244.095.609 1.56z" style="fill:#231f20;fill-opacity:1;fill-rule:nonzero;stroke:none;stroke-width:.051032" transform="translate(78.875 79.718)"/></g><g style="stroke-width:.051032"><path d="M0 0c.071.029.119.093.141.191.022.093.014.168-.023.224C.08.47-.004.513-.135.543-.163.55-.191.555-.218.56L-.29.57l-.081.013-.124-.537.21-.049A.492.492 0 0 1 0 0m-.149-.869c.08.031.132.1.157.208.024.105.011.185-.04.239a.466.466 0 0 1-.243.12l-.285.065-.131-.57c.054-.019.14-.043.258-.07a.473.473 0 0 1 .284.008m-.615-.222a6.238 6.238 0 0 0-.316.094L-.641.914A4.94 4.94 0 0 0-.075.827C.153.774.313.692.404.578.496.464.52.312.476.12a.49.49 0 0 0-.114-.239.557.557 0 0 0-.193-.126.453.453 0 0 0 .161-.21.485.485 0 0 0 .015-.281C.3-.931.206-1.064.064-1.136c-.142-.071-.32-.082-.535-.032a6.29 6.29 0 0 0-.293.077" style="fill:#231f20;fill-opacity:1;fill-rule:nonzero;stroke:none;stroke-width:.051032" transform="translate(81.81 78.295)"/></g><g style="stroke-width:.051032"><path d="m0 0-.342-.784.482-.059Zm.429-1.672a.31.31 0 0 0-.123.034c-.025.016-.04.045-.046.086l-.072.42-.649.079-.177-.404a.14.14 0 0 0-.043-.056.07.07 0 0 0-.054-.019l-.255.031.805 1.787c.02.041.039.066.058.077.019.01.05.013.094.008L.12.352C.162.347.191.337.206.322.22.308.232.278.242.234l.365-1.928z" style="fill:#231f20;fill-opacity:1;fill-rule:nonzero;stroke:none;stroke-width:.051032" transform="translate(83.303 78.445)"/></g><g style="stroke-width:.051032"><path d="M0 0a.59.59 0 0 0-.199.079c-.037.027-.054.058-.053.095l.005.232A.975.975 0 0 1 0 .302 1.11 1.11 0 0 1 .274.256a.427.427 0 0 1 .258.062.234.234 0 0 1 .099.199C.634.65.551.755.382.833L.139.946a.648.648 0 0 0-.269.213.543.543 0 0 0-.083.323.414.414 0 0 0 .203.366c.132.08.306.118.523.113.112-.003.195-.002.249.001a.295.295 0 0 1 .13.034l-.005-.248C.886 1.72.876 1.7.857 1.689a.19.19 0 0 0-.091-.021 2.687 2.687 0 0 0-.21-.001c-.281.007-.424-.058-.427-.194a.237.237 0 0 1 .045-.158.39.39 0 0 1 .15-.111l.219-.102A.92.92 0 0 0 .871.871.533.533 0 0 0 .973.509C.968.32.9.18.768.091.636.001.464-.041.25-.036A1.214 1.214 0 0 0 0 0" style="fill:#231f20;fill-opacity:1;fill-rule:nonzero;stroke:none;stroke-width:.051032" transform="translate(84.442 76.737)"/></g><g style="stroke-width:.051032"><path d="m0 0 .267.019.066-.922.477.831a.26.26 0 0 0 .088.104.226.226 0 0 0 .104.04l.305.022a.435.435 0 0 1-.081-.078 1.27 1.27 0 0 1-.081-.125L.682-.903l.761-.971-.308-.022c-.037-.003-.062 0-.077.008a.328.328 0 0 0-.063.059l-.657.86.065-.902c.004-.052-.021-.079-.074-.083l-.262-.019-.135 1.888C-.072-.032-.049-.004 0 0" style="fill:#231f20;fill-opacity:1;fill-rule:nonzero;stroke:none;stroke-width:.051032" transform="translate(85.736 78.7)"/></g><g style="stroke-width:.051032"><path d="m0 0-.278 1.596c-.02.116.028.184.144.204l.628.109c.205.036.334.074.389.113l.04-.231a.073.073 0 0 0-.027-.075.347.347 0 0 0-.122-.052 2.907 2.907 0 0 0-.254-.053l-.378-.066c-.025-.004-.041-.011-.048-.019-.007-.008-.008-.025-.004-.048l.079-.454.775.135.036-.21C.989.897.967.866.912.856L.219.735l.087-.5C.31.212.317.197.326.191.336.186.353.185.379.189l.502.088c.149.025.25.058.303.097l.042-.245a.068.068 0 0 0-.019-.065.24.24 0 0 0-.092-.042A2.494 2.494 0 0 0 .916-.02L.204-.143C.088-.164.02-.116 0 0" style="fill:#231f20;fill-opacity:1;fill-rule:nonzero;stroke:none;stroke-width:.051032" transform="translate(87.487 77.053)"/></g><g style="stroke-width:.051032"><path d="m0 0-.058.21c-.014.051.003.084.051.097L.988.58c.078.022.14.042.188.061a.323.323 0 0 1 .109.067l.063-.232c.008-.028.004-.052-.013-.072A.218.218 0 0 0 1.247.35a1.998 1.998 0 0 0-.191-.06L.854.234l.424-1.54c.013-.049-.006-.081-.057-.096l-.253-.069L.524.144Z" style="fill:#231f20;fill-opacity:1;fill-rule:nonzero;stroke:none;stroke-width:.051032" transform="translate(88.535 78.758)"/></g><g style="stroke-width:.051032"><path d="M0 0c.049.07.053.157.014.26-.039.101-.095.16-.167.176A.468.468 0 0 1-.422.4L-.694.295l.209-.546c.057.014.141.042.254.086A.48.48 0 0 1 0 0m-.362.804c.043.064.047.143.01.237-.034.09-.082.147-.144.173-.062.025-.156.014-.281-.035a.814.814 0 0 1-.079-.033l-.065-.031a1.88 1.88 0 0 0-.075-.035l.197-.515.202.077a.492.492 0 0 1 .235.162M-.387-.528a8.094 8.094 0 0 0-.314-.099l-.703 1.831c.073.041.162.085.266.134.105.049.189.086.252.11.218.084.397.104.536.061.14-.043.245-.156.316-.34A.493.493 0 0 0 .004.908.56.56 0 0 0-.085.695a.457.457 0 0 0 .42-.309C.407.199.404.036.326-.102S.106-.349-.1-.428a6.654 6.654 0 0 0-.287-.1" style="fill:#231f20;fill-opacity:1;fill-rule:nonzero;stroke:none;stroke-width:.051032" transform="translate(91.392 78.265)"/></g><g style="stroke-width:.051032"><path d="m0 0 .153-.842.433.221zm1.288-1.15a.299.299 0 0 0-.121-.039c-.03-.001-.059.014-.087.045l-.293.309-.583-.296.078-.434a.137.137 0 0 0-.004-.07.074.074 0 0 0-.036-.047l-.229-.116L-.313.135a.187.187 0 0 0 .005.096c.01.019.035.038.074.059l.138.07c.037.019.067.026.087.022A.183.183 0 0 0 .07.33l1.377-1.398z" style="fill:#231f20;fill-opacity:1;fill-rule:nonzero;stroke:none;stroke-width:.051032" transform="translate(92.182 80.024)"/></g><g style="stroke-width:.051032"><path d="m0 0-.922 1.448c-.028.044-.021.081.023.109l.223.142L.192.335C.204.316.216.305.226.302.237.3.251.304.27.316l.405.257c.127.081.207.15.241.207L1.05.57c.015-.023.017-.046.007-.067A.227.227 0 0 0 .988.428 2.473 2.473 0 0 0 .821.313L.244-.054C.144-.118.063-.099 0 0" style="fill:#231f20;fill-opacity:1;fill-rule:nonzero;stroke:none;stroke-width:.051032" transform="translate(93.847 79.3)"/></g><g style="stroke-width:.051032"><path d="m0 0-1.048 1.359c-.033.042-.029.079.012.11l.21.162.987-1.28C.175.334.187.324.198.322.209.32.223.325.24.339l.381.293C.74.724.814.8.842.859L.994.663c.017-.022.021-.044.013-.067A.241.241 0 0 0 .946.515 2.4 2.4 0 0 0 .789.386L.248-.031C.154-.104.072-.093 0 0" style="fill:#231f20;fill-opacity:1;fill-rule:nonzero;stroke:none;stroke-width:.051032" transform="translate(95.118 80.138)"/></g><g style="stroke-width:.051032"><path d="M0 0c-.206.026-.431.157-.675.395A1.38 1.38 0 0 0-.97.8a.77.77 0 0 0-.067.451.828.828 0 0 0 .249.455c.069.072.123.131.164.181.04.049.067.094.081.134l.176-.171c.022-.022.031-.046.025-.072a.296.296 0 0 0-.059-.099A3.082 3.082 0 0 0-.565 1.5a.459.459 0 0 1-.139-.398c.02-.149.109-.3.266-.453.34-.33.621-.382.843-.154.13.135.219.263.266.384L.833.722A.101.101 0 0 0 .861.673.08.08 0 0 0 .856.622a.927.927 0 0 0-.1-.171A1.34 1.34 0 0 0 .615.276C.41.066.206-.026 0 0" style="fill:#231f20;fill-opacity:1;fill-rule:nonzero;stroke:none;stroke-width:.051032" transform="translate(96.955 81.745)"/></g><g style="stroke-width:.051032"><path d="m0 0-1.336 1.078c-.041.033-.045.07-.013.11l.167.206L.075.379C.092.365.107.358.118.359c.011 0 .024.009.037.026l.302.374c.095.117.149.208.163.272L.813.875C.835.858.844.838.841.813A.238.238 0 0 0 .8.721 2.421 2.421 0 0 0 .678.559L.248.027C.174-.065.092-.074 0 0" style="fill:#231f20;fill-opacity:1;fill-rule:nonzero;stroke:none;stroke-width:.051032" transform="translate(98.01 82.808)"/></g><g style="stroke-width:.051032"><path d="M0 0a.518.518 0 0 0-.362-.043c-.143.027-.316.107-.518.238l-.84.546c-.023.015-.037.03-.042.046-.006.016-.001.035.014.058l.148.227.872-.567c.143-.093.262-.156.356-.186A.37.37 0 0 1-.141.304a.31.31 0 0 1 .157.135.309.309 0 0 1 .059.198C.07.7.034.768-.032.842a1.637 1.637 0 0 1-.314.25l-.597.388a2.041 2.041 0 0 0-.164.116.203.203 0 0 0-.064.08c-.008.024-.004.049.013.076l.149.229c.04-.06.12-.127.239-.205l.645-.42c.202-.131.345-.257.428-.377A.514.514 0 0 0 .41.631.819.819 0 0 0 .27.273.827.827 0 0 0 0 0" style="fill:#231f20;fill-opacity:1;fill-rule:nonzero;stroke:none;stroke-width:.051032" transform="translate(99.238 84.205)"/></g><g style="stroke-width:.051032"><path d="M0 0c-.011.085-.066.152-.165.202-.096.049-.177.055-.242.019A.478.478 0 0 1-.581.013l-.131-.261.523-.263c.032.047.075.125.13.234.05.1.069.192.059.277m-.809.351C-.82.428-.871.489-.961.534c-.085.043-.159.053-.223.03C-1.247.541-1.308.47-1.369.35a2.67 2.67 0 0 1-.035-.078c-.012-.025-.02-.047-.028-.066-.015-.038-.025-.064-.032-.076l.493-.248.097.192a.486.486 0 0 1 .065.277M.069-.651a7.074 7.074 0 0 0-.166-.284l-1.752.882a5.063 5.063 0 0 0 .219.528c.105.209.224.345.356.407.132.062.286.049.462-.04A.484.484 0 0 0-.608.675.567.567 0 0 0-.53.457c.069.06.149.095.241.107A.474.474 0 0 0-.012.511C.167.421.274.299.31.144.345-.011.313-.187.214-.384a7.072 7.072 0 0 0-.145-.267" style="fill:#231f20;fill-opacity:1;fill-rule:nonzero;stroke:none;stroke-width:.051032" transform="translate(100.245 86.52)"/></g></g></g></svg>